%TF.GenerationSoftware,KiCad,Pcbnew,7.0.9*%
%TF.CreationDate,2024-08-18T04:48:21-07:00*%
%TF.ProjectId,left,6c656674-2e6b-4696-9361-645f70636258,v1.0.0*%
%TF.SameCoordinates,Original*%
%TF.FileFunction,Paste,Top*%
%TF.FilePolarity,Positive*%
%FSLAX46Y46*%
G04 Gerber Fmt 4.6, Leading zero omitted, Abs format (unit mm)*
G04 Created by KiCad (PCBNEW 7.0.9) date 2024-08-18 04:48:21*
%MOMM*%
%LPD*%
G01*
G04 APERTURE LIST*
G04 Aperture macros list*
%AMRotRect*
0 Rectangle, with rotation*
0 The origin of the aperture is its center*
0 $1 length*
0 $2 width*
0 $3 Rotation angle, in degrees counterclockwise*
0 Add horizontal line*
21,1,$1,$2,0,0,$3*%
G04 Aperture macros list end*
%ADD10R,0.900000X1.200000*%
%ADD11RotRect,0.900000X1.200000X335.000000*%
%ADD12RotRect,0.900000X1.200000X350.000000*%
G04 APERTURE END LIST*
D10*
%TO.C,D5*%
X141799550Y-145757900D03*
X145099550Y-145757900D03*
%TD*%
D11*
%TO.C,D1*%
X252974659Y-190917974D03*
X255965475Y-192312614D03*
%TD*%
D10*
%TO.C,D11*%
X179799550Y-140995400D03*
X183099550Y-140995400D03*
%TD*%
%TO.C,D10*%
X179799550Y-160045400D03*
X183099550Y-160045400D03*
%TD*%
%TO.C,D4*%
X141799550Y-164807900D03*
X145099550Y-164807900D03*
%TD*%
%TO.C,D12*%
X179799550Y-121945400D03*
X183099550Y-121945400D03*
%TD*%
%TO.C,D20*%
X236799550Y-143852900D03*
X240099550Y-143852900D03*
%TD*%
%TO.C,D16*%
X217799550Y-160045400D03*
X221099550Y-160045400D03*
%TD*%
%TO.C,D21*%
X236799550Y-124802900D03*
X240099550Y-124802900D03*
%TD*%
%TO.C,D19*%
X236799550Y-162902900D03*
X240099550Y-162902900D03*
%TD*%
%TO.C,D15*%
X198799550Y-117182900D03*
X202099550Y-117182900D03*
%TD*%
%TO.C,D17*%
X217799550Y-140995400D03*
X221099550Y-140995400D03*
%TD*%
%TO.C,D8*%
X160799550Y-140995400D03*
X164099550Y-140995400D03*
%TD*%
D12*
%TO.C,D2*%
X233705669Y-185294125D03*
X236955535Y-185867163D03*
%TD*%
D10*
%TO.C,D3*%
X213989550Y-183857900D03*
X217289550Y-183857900D03*
%TD*%
%TO.C,D6*%
X141799550Y-126707900D03*
X145099550Y-126707900D03*
%TD*%
%TO.C,D9*%
X160799550Y-121945400D03*
X164099550Y-121945400D03*
%TD*%
%TO.C,D18*%
X217799550Y-121945400D03*
X221099550Y-121945400D03*
%TD*%
%TO.C,D13*%
X198799550Y-155282900D03*
X202099550Y-155282900D03*
%TD*%
%TO.C,D14*%
X198799550Y-136232900D03*
X202099550Y-136232900D03*
%TD*%
%TO.C,D7*%
X160799550Y-160045400D03*
X164099550Y-160045400D03*
%TD*%
M02*
