%TF.GenerationSoftware,KiCad,Pcbnew,7.0.9*%
%TF.CreationDate,2024-08-18T04:48:21-07:00*%
%TF.ProjectId,left,6c656674-2e6b-4696-9361-645f70636258,v1.0.0*%
%TF.SameCoordinates,Original*%
%TF.FileFunction,Copper,L2,Bot*%
%TF.FilePolarity,Positive*%
%FSLAX46Y46*%
G04 Gerber Fmt 4.6, Leading zero omitted, Abs format (unit mm)*
G04 Created by KiCad (PCBNEW 7.0.9) date 2024-08-18 04:48:21*
%MOMM*%
%LPD*%
G01*
G04 APERTURE LIST*
G04 Aperture macros list*
%AMRotRect*
0 Rectangle, with rotation*
0 The origin of the aperture is its center*
0 $1 length*
0 $2 width*
0 $3 Rotation angle, in degrees counterclockwise*
0 Add horizontal line*
21,1,$1,$2,0,0,$3*%
G04 Aperture macros list end*
%TA.AperFunction,SMDPad,CuDef*%
%ADD10R,1.250000X0.900000*%
%TD*%
%TA.AperFunction,SMDPad,CuDef*%
%ADD11R,0.900000X0.900000*%
%TD*%
%TA.AperFunction,WasherPad*%
%ADD12C,1.000000*%
%TD*%
%TA.AperFunction,SMDPad,CuDef*%
%ADD13R,1.100000X1.800000*%
%TD*%
%TA.AperFunction,SMDPad,CuDef*%
%ADD14R,2.600000X2.600000*%
%TD*%
%TA.AperFunction,SMDPad,CuDef*%
%ADD15RotRect,2.600000X2.600000X335.000000*%
%TD*%
%TA.AperFunction,ComponentPad*%
%ADD16R,1.778000X1.778000*%
%TD*%
%TA.AperFunction,SMDPad,CuDef*%
%ADD17R,0.900000X1.200000*%
%TD*%
%TA.AperFunction,ComponentPad*%
%ADD18C,1.905000*%
%TD*%
%TA.AperFunction,ComponentPad*%
%ADD19RotRect,1.778000X1.778000X335.000000*%
%TD*%
%TA.AperFunction,SMDPad,CuDef*%
%ADD20RotRect,0.900000X1.200000X335.000000*%
%TD*%
%TA.AperFunction,ComponentPad*%
%ADD21O,2.200000X1.600000*%
%TD*%
%TA.AperFunction,ComponentPad*%
%ADD22R,1.700000X1.200000*%
%TD*%
%TA.AperFunction,ComponentPad*%
%ADD23O,1.700000X1.200000*%
%TD*%
%TA.AperFunction,SMDPad,CuDef*%
%ADD24RotRect,2.600000X2.600000X350.000000*%
%TD*%
%TA.AperFunction,ComponentPad*%
%ADD25C,0.700000*%
%TD*%
%TA.AperFunction,ComponentPad*%
%ADD26C,4.400000*%
%TD*%
%TA.AperFunction,ComponentPad*%
%ADD27RotRect,1.778000X1.778000X350.000000*%
%TD*%
%TA.AperFunction,SMDPad,CuDef*%
%ADD28RotRect,0.900000X1.200000X350.000000*%
%TD*%
%TA.AperFunction,ComponentPad*%
%ADD29C,1.752600*%
%TD*%
%TA.AperFunction,Conductor*%
%ADD30C,0.250000*%
%TD*%
G04 APERTURE END LIST*
D10*
%TO.P,T1,3*%
%TO.N,N/C*%
X269374550Y-165102900D03*
%TO.P,T1,2*%
%TO.N,RAW*%
X269374550Y-163602900D03*
%TO.P,T1,1*%
%TO.N,pos*%
X269374550Y-160602900D03*
D11*
%TO.P,T1,*%
%TO.N,*%
X270349550Y-166552900D03*
X272549550Y-166552900D03*
D12*
X271449550Y-164352900D03*
X271449550Y-161352900D03*
D11*
X270349550Y-159152900D03*
X272549550Y-159152900D03*
%TD*%
D13*
%TO.P,B1,1*%
%TO.N,GND*%
X272299550Y-147752900D03*
X272299550Y-153952900D03*
%TO.P,B1,2*%
%TO.N,RST*%
X268599550Y-147752900D03*
X268599550Y-153952900D03*
%TD*%
D14*
%TO.P,S5,1*%
%TO.N,P104*%
X140174550Y-134807900D03*
%TO.P,S5,2*%
%TO.N,outer_home*%
X151724550Y-137007900D03*
%TD*%
D15*
%TO.P,S1,1*%
%TO.N,P017*%
X256129579Y-180307149D03*
%TO.P,S1,2*%
%TO.N,reachy_cluster*%
X265667673Y-187182267D03*
%TD*%
D16*
%TO.P,D5,1*%
%TO.N,P029*%
X139639550Y-145757900D03*
D17*
X141799550Y-145757900D03*
%TO.P,D5,2*%
%TO.N,outer_home*%
X145099550Y-145757900D03*
D18*
X147259550Y-145757900D03*
%TD*%
D19*
%TO.P,D1,1*%
%TO.N,P113*%
X251017034Y-190005118D03*
D20*
X252974659Y-190917974D03*
%TO.P,D1,2*%
%TO.N,reachy_cluster*%
X255965475Y-192312614D03*
D18*
X257923100Y-193225470D03*
%TD*%
D14*
%TO.P,S20,1*%
%TO.N,P017*%
X235174550Y-132902900D03*
%TO.P,S20,2*%
%TO.N,inner_home*%
X246724550Y-135102900D03*
%TD*%
%TO.P,S8,1*%
%TO.N,P100*%
X159174550Y-130045400D03*
%TO.P,S8,2*%
%TO.N,pinky_home*%
X170724550Y-132245400D03*
%TD*%
D16*
%TO.P,D11,1*%
%TO.N,P029*%
X177639550Y-140995400D03*
D17*
X179799550Y-140995400D03*
%TO.P,D11,2*%
%TO.N,ring_home*%
X183099550Y-140995400D03*
D18*
X185259550Y-140995400D03*
%TD*%
D21*
%TO.P,TRRS1,1*%
%TO.N,GND*%
X262146350Y-173800700D03*
X262146350Y-178400700D03*
%TO.P,TRRS1,2*%
X263246350Y-173800700D03*
X263246350Y-178400700D03*
%TO.P,TRRS1,3*%
%TO.N,P010*%
X267246350Y-173800700D03*
X267246350Y-178400700D03*
%TO.P,TRRS1,4*%
%TO.N,VCC*%
X270246350Y-173800700D03*
X270246350Y-178400700D03*
%TD*%
D22*
%TO.P,JST1,1*%
%TO.N,pos*%
X205449550Y-120232900D03*
D23*
%TO.P,JST1,2*%
%TO.N,GND*%
X205449550Y-122232900D03*
%TD*%
D16*
%TO.P,D10,1*%
%TO.N,P002*%
X177639550Y-160045400D03*
D17*
X179799550Y-160045400D03*
%TO.P,D10,2*%
%TO.N,ring_bottom*%
X183099550Y-160045400D03*
D18*
X185259550Y-160045400D03*
%TD*%
D16*
%TO.P,D4,1*%
%TO.N,P002*%
X139639550Y-164807900D03*
D17*
X141799550Y-164807900D03*
%TO.P,D4,2*%
%TO.N,outer_bottom*%
X145099550Y-164807900D03*
D18*
X147259550Y-164807900D03*
%TD*%
D14*
%TO.P,S10,1*%
%TO.N,P024*%
X178174550Y-149095400D03*
%TO.P,S10,2*%
%TO.N,ring_bottom*%
X189724550Y-151295400D03*
%TD*%
D16*
%TO.P,D12,1*%
%TO.N,P031*%
X177639550Y-121945400D03*
D17*
X179799550Y-121945400D03*
%TO.P,D12,2*%
%TO.N,ring_top*%
X183099550Y-121945400D03*
D18*
X185259550Y-121945400D03*
%TD*%
D24*
%TO.P,S2,1*%
%TO.N,P020*%
X234006804Y-174228301D03*
%TO.P,S2,2*%
%TO.N,tucky_cluster*%
X244999308Y-178400515D03*
%TD*%
D16*
%TO.P,D20,1*%
%TO.N,P029*%
X234639550Y-143852900D03*
D17*
X236799550Y-143852900D03*
%TO.P,D20,2*%
%TO.N,inner_home*%
X240099550Y-143852900D03*
D18*
X242259550Y-143852900D03*
%TD*%
D14*
%TO.P,S3,1*%
%TO.N,P022*%
X212364550Y-172907900D03*
%TO.P,S3,2*%
%TO.N,stim_cluster*%
X223914550Y-175107900D03*
%TD*%
D16*
%TO.P,D16,1*%
%TO.N,P002*%
X215639550Y-160045400D03*
D17*
X217799550Y-160045400D03*
%TO.P,D16,2*%
%TO.N,index_bottom*%
X221099550Y-160045400D03*
D18*
X223259550Y-160045400D03*
%TD*%
D14*
%TO.P,S17,1*%
%TO.N,P020*%
X216174550Y-130045400D03*
%TO.P,S17,2*%
%TO.N,index_home*%
X227724550Y-132245400D03*
%TD*%
D16*
%TO.P,D21,1*%
%TO.N,P031*%
X234639550Y-124802900D03*
D17*
X236799550Y-124802900D03*
%TO.P,D21,2*%
%TO.N,inner_top*%
X240099550Y-124802900D03*
D18*
X242259550Y-124802900D03*
%TD*%
D16*
%TO.P,D19,1*%
%TO.N,P002*%
X234639550Y-162902900D03*
D17*
X236799550Y-162902900D03*
%TO.P,D19,2*%
%TO.N,inner_bottom*%
X240099550Y-162902900D03*
D18*
X242259550Y-162902900D03*
%TD*%
D25*
%TO.P,_2,1*%
%TO.N,N/C*%
X151299550Y-150307900D03*
X151782824Y-149141174D03*
X151782824Y-151474626D03*
X152949550Y-148657900D03*
D26*
X152949550Y-150307900D03*
D25*
X152949550Y-151957900D03*
X154116276Y-149141174D03*
X154116276Y-151474626D03*
X154599550Y-150307900D03*
%TD*%
D14*
%TO.P,S12,1*%
%TO.N,P024*%
X178174550Y-110995400D03*
%TO.P,S12,2*%
%TO.N,ring_top*%
X189724550Y-113195400D03*
%TD*%
%TO.P,S9,1*%
%TO.N,P100*%
X159174550Y-110995400D03*
%TO.P,S9,2*%
%TO.N,pinky_top*%
X170724550Y-113195400D03*
%TD*%
D25*
%TO.P,_3,1*%
%TO.N,N/C*%
X227299550Y-123945400D03*
X227782824Y-122778674D03*
X227782824Y-125112126D03*
X228949550Y-122295400D03*
D26*
X228949550Y-123945400D03*
D25*
X228949550Y-125595400D03*
X230116276Y-122778674D03*
X230116276Y-125112126D03*
X230599550Y-123945400D03*
%TD*%
D16*
%TO.P,D15,1*%
%TO.N,P031*%
X196639550Y-117182900D03*
D17*
X198799550Y-117182900D03*
%TO.P,D15,2*%
%TO.N,middle_top*%
X202099550Y-117182900D03*
D18*
X204259550Y-117182900D03*
%TD*%
D25*
%TO.P,_4,1*%
%TO.N,N/C*%
X236744512Y-168059989D03*
X237423044Y-166994907D03*
X237017844Y-169292909D03*
X238655964Y-166721575D03*
D26*
X238369445Y-168346508D03*
D25*
X238082926Y-169971441D03*
X239721046Y-167400107D03*
X239315846Y-169698109D03*
X239994378Y-168633027D03*
%TD*%
D14*
%TO.P,S6,1*%
%TO.N,P104*%
X140174550Y-115757900D03*
%TO.P,S6,2*%
%TO.N,outer_top*%
X151724550Y-117957900D03*
%TD*%
%TO.P,S7,2*%
%TO.N,pinky_bottom*%
X170724550Y-151295400D03*
%TO.P,S7,1*%
%TO.N,P100*%
X159174550Y-149095400D03*
%TD*%
%TO.P,S14,1*%
%TO.N,P022*%
X197174550Y-125282900D03*
%TO.P,S14,2*%
%TO.N,middle_home*%
X208724550Y-127482900D03*
%TD*%
D16*
%TO.P,D17,1*%
%TO.N,P029*%
X215639550Y-140995400D03*
D17*
X217799550Y-140995400D03*
%TO.P,D17,2*%
%TO.N,index_home*%
X221099550Y-140995400D03*
D18*
X223259550Y-140995400D03*
%TD*%
D16*
%TO.P,D8,1*%
%TO.N,P029*%
X158639550Y-140995400D03*
D17*
X160799550Y-140995400D03*
%TO.P,D8,2*%
%TO.N,pinky_home*%
X164099550Y-140995400D03*
D18*
X166259550Y-140995400D03*
%TD*%
D27*
%TO.P,D2,1*%
%TO.N,P113*%
X231578484Y-184919044D03*
D28*
X233705669Y-185294125D03*
%TO.P,D2,2*%
%TO.N,tucky_cluster*%
X236955535Y-185867163D03*
D18*
X239082720Y-186242244D03*
%TD*%
D14*
%TO.P,S13,1*%
%TO.N,P022*%
X197174550Y-144332900D03*
%TO.P,S13,2*%
%TO.N,middle_bottom*%
X208724550Y-146532900D03*
%TD*%
%TO.P,S11,1*%
%TO.N,P024*%
X178174550Y-130045400D03*
%TO.P,S11,2*%
%TO.N,ring_home*%
X189724550Y-132245400D03*
%TD*%
%TO.P,S4,1*%
%TO.N,P104*%
X140174550Y-153857900D03*
%TO.P,S4,2*%
%TO.N,outer_bottom*%
X151724550Y-156057900D03*
%TD*%
D16*
%TO.P,D3,1*%
%TO.N,P113*%
X211829550Y-183857900D03*
D17*
X213989550Y-183857900D03*
%TO.P,D3,2*%
%TO.N,stim_cluster*%
X217289550Y-183857900D03*
D18*
X219449550Y-183857900D03*
%TD*%
D14*
%TO.P,S21,1*%
%TO.N,P017*%
X235174550Y-113852900D03*
%TO.P,S21,2*%
%TO.N,inner_top*%
X246724550Y-116052900D03*
%TD*%
%TO.P,S16,1*%
%TO.N,P020*%
X216174550Y-149095400D03*
%TO.P,S16,2*%
%TO.N,index_bottom*%
X227724550Y-151295400D03*
%TD*%
D16*
%TO.P,D6,1*%
%TO.N,P031*%
X139639550Y-126707900D03*
D17*
X141799550Y-126707900D03*
%TO.P,D6,2*%
%TO.N,outer_top*%
X145099550Y-126707900D03*
D18*
X147259550Y-126707900D03*
%TD*%
D14*
%TO.P,S18,1*%
%TO.N,P020*%
X216174550Y-110995400D03*
%TO.P,S18,2*%
%TO.N,index_top*%
X227724550Y-113195400D03*
%TD*%
D29*
%TO.P,MCU1,24*%
%TO.N,RAW*%
X250829550Y-142882900D03*
%TO.P,MCU1,23*%
%TO.N,GND*%
X250829550Y-145422900D03*
%TO.P,MCU1,22*%
%TO.N,RST*%
X250829550Y-147962900D03*
%TO.P,MCU1,21*%
%TO.N,VCC*%
X250829550Y-150502900D03*
%TO.P,MCU1,20*%
%TO.N,P031*%
X250829550Y-153042900D03*
%TO.P,MCU1,19*%
%TO.N,P029*%
X250829550Y-155582900D03*
%TO.P,MCU1,18*%
%TO.N,P002*%
X250829550Y-158122900D03*
%TO.P,MCU1,17*%
%TO.N,P115*%
X250829550Y-160662900D03*
%TO.P,MCU1,16*%
%TO.N,P113*%
X250829550Y-163202900D03*
%TO.P,MCU1,15*%
%TO.N,P111*%
X250829550Y-165742900D03*
%TO.P,MCU1,14*%
%TO.N,P010*%
X250829550Y-168282900D03*
%TO.P,MCU1,13*%
%TO.N,P009*%
X250829550Y-170822900D03*
%TO.P,MCU1,12*%
%TO.N,P106*%
X266069550Y-170822900D03*
%TO.P,MCU1,11*%
%TO.N,P104*%
X266069550Y-168282900D03*
%TO.P,MCU1,10*%
%TO.N,P011*%
X266069550Y-165742900D03*
%TO.P,MCU1,9*%
%TO.N,P100*%
X266069550Y-163202900D03*
%TO.P,MCU1,8*%
%TO.N,P024*%
X266069550Y-160662900D03*
%TO.P,MCU1,7*%
%TO.N,P022*%
X266069550Y-158122900D03*
%TO.P,MCU1,6*%
%TO.N,P020*%
X266069550Y-155582900D03*
%TO.P,MCU1,5*%
%TO.N,P017*%
X266069550Y-153042900D03*
%TO.P,MCU1,4*%
%TO.N,GND*%
X266069550Y-150502900D03*
%TO.P,MCU1,3*%
X266069550Y-147962900D03*
%TO.P,MCU1,2*%
%TO.N,P008*%
X266069550Y-145422900D03*
%TO.P,MCU1,1*%
%TO.N,P006*%
X266069550Y-142882900D03*
%TD*%
D16*
%TO.P,D9,1*%
%TO.N,P031*%
X158639550Y-121945400D03*
D17*
X160799550Y-121945400D03*
%TO.P,D9,2*%
%TO.N,pinky_top*%
X164099550Y-121945400D03*
D18*
X166259550Y-121945400D03*
%TD*%
D14*
%TO.P,S15,1*%
%TO.N,P022*%
X197174550Y-106232900D03*
%TO.P,S15,2*%
%TO.N,middle_top*%
X208724550Y-108432900D03*
%TD*%
D16*
%TO.P,D18,1*%
%TO.N,P031*%
X215639550Y-121945400D03*
D17*
X217799550Y-121945400D03*
%TO.P,D18,2*%
%TO.N,index_top*%
X221099550Y-121945400D03*
D18*
X223259550Y-121945400D03*
%TD*%
D16*
%TO.P,D13,1*%
%TO.N,P002*%
X196639550Y-155282900D03*
D17*
X198799550Y-155282900D03*
%TO.P,D13,2*%
%TO.N,middle_bottom*%
X202099550Y-155282900D03*
D18*
X204259550Y-155282900D03*
%TD*%
D16*
%TO.P,D14,1*%
%TO.N,P029*%
X196639550Y-136232900D03*
D17*
X198799550Y-136232900D03*
%TO.P,D14,2*%
%TO.N,middle_home*%
X202099550Y-136232900D03*
D18*
X204259550Y-136232900D03*
%TD*%
D14*
%TO.P,S19,1*%
%TO.N,P017*%
X235174550Y-151952900D03*
%TO.P,S19,2*%
%TO.N,inner_bottom*%
X246724550Y-154152900D03*
%TD*%
D16*
%TO.P,D7,1*%
%TO.N,P002*%
X158639550Y-160045400D03*
D17*
X160799550Y-160045400D03*
%TO.P,D7,2*%
%TO.N,pinky_bottom*%
X164099550Y-160045400D03*
D18*
X166259550Y-160045400D03*
%TD*%
D25*
%TO.P,_1,1*%
%TO.N,N/C*%
X151299550Y-126707900D03*
X151782824Y-125541174D03*
X151782824Y-127874626D03*
X152949550Y-125057900D03*
D26*
X152949550Y-126707900D03*
D25*
X152949550Y-128357900D03*
X154116276Y-125541174D03*
X154116276Y-127874626D03*
X154599550Y-126707900D03*
%TD*%
D30*
%TO.N,P104*%
X258137043Y-168282900D02*
X266069550Y-168282900D01*
X252134043Y-174285900D02*
X258137043Y-168282900D01*
X242303987Y-174285900D02*
X252134043Y-174285900D01*
X238288343Y-178301544D02*
X242303987Y-174285900D01*
X238288343Y-181522104D02*
X238288343Y-178301544D01*
X236972877Y-182837570D02*
X238288343Y-181522104D01*
X230016450Y-182837570D02*
X236972877Y-182837570D01*
X226818620Y-186035400D02*
X230016450Y-182837570D01*
X207964200Y-183532942D02*
X210466658Y-186035400D01*
X197585158Y-162231900D02*
X207964200Y-172610942D01*
X154614550Y-162231900D02*
X197585158Y-162231900D01*
X207964200Y-172610942D02*
X207964200Y-183532942D01*
X149333450Y-167513000D02*
X154614550Y-162231900D01*
X136723650Y-165883600D02*
X138353050Y-167513000D01*
X140174550Y-153857900D02*
X136723650Y-157308800D01*
X210466658Y-186035400D02*
X226818620Y-186035400D01*
X136723650Y-157308800D02*
X136723650Y-165883600D01*
X138353050Y-167513000D02*
X149333450Y-167513000D01*
%TO.N,P022*%
X195425550Y-158036750D02*
X210296700Y-172907900D01*
X197174550Y-144332900D02*
X197174550Y-149791584D01*
X197174550Y-149791584D02*
X195425550Y-151540584D01*
X195425550Y-151540584D02*
X195425550Y-158036750D01*
X210296700Y-172907900D02*
X212364550Y-172907900D01*
%TO.N,P020*%
X264868250Y-156784200D02*
X266069550Y-155582900D01*
X250331955Y-156784200D02*
X264868250Y-156784200D01*
X247922895Y-165677868D02*
X249072400Y-164528363D01*
X249072400Y-164528363D02*
X249072400Y-158043755D01*
X247922895Y-166121408D02*
X247922895Y-165677868D01*
X235337305Y-172897800D02*
X241146503Y-172897800D01*
X241146503Y-172897800D02*
X247922895Y-166121408D01*
X249072400Y-158043755D02*
X250331955Y-156784200D01*
X234006804Y-174228301D02*
X235337305Y-172897800D01*
%TO.N,pos*%
X205449550Y-118470400D02*
X205449550Y-120232900D01*
X214861250Y-109058700D02*
X205449550Y-118470400D01*
X220233750Y-109058700D02*
X214861250Y-109058700D01*
X221833950Y-110658900D02*
X220233750Y-109058700D01*
X244414550Y-110658900D02*
X221833950Y-110658900D01*
X248349550Y-114593900D02*
X244414550Y-110658900D01*
X248349550Y-137072900D02*
X248349550Y-114593900D01*
X265372550Y-138725900D02*
X250002550Y-138725900D01*
X250002550Y-138725900D02*
X248349550Y-137072900D01*
X273174550Y-155177900D02*
X273174550Y-146527900D01*
X273174550Y-146527900D02*
X265372550Y-138725900D01*
X271145000Y-155177900D02*
X273174550Y-155177900D01*
X271145000Y-159927900D02*
X271145000Y-155177900D01*
X270049550Y-159927900D02*
X271145000Y-159927900D01*
X269374550Y-160602900D02*
X270049550Y-159927900D01*
%TO.N,GND*%
X270862100Y-153952900D02*
X272299550Y-153952900D01*
X268424550Y-156390450D02*
X270862100Y-153952900D01*
X268424550Y-162016504D02*
X268424550Y-156390450D01*
X269235946Y-162827900D02*
X268424550Y-162016504D01*
X270324550Y-162827900D02*
X269235946Y-162827900D01*
X270324550Y-165777900D02*
X270324550Y-162827900D01*
X271124550Y-167468050D02*
X271124550Y-165777900D01*
X271124550Y-165777900D02*
X270324550Y-165777900D01*
X265916900Y-172675700D02*
X271124550Y-167468050D01*
X264371350Y-172675700D02*
X265916900Y-172675700D01*
X263246350Y-173800700D02*
X264371350Y-172675700D01*
%TO.N,RAW*%
X249178250Y-144534200D02*
X250829550Y-142882900D01*
X266567145Y-151841600D02*
X250469050Y-151841600D01*
X250469050Y-151841600D02*
X249178250Y-150550800D01*
X249178250Y-150550800D02*
X249178250Y-144534200D01*
X267720850Y-154057804D02*
X267270850Y-153607804D01*
X267720850Y-161949200D02*
X267720850Y-154057804D01*
X267270850Y-152545305D02*
X266567145Y-151841600D01*
X269374550Y-163602900D02*
X267720850Y-161949200D01*
X267270850Y-153607804D02*
X267270850Y-152545305D01*
%TO.N,GND*%
X251655300Y-145422900D02*
X250829550Y-145422900D01*
X252544000Y-146311600D02*
X251655300Y-145422900D01*
X263481955Y-146311600D02*
X252544000Y-146311600D01*
X269315850Y-144221600D02*
X265571955Y-144221600D01*
X265571955Y-144221600D02*
X263481955Y-146311600D01*
X272299550Y-147205300D02*
X269315850Y-144221600D01*
X272299550Y-147752900D02*
X272299550Y-147205300D01*
%TO.N,P017*%
X250331955Y-154244200D02*
X264868250Y-154244200D01*
X264868250Y-154244200D02*
X266069550Y-153042900D01*
X248728250Y-152640495D02*
X250331955Y-154244200D01*
X248615950Y-150077900D02*
X248728250Y-150190200D01*
X237049550Y-150077900D02*
X248615950Y-150077900D01*
X248728250Y-150190200D02*
X248728250Y-152640495D01*
X235174550Y-151952900D02*
X237049550Y-150077900D01*
%TO.N,P020*%
X229510449Y-176221999D02*
X232013106Y-176221999D01*
X214425550Y-158831400D02*
X214425550Y-161137100D01*
X214425550Y-161137100D02*
X229510449Y-176221999D01*
X216174550Y-157082400D02*
X214425550Y-158831400D01*
X216174550Y-149095400D02*
X216174550Y-157082400D01*
X232013106Y-176221999D02*
X234006804Y-174228301D01*
%TO.N,P100*%
X262328250Y-166944200D02*
X266069550Y-163202900D01*
X249009291Y-166944200D02*
X262328250Y-166944200D01*
X237838343Y-178115148D02*
X249009291Y-166944200D01*
X237838343Y-178545900D02*
X237838343Y-178115148D01*
X233671724Y-178545900D02*
X237838343Y-178545900D01*
X226632224Y-185585400D02*
X233671724Y-178545900D01*
X208414200Y-183346546D02*
X210653054Y-185585400D01*
X208414200Y-172424546D02*
X208414200Y-183346546D01*
X210653054Y-185585400D02*
X226632224Y-185585400D01*
X197771554Y-161781900D02*
X208414200Y-172424546D01*
X157005950Y-161781900D02*
X197771554Y-161781900D01*
X155723650Y-152546300D02*
X155723650Y-160499600D01*
X155723650Y-160499600D02*
X157005950Y-161781900D01*
X159174550Y-149095400D02*
X155723650Y-152546300D01*
%TO.N,P024*%
X174723650Y-152546300D02*
X178174550Y-149095400D01*
X174723650Y-159433600D02*
X174723650Y-152546300D01*
X176621950Y-161331900D02*
X174723650Y-159433600D01*
X197957950Y-161331900D02*
X176621950Y-161331900D01*
X208864200Y-183160150D02*
X208864200Y-172238150D01*
X210839450Y-185135400D02*
X208864200Y-183160150D01*
X226445828Y-185135400D02*
X210839450Y-185135400D01*
X229556500Y-182024728D02*
X226445828Y-185135400D01*
X208864200Y-172238150D02*
X197957950Y-161331900D01*
X229556500Y-179193756D02*
X229556500Y-182024728D01*
X230654356Y-178095900D02*
X229556500Y-179193756D01*
X237388343Y-177928752D02*
X237388343Y-178095900D01*
X248822895Y-166494200D02*
X237388343Y-177928752D01*
X262328250Y-164404200D02*
X250469355Y-164404200D01*
X250469355Y-164404200D02*
X248822895Y-166050660D01*
X248822895Y-166050660D02*
X248822895Y-166494200D01*
X266069550Y-160662900D02*
X262328250Y-164404200D01*
X237388343Y-178095900D02*
X230654356Y-178095900D01*
%TO.N,P113*%
X233330588Y-184919044D02*
X233705669Y-185294125D01*
X231578484Y-184919044D02*
X233330588Y-184919044D01*
X252061803Y-190005118D02*
X252974659Y-190917974D01*
X251017034Y-190005118D02*
X252061803Y-190005118D01*
%TO.N,P022*%
X250384650Y-161864200D02*
X262328250Y-161864200D01*
X249570750Y-162678100D02*
X250384650Y-161864200D01*
X249570750Y-164666409D02*
X249570750Y-162678100D01*
X248372895Y-166307804D02*
X248372895Y-165864264D01*
X238008700Y-176671999D02*
X248372895Y-166307804D01*
X223684954Y-171032900D02*
X229324053Y-176671999D01*
X262328250Y-161864200D02*
X266069550Y-158122900D01*
X214239550Y-171032900D02*
X223684954Y-171032900D01*
X248372895Y-165864264D02*
X249570750Y-164666409D01*
X229324053Y-176671999D02*
X238008700Y-176671999D01*
X212364550Y-172907900D02*
X214239550Y-171032900D01*
%TO.N,tucky_cluster*%
X238707639Y-185867163D02*
X239082720Y-186242244D01*
X236955535Y-185867163D02*
X238707639Y-185867163D01*
X244999308Y-180325656D02*
X239082720Y-186242244D01*
X244999308Y-178400515D02*
X244999308Y-180325656D01*
%TO.N,P031*%
X139639550Y-126707900D02*
X141799550Y-126707900D01*
%TO.N,outer_top*%
X145099550Y-126707900D02*
X147259550Y-126707900D01*
X151724550Y-122242900D02*
X147259550Y-126707900D01*
X151724550Y-117957900D02*
X151724550Y-122242900D01*
%TO.N,ring_home*%
X183099550Y-140995400D02*
X185259550Y-140995400D01*
%TO.N,P029*%
X177639550Y-140995400D02*
X179799550Y-140995400D01*
X158639550Y-140995400D02*
X160799550Y-140995400D01*
%TO.N,pinky_home*%
X164099550Y-140995400D02*
X166259550Y-140995400D01*
X170724550Y-136530400D02*
X166259550Y-140995400D01*
X170724550Y-132245400D02*
X170724550Y-136530400D01*
%TO.N,ring_home*%
X189724550Y-136530400D02*
X185259550Y-140995400D01*
X189724550Y-132245400D02*
X189724550Y-136530400D01*
%TO.N,P017*%
X233425550Y-142638900D02*
X233425550Y-150203900D01*
X235174550Y-113852900D02*
X235174550Y-121839900D01*
X267270850Y-168780495D02*
X267270850Y-154244200D01*
X267270850Y-154244200D02*
X266069550Y-153042900D01*
X233390950Y-123623500D02*
X233390950Y-131119300D01*
X266567145Y-169484200D02*
X267270850Y-168780495D01*
X235174550Y-121839900D02*
X233390950Y-123623500D01*
X256129579Y-180307149D02*
X256129579Y-177926481D01*
X233425550Y-150203900D02*
X235174550Y-151952900D01*
X256129579Y-177926481D02*
X264571860Y-169484200D01*
X235174550Y-132902900D02*
X235174550Y-140889900D01*
X233390950Y-131119300D02*
X235174550Y-132902900D01*
X235174550Y-140889900D02*
X233425550Y-142638900D01*
X264571860Y-169484200D02*
X266567145Y-169484200D01*
%TO.N,reachy_cluster*%
X257010244Y-192312614D02*
X257923100Y-193225470D01*
X255965475Y-192312614D02*
X257010244Y-192312614D01*
X265667673Y-187182267D02*
X259624470Y-193225470D01*
X259624470Y-193225470D02*
X257923100Y-193225470D01*
%TO.N,P020*%
X214425550Y-147346400D02*
X216174550Y-149095400D01*
X216174550Y-110995400D02*
X216174550Y-118982400D01*
X216174550Y-118982400D02*
X214425550Y-120731400D01*
X214425550Y-139781400D02*
X214425550Y-147346400D01*
X216174550Y-138032400D02*
X214425550Y-139781400D01*
X214425550Y-120731400D02*
X214425550Y-128296400D01*
X216174550Y-130045400D02*
X216174550Y-138032400D01*
X214425550Y-128296400D02*
X216174550Y-130045400D01*
%TO.N,P022*%
X197174550Y-125282900D02*
X197174550Y-133269900D01*
X195425550Y-115968900D02*
X195425550Y-123533900D01*
X197174550Y-133269900D02*
X195425550Y-135018900D01*
X195425550Y-142583900D02*
X197174550Y-144332900D01*
X195425550Y-135018900D02*
X195425550Y-142583900D01*
X197174550Y-106232900D02*
X197174550Y-114219900D01*
X197174550Y-114219900D02*
X195425550Y-115968900D01*
X195425550Y-123533900D02*
X197174550Y-125282900D01*
%TO.N,stim_cluster*%
X223914550Y-175107900D02*
X223914550Y-179392900D01*
X223914550Y-179392900D02*
X219449550Y-183857900D01*
X217289550Y-183857900D02*
X219449550Y-183857900D01*
%TO.N,P104*%
X138425550Y-152108900D02*
X140174550Y-153857900D01*
X140174550Y-134807900D02*
X140174550Y-142794900D01*
X140174550Y-123744900D02*
X138425550Y-125493900D01*
X140174550Y-115757900D02*
X140174550Y-123744900D01*
X140174550Y-142794900D02*
X138425550Y-144543900D01*
X138425550Y-125493900D02*
X138425550Y-133058900D01*
X138425550Y-144543900D02*
X138425550Y-152108900D01*
X138425550Y-133058900D02*
X140174550Y-134807900D01*
%TO.N,outer_bottom*%
X145099550Y-164807900D02*
X147259550Y-164807900D01*
X151724550Y-160342900D02*
X147259550Y-164807900D01*
X151724550Y-156057900D02*
X151724550Y-160342900D01*
%TO.N,outer_home*%
X151724550Y-141292900D02*
X147259550Y-145757900D01*
X151724550Y-137007900D02*
X151724550Y-141292900D01*
X145099550Y-145757900D02*
X147259550Y-145757900D01*
%TO.N,P100*%
X159174550Y-118982400D02*
X157425550Y-120731400D01*
X157425550Y-139781400D02*
X157425550Y-147346400D01*
X159174550Y-110995400D02*
X159174550Y-118982400D01*
X159174550Y-138032400D02*
X157425550Y-139781400D01*
X157425550Y-147346400D02*
X159174550Y-149095400D01*
X157425550Y-128296400D02*
X159174550Y-130045400D01*
X159174550Y-130045400D02*
X159174550Y-138032400D01*
X157425550Y-120731400D02*
X157425550Y-128296400D01*
%TO.N,pinky_bottom*%
X164099550Y-160045400D02*
X166259550Y-160045400D01*
X170724550Y-155580400D02*
X166259550Y-160045400D01*
X170724550Y-151295400D02*
X170724550Y-155580400D01*
%TO.N,pinky_top*%
X170724550Y-117480400D02*
X166259550Y-121945400D01*
X164099550Y-121945400D02*
X166259550Y-121945400D01*
X170724550Y-113195400D02*
X170724550Y-117480400D01*
%TO.N,P024*%
X178174550Y-130045400D02*
X178174550Y-138032400D01*
X178174550Y-138032400D02*
X176425550Y-139781400D01*
X178174550Y-118982400D02*
X176425550Y-120731400D01*
X176425550Y-139781400D02*
X176425550Y-147346400D01*
X176425550Y-120731400D02*
X176425550Y-128296400D01*
X176425550Y-128296400D02*
X178174550Y-130045400D01*
X178174550Y-110995400D02*
X178174550Y-118982400D01*
X176425550Y-147346400D02*
X178174550Y-149095400D01*
%TO.N,ring_bottom*%
X189724550Y-151295400D02*
X189724550Y-155580400D01*
X183099550Y-160045400D02*
X185259550Y-160045400D01*
X189724550Y-155580400D02*
X185259550Y-160045400D01*
%TO.N,ring_top*%
X189724550Y-117480400D02*
X185259550Y-121945400D01*
X185259550Y-121945400D02*
X183099550Y-121945400D01*
X189724550Y-113195400D02*
X189724550Y-117480400D01*
%TO.N,middle_bottom*%
X202099550Y-155282900D02*
X204259550Y-155282900D01*
X208724550Y-150817900D02*
X204259550Y-155282900D01*
X208724550Y-146532900D02*
X208724550Y-150817900D01*
%TO.N,middle_home*%
X208724550Y-131767900D02*
X204259550Y-136232900D01*
X202099550Y-136232900D02*
X204259550Y-136232900D01*
X208724550Y-127482900D02*
X208724550Y-131767900D01*
%TO.N,middle_top*%
X204259550Y-117182900D02*
X208724550Y-112717900D01*
X204259550Y-117182900D02*
X202099550Y-117182900D01*
X208724550Y-112717900D02*
X208724550Y-108432900D01*
%TO.N,index_bottom*%
X227724550Y-151295400D02*
X227724550Y-155580400D01*
X227724550Y-155580400D02*
X223259550Y-160045400D01*
X221099550Y-160045400D02*
X223259550Y-160045400D01*
%TO.N,index_home*%
X221099550Y-140995400D02*
X223259550Y-140995400D01*
X227724550Y-132245400D02*
X227724550Y-136530400D01*
X227724550Y-136530400D02*
X223259550Y-140995400D01*
%TO.N,index_top*%
X221099550Y-121945400D02*
X223259550Y-121945400D01*
X227724550Y-113195400D02*
X227724550Y-117480400D01*
X227724550Y-117480400D02*
X223259550Y-121945400D01*
%TO.N,inner_bottom*%
X246724550Y-154152900D02*
X246724550Y-158437900D01*
X240099550Y-162902900D02*
X242259550Y-162902900D01*
X246724550Y-158437900D02*
X242259550Y-162902900D01*
%TO.N,inner_home*%
X246724550Y-139387900D02*
X242259550Y-143852900D01*
X240099550Y-143852900D02*
X242259550Y-143852900D01*
X246724550Y-135102900D02*
X246724550Y-139387900D01*
%TO.N,inner_top*%
X246724550Y-116052900D02*
X246724550Y-120337900D01*
X240099550Y-124802900D02*
X242259550Y-124802900D01*
X246724550Y-120337900D02*
X242259550Y-124802900D01*
%TO.N,P113*%
X211829550Y-183857900D02*
X213989550Y-183857900D01*
%TO.N,P002*%
X215639550Y-160045400D02*
X217799550Y-160045400D01*
X158639550Y-160045400D02*
X160799550Y-160045400D01*
X177639550Y-160045400D02*
X179799550Y-160045400D01*
X196639550Y-155282900D02*
X198799550Y-155282900D01*
X139639550Y-164807900D02*
X141799550Y-164807900D01*
X234639550Y-162902900D02*
X236799550Y-162902900D01*
%TO.N,P029*%
X196639550Y-136232900D02*
X198799550Y-136232900D01*
X234639550Y-143852900D02*
X236799550Y-143852900D01*
X139639550Y-145757900D02*
X141799550Y-145757900D01*
X215639550Y-140995400D02*
X217799550Y-140995400D01*
%TO.N,P031*%
X215639550Y-121945400D02*
X217799550Y-121945400D01*
X158639550Y-121945400D02*
X160799550Y-121945400D01*
X234639550Y-124802900D02*
X236799550Y-124802900D01*
X177639550Y-121945400D02*
X179799550Y-121945400D01*
X196639550Y-117182900D02*
X198799550Y-117182900D01*
%TO.N,GND*%
X249628250Y-148460495D02*
X250333055Y-149165300D01*
X250333055Y-149165300D02*
X264867150Y-149165300D01*
X264867150Y-149165300D02*
X266069550Y-147962900D01*
X249628250Y-146624200D02*
X249628250Y-148460495D01*
X266069550Y-147962900D02*
X266069550Y-150502900D01*
X262146350Y-173800700D02*
X262146350Y-178400700D01*
X272299550Y-153952900D02*
X272299550Y-147752900D01*
X250829550Y-145422900D02*
X249628250Y-146624200D01*
%TO.N,RST*%
X267608250Y-146761600D02*
X252030850Y-146761600D01*
X252030850Y-146761600D02*
X250829550Y-147962900D01*
X268599550Y-147752900D02*
X267608250Y-146761600D01*
X268599550Y-153952900D02*
X268599550Y-147752900D01*
%TD*%
M02*
