%TF.GenerationSoftware,KiCad,Pcbnew,7.0.9*%
%TF.CreationDate,2024-08-18T04:48:21-07:00*%
%TF.ProjectId,left,6c656674-2e6b-4696-9361-645f70636258,v1.0.0*%
%TF.SameCoordinates,Original*%
%TF.FileFunction,Legend,Top*%
%TF.FilePolarity,Positive*%
%FSLAX46Y46*%
G04 Gerber Fmt 4.6, Leading zero omitted, Abs format (unit mm)*
G04 Created by KiCad (PCBNEW 7.0.9) date 2024-08-18 04:48:21*
%MOMM*%
%LPD*%
G01*
G04 APERTURE LIST*
%ADD10C,0.150000*%
%ADD11C,0.300000*%
%ADD12C,0.100000*%
%ADD13C,0.381000*%
%ADD14C,1.752600*%
G04 APERTURE END LIST*
D10*
X252112359Y-157685195D02*
X252188549Y-157685195D01*
X252188549Y-157685195D02*
X252264740Y-157723290D01*
X252264740Y-157723290D02*
X252302835Y-157761385D01*
X252302835Y-157761385D02*
X252340930Y-157837576D01*
X252340930Y-157837576D02*
X252379025Y-157989957D01*
X252379025Y-157989957D02*
X252379025Y-158180433D01*
X252379025Y-158180433D02*
X252340930Y-158332814D01*
X252340930Y-158332814D02*
X252302835Y-158409004D01*
X252302835Y-158409004D02*
X252264740Y-158447100D01*
X252264740Y-158447100D02*
X252188549Y-158485195D01*
X252188549Y-158485195D02*
X252112359Y-158485195D01*
X252112359Y-158485195D02*
X252036168Y-158447100D01*
X252036168Y-158447100D02*
X251998073Y-158409004D01*
X251998073Y-158409004D02*
X251959978Y-158332814D01*
X251959978Y-158332814D02*
X251921882Y-158180433D01*
X251921882Y-158180433D02*
X251921882Y-157989957D01*
X251921882Y-157989957D02*
X251959978Y-157837576D01*
X251959978Y-157837576D02*
X251998073Y-157761385D01*
X251998073Y-157761385D02*
X252036168Y-157723290D01*
X252036168Y-157723290D02*
X252112359Y-157685195D01*
X252874264Y-157685195D02*
X252950454Y-157685195D01*
X252950454Y-157685195D02*
X253026645Y-157723290D01*
X253026645Y-157723290D02*
X253064740Y-157761385D01*
X253064740Y-157761385D02*
X253102835Y-157837576D01*
X253102835Y-157837576D02*
X253140930Y-157989957D01*
X253140930Y-157989957D02*
X253140930Y-158180433D01*
X253140930Y-158180433D02*
X253102835Y-158332814D01*
X253102835Y-158332814D02*
X253064740Y-158409004D01*
X253064740Y-158409004D02*
X253026645Y-158447100D01*
X253026645Y-158447100D02*
X252950454Y-158485195D01*
X252950454Y-158485195D02*
X252874264Y-158485195D01*
X252874264Y-158485195D02*
X252798073Y-158447100D01*
X252798073Y-158447100D02*
X252759978Y-158409004D01*
X252759978Y-158409004D02*
X252721883Y-158332814D01*
X252721883Y-158332814D02*
X252683787Y-158180433D01*
X252683787Y-158180433D02*
X252683787Y-157989957D01*
X252683787Y-157989957D02*
X252721883Y-157837576D01*
X252721883Y-157837576D02*
X252759978Y-157761385D01*
X252759978Y-157761385D02*
X252798073Y-157723290D01*
X252798073Y-157723290D02*
X252874264Y-157685195D01*
X253445692Y-157761385D02*
X253483788Y-157723290D01*
X253483788Y-157723290D02*
X253559978Y-157685195D01*
X253559978Y-157685195D02*
X253750454Y-157685195D01*
X253750454Y-157685195D02*
X253826645Y-157723290D01*
X253826645Y-157723290D02*
X253864740Y-157761385D01*
X253864740Y-157761385D02*
X253902835Y-157837576D01*
X253902835Y-157837576D02*
X253902835Y-157913766D01*
X253902835Y-157913766D02*
X253864740Y-158028052D01*
X253864740Y-158028052D02*
X253407597Y-158485195D01*
X253407597Y-158485195D02*
X253902835Y-158485195D01*
X252385359Y-145023290D02*
X252309169Y-144985195D01*
X252309169Y-144985195D02*
X252194883Y-144985195D01*
X252194883Y-144985195D02*
X252080597Y-145023290D01*
X252080597Y-145023290D02*
X252004407Y-145099480D01*
X252004407Y-145099480D02*
X251966312Y-145175671D01*
X251966312Y-145175671D02*
X251928216Y-145328052D01*
X251928216Y-145328052D02*
X251928216Y-145442338D01*
X251928216Y-145442338D02*
X251966312Y-145594719D01*
X251966312Y-145594719D02*
X252004407Y-145670909D01*
X252004407Y-145670909D02*
X252080597Y-145747100D01*
X252080597Y-145747100D02*
X252194883Y-145785195D01*
X252194883Y-145785195D02*
X252271074Y-145785195D01*
X252271074Y-145785195D02*
X252385359Y-145747100D01*
X252385359Y-145747100D02*
X252423455Y-145709004D01*
X252423455Y-145709004D02*
X252423455Y-145442338D01*
X252423455Y-145442338D02*
X252271074Y-145442338D01*
X252766312Y-145785195D02*
X252766312Y-144985195D01*
X252766312Y-144985195D02*
X253223455Y-145785195D01*
X253223455Y-145785195D02*
X253223455Y-144985195D01*
X253604407Y-145785195D02*
X253604407Y-144985195D01*
X253604407Y-144985195D02*
X253794883Y-144985195D01*
X253794883Y-144985195D02*
X253909169Y-145023290D01*
X253909169Y-145023290D02*
X253985359Y-145099480D01*
X253985359Y-145099480D02*
X254023454Y-145175671D01*
X254023454Y-145175671D02*
X254061550Y-145328052D01*
X254061550Y-145328052D02*
X254061550Y-145442338D01*
X254061550Y-145442338D02*
X254023454Y-145594719D01*
X254023454Y-145594719D02*
X253985359Y-145670909D01*
X253985359Y-145670909D02*
X253909169Y-145747100D01*
X253909169Y-145747100D02*
X253794883Y-145785195D01*
X253794883Y-145785195D02*
X253604407Y-145785195D01*
X252112359Y-167845195D02*
X252188549Y-167845195D01*
X252188549Y-167845195D02*
X252264740Y-167883290D01*
X252264740Y-167883290D02*
X252302835Y-167921385D01*
X252302835Y-167921385D02*
X252340930Y-167997576D01*
X252340930Y-167997576D02*
X252379025Y-168149957D01*
X252379025Y-168149957D02*
X252379025Y-168340433D01*
X252379025Y-168340433D02*
X252340930Y-168492814D01*
X252340930Y-168492814D02*
X252302835Y-168569004D01*
X252302835Y-168569004D02*
X252264740Y-168607100D01*
X252264740Y-168607100D02*
X252188549Y-168645195D01*
X252188549Y-168645195D02*
X252112359Y-168645195D01*
X252112359Y-168645195D02*
X252036168Y-168607100D01*
X252036168Y-168607100D02*
X251998073Y-168569004D01*
X251998073Y-168569004D02*
X251959978Y-168492814D01*
X251959978Y-168492814D02*
X251921882Y-168340433D01*
X251921882Y-168340433D02*
X251921882Y-168149957D01*
X251921882Y-168149957D02*
X251959978Y-167997576D01*
X251959978Y-167997576D02*
X251998073Y-167921385D01*
X251998073Y-167921385D02*
X252036168Y-167883290D01*
X252036168Y-167883290D02*
X252112359Y-167845195D01*
X253140930Y-168645195D02*
X252683787Y-168645195D01*
X252912359Y-168645195D02*
X252912359Y-167845195D01*
X252912359Y-167845195D02*
X252836168Y-167959480D01*
X252836168Y-167959480D02*
X252759978Y-168035671D01*
X252759978Y-168035671D02*
X252683787Y-168073766D01*
X253636169Y-167845195D02*
X253712359Y-167845195D01*
X253712359Y-167845195D02*
X253788550Y-167883290D01*
X253788550Y-167883290D02*
X253826645Y-167921385D01*
X253826645Y-167921385D02*
X253864740Y-167997576D01*
X253864740Y-167997576D02*
X253902835Y-168149957D01*
X253902835Y-168149957D02*
X253902835Y-168340433D01*
X253902835Y-168340433D02*
X253864740Y-168492814D01*
X253864740Y-168492814D02*
X253826645Y-168569004D01*
X253826645Y-168569004D02*
X253788550Y-168607100D01*
X253788550Y-168607100D02*
X253712359Y-168645195D01*
X253712359Y-168645195D02*
X253636169Y-168645195D01*
X253636169Y-168645195D02*
X253559978Y-168607100D01*
X253559978Y-168607100D02*
X253521883Y-168569004D01*
X253521883Y-168569004D02*
X253483788Y-168492814D01*
X253483788Y-168492814D02*
X253445692Y-168340433D01*
X253445692Y-168340433D02*
X253445692Y-168149957D01*
X253445692Y-168149957D02*
X253483788Y-167997576D01*
X253483788Y-167997576D02*
X253521883Y-167921385D01*
X253521883Y-167921385D02*
X253559978Y-167883290D01*
X253559978Y-167883290D02*
X253636169Y-167845195D01*
D11*
X253159835Y-169993228D02*
X253159835Y-170993228D01*
X253159835Y-170136085D02*
X253231264Y-170064657D01*
X253231264Y-170064657D02*
X253374121Y-169993228D01*
X253374121Y-169993228D02*
X253588407Y-169993228D01*
X253588407Y-169993228D02*
X253731264Y-170064657D01*
X253731264Y-170064657D02*
X253802693Y-170207514D01*
X253802693Y-170207514D02*
X253802693Y-170993228D01*
X254516978Y-170993228D02*
X254516978Y-169993228D01*
X254516978Y-169493228D02*
X254445550Y-169564657D01*
X254445550Y-169564657D02*
X254516978Y-169636085D01*
X254516978Y-169636085D02*
X254588407Y-169564657D01*
X254588407Y-169564657D02*
X254516978Y-169493228D01*
X254516978Y-169493228D02*
X254516978Y-169636085D01*
X255874122Y-170921800D02*
X255731264Y-170993228D01*
X255731264Y-170993228D02*
X255445550Y-170993228D01*
X255445550Y-170993228D02*
X255302693Y-170921800D01*
X255302693Y-170921800D02*
X255231264Y-170850371D01*
X255231264Y-170850371D02*
X255159836Y-170707514D01*
X255159836Y-170707514D02*
X255159836Y-170278942D01*
X255159836Y-170278942D02*
X255231264Y-170136085D01*
X255231264Y-170136085D02*
X255302693Y-170064657D01*
X255302693Y-170064657D02*
X255445550Y-169993228D01*
X255445550Y-169993228D02*
X255731264Y-169993228D01*
X255731264Y-169993228D02*
X255874122Y-170064657D01*
X257088407Y-170921800D02*
X256945550Y-170993228D01*
X256945550Y-170993228D02*
X256659836Y-170993228D01*
X256659836Y-170993228D02*
X256516978Y-170921800D01*
X256516978Y-170921800D02*
X256445550Y-170778942D01*
X256445550Y-170778942D02*
X256445550Y-170207514D01*
X256445550Y-170207514D02*
X256516978Y-170064657D01*
X256516978Y-170064657D02*
X256659836Y-169993228D01*
X256659836Y-169993228D02*
X256945550Y-169993228D01*
X256945550Y-169993228D02*
X257088407Y-170064657D01*
X257088407Y-170064657D02*
X257159836Y-170207514D01*
X257159836Y-170207514D02*
X257159836Y-170350371D01*
X257159836Y-170350371D02*
X256445550Y-170493228D01*
X257802692Y-170850371D02*
X257874121Y-170921800D01*
X257874121Y-170921800D02*
X257802692Y-170993228D01*
X257802692Y-170993228D02*
X257731264Y-170921800D01*
X257731264Y-170921800D02*
X257802692Y-170850371D01*
X257802692Y-170850371D02*
X257802692Y-170993228D01*
X257802692Y-170421800D02*
X257731264Y-169564657D01*
X257731264Y-169564657D02*
X257802692Y-169493228D01*
X257802692Y-169493228D02*
X257874121Y-169564657D01*
X257874121Y-169564657D02*
X257802692Y-170421800D01*
X257802692Y-170421800D02*
X257802692Y-169493228D01*
X258516978Y-169993228D02*
X258516978Y-170993228D01*
X258516978Y-170136085D02*
X258588407Y-170064657D01*
X258588407Y-170064657D02*
X258731264Y-169993228D01*
X258731264Y-169993228D02*
X258945550Y-169993228D01*
X258945550Y-169993228D02*
X259088407Y-170064657D01*
X259088407Y-170064657D02*
X259159836Y-170207514D01*
X259159836Y-170207514D02*
X259159836Y-170993228D01*
X260516979Y-170993228D02*
X260516979Y-170207514D01*
X260516979Y-170207514D02*
X260445550Y-170064657D01*
X260445550Y-170064657D02*
X260302693Y-169993228D01*
X260302693Y-169993228D02*
X260016979Y-169993228D01*
X260016979Y-169993228D02*
X259874121Y-170064657D01*
X260516979Y-170921800D02*
X260374121Y-170993228D01*
X260374121Y-170993228D02*
X260016979Y-170993228D01*
X260016979Y-170993228D02*
X259874121Y-170921800D01*
X259874121Y-170921800D02*
X259802693Y-170778942D01*
X259802693Y-170778942D02*
X259802693Y-170636085D01*
X259802693Y-170636085D02*
X259874121Y-170493228D01*
X259874121Y-170493228D02*
X260016979Y-170421800D01*
X260016979Y-170421800D02*
X260374121Y-170421800D01*
X260374121Y-170421800D02*
X260516979Y-170350371D01*
X261231264Y-169993228D02*
X261231264Y-170993228D01*
X261231264Y-170136085D02*
X261302693Y-170064657D01*
X261302693Y-170064657D02*
X261445550Y-169993228D01*
X261445550Y-169993228D02*
X261659836Y-169993228D01*
X261659836Y-169993228D02*
X261802693Y-170064657D01*
X261802693Y-170064657D02*
X261874122Y-170207514D01*
X261874122Y-170207514D02*
X261874122Y-170993228D01*
X262802693Y-170993228D02*
X262659836Y-170921800D01*
X262659836Y-170921800D02*
X262588407Y-170850371D01*
X262588407Y-170850371D02*
X262516979Y-170707514D01*
X262516979Y-170707514D02*
X262516979Y-170278942D01*
X262516979Y-170278942D02*
X262588407Y-170136085D01*
X262588407Y-170136085D02*
X262659836Y-170064657D01*
X262659836Y-170064657D02*
X262802693Y-169993228D01*
X262802693Y-169993228D02*
X263016979Y-169993228D01*
X263016979Y-169993228D02*
X263159836Y-170064657D01*
X263159836Y-170064657D02*
X263231265Y-170136085D01*
X263231265Y-170136085D02*
X263302693Y-170278942D01*
X263302693Y-170278942D02*
X263302693Y-170707514D01*
X263302693Y-170707514D02*
X263231265Y-170850371D01*
X263231265Y-170850371D02*
X263159836Y-170921800D01*
X263159836Y-170921800D02*
X263016979Y-170993228D01*
X263016979Y-170993228D02*
X262802693Y-170993228D01*
D10*
X252112359Y-152605195D02*
X252188549Y-152605195D01*
X252188549Y-152605195D02*
X252264740Y-152643290D01*
X252264740Y-152643290D02*
X252302835Y-152681385D01*
X252302835Y-152681385D02*
X252340930Y-152757576D01*
X252340930Y-152757576D02*
X252379025Y-152909957D01*
X252379025Y-152909957D02*
X252379025Y-153100433D01*
X252379025Y-153100433D02*
X252340930Y-153252814D01*
X252340930Y-153252814D02*
X252302835Y-153329004D01*
X252302835Y-153329004D02*
X252264740Y-153367100D01*
X252264740Y-153367100D02*
X252188549Y-153405195D01*
X252188549Y-153405195D02*
X252112359Y-153405195D01*
X252112359Y-153405195D02*
X252036168Y-153367100D01*
X252036168Y-153367100D02*
X251998073Y-153329004D01*
X251998073Y-153329004D02*
X251959978Y-153252814D01*
X251959978Y-153252814D02*
X251921882Y-153100433D01*
X251921882Y-153100433D02*
X251921882Y-152909957D01*
X251921882Y-152909957D02*
X251959978Y-152757576D01*
X251959978Y-152757576D02*
X251998073Y-152681385D01*
X251998073Y-152681385D02*
X252036168Y-152643290D01*
X252036168Y-152643290D02*
X252112359Y-152605195D01*
X252645692Y-152605195D02*
X253140930Y-152605195D01*
X253140930Y-152605195D02*
X252874264Y-152909957D01*
X252874264Y-152909957D02*
X252988549Y-152909957D01*
X252988549Y-152909957D02*
X253064740Y-152948052D01*
X253064740Y-152948052D02*
X253102835Y-152986147D01*
X253102835Y-152986147D02*
X253140930Y-153062338D01*
X253140930Y-153062338D02*
X253140930Y-153252814D01*
X253140930Y-153252814D02*
X253102835Y-153329004D01*
X253102835Y-153329004D02*
X253064740Y-153367100D01*
X253064740Y-153367100D02*
X252988549Y-153405195D01*
X252988549Y-153405195D02*
X252759978Y-153405195D01*
X252759978Y-153405195D02*
X252683787Y-153367100D01*
X252683787Y-153367100D02*
X252645692Y-153329004D01*
X253902835Y-153405195D02*
X253445692Y-153405195D01*
X253674264Y-153405195D02*
X253674264Y-152605195D01*
X253674264Y-152605195D02*
X253598073Y-152719480D01*
X253598073Y-152719480D02*
X253521883Y-152795671D01*
X253521883Y-152795671D02*
X253445692Y-152833766D01*
X263186740Y-157715195D02*
X263262930Y-157715195D01*
X263262930Y-157715195D02*
X263339121Y-157753290D01*
X263339121Y-157753290D02*
X263377216Y-157791385D01*
X263377216Y-157791385D02*
X263415311Y-157867576D01*
X263415311Y-157867576D02*
X263453406Y-158019957D01*
X263453406Y-158019957D02*
X263453406Y-158210433D01*
X263453406Y-158210433D02*
X263415311Y-158362814D01*
X263415311Y-158362814D02*
X263377216Y-158439004D01*
X263377216Y-158439004D02*
X263339121Y-158477100D01*
X263339121Y-158477100D02*
X263262930Y-158515195D01*
X263262930Y-158515195D02*
X263186740Y-158515195D01*
X263186740Y-158515195D02*
X263110549Y-158477100D01*
X263110549Y-158477100D02*
X263072454Y-158439004D01*
X263072454Y-158439004D02*
X263034359Y-158362814D01*
X263034359Y-158362814D02*
X262996263Y-158210433D01*
X262996263Y-158210433D02*
X262996263Y-158019957D01*
X262996263Y-158019957D02*
X263034359Y-157867576D01*
X263034359Y-157867576D02*
X263072454Y-157791385D01*
X263072454Y-157791385D02*
X263110549Y-157753290D01*
X263110549Y-157753290D02*
X263186740Y-157715195D01*
X263758168Y-157791385D02*
X263796264Y-157753290D01*
X263796264Y-157753290D02*
X263872454Y-157715195D01*
X263872454Y-157715195D02*
X264062930Y-157715195D01*
X264062930Y-157715195D02*
X264139121Y-157753290D01*
X264139121Y-157753290D02*
X264177216Y-157791385D01*
X264177216Y-157791385D02*
X264215311Y-157867576D01*
X264215311Y-157867576D02*
X264215311Y-157943766D01*
X264215311Y-157943766D02*
X264177216Y-158058052D01*
X264177216Y-158058052D02*
X263720073Y-158515195D01*
X263720073Y-158515195D02*
X264215311Y-158515195D01*
X264520073Y-157791385D02*
X264558169Y-157753290D01*
X264558169Y-157753290D02*
X264634359Y-157715195D01*
X264634359Y-157715195D02*
X264824835Y-157715195D01*
X264824835Y-157715195D02*
X264901026Y-157753290D01*
X264901026Y-157753290D02*
X264939121Y-157791385D01*
X264939121Y-157791385D02*
X264977216Y-157867576D01*
X264977216Y-157867576D02*
X264977216Y-157943766D01*
X264977216Y-157943766D02*
X264939121Y-158058052D01*
X264939121Y-158058052D02*
X264481978Y-158515195D01*
X264481978Y-158515195D02*
X264977216Y-158515195D01*
X251845692Y-150065195D02*
X252112359Y-150865195D01*
X252112359Y-150865195D02*
X252379025Y-150065195D01*
X253102835Y-150789004D02*
X253064739Y-150827100D01*
X253064739Y-150827100D02*
X252950454Y-150865195D01*
X252950454Y-150865195D02*
X252874263Y-150865195D01*
X252874263Y-150865195D02*
X252759977Y-150827100D01*
X252759977Y-150827100D02*
X252683787Y-150750909D01*
X252683787Y-150750909D02*
X252645692Y-150674719D01*
X252645692Y-150674719D02*
X252607596Y-150522338D01*
X252607596Y-150522338D02*
X252607596Y-150408052D01*
X252607596Y-150408052D02*
X252645692Y-150255671D01*
X252645692Y-150255671D02*
X252683787Y-150179480D01*
X252683787Y-150179480D02*
X252759977Y-150103290D01*
X252759977Y-150103290D02*
X252874263Y-150065195D01*
X252874263Y-150065195D02*
X252950454Y-150065195D01*
X252950454Y-150065195D02*
X253064739Y-150103290D01*
X253064739Y-150103290D02*
X253102835Y-150141385D01*
X253902835Y-150789004D02*
X253864739Y-150827100D01*
X253864739Y-150827100D02*
X253750454Y-150865195D01*
X253750454Y-150865195D02*
X253674263Y-150865195D01*
X253674263Y-150865195D02*
X253559977Y-150827100D01*
X253559977Y-150827100D02*
X253483787Y-150750909D01*
X253483787Y-150750909D02*
X253445692Y-150674719D01*
X253445692Y-150674719D02*
X253407596Y-150522338D01*
X253407596Y-150522338D02*
X253407596Y-150408052D01*
X253407596Y-150408052D02*
X253445692Y-150255671D01*
X253445692Y-150255671D02*
X253483787Y-150179480D01*
X253483787Y-150179480D02*
X253559977Y-150103290D01*
X253559977Y-150103290D02*
X253674263Y-150065195D01*
X253674263Y-150065195D02*
X253750454Y-150065195D01*
X253750454Y-150065195D02*
X253864739Y-150103290D01*
X253864739Y-150103290D02*
X253902835Y-150141385D01*
X263186740Y-152615195D02*
X263262930Y-152615195D01*
X263262930Y-152615195D02*
X263339121Y-152653290D01*
X263339121Y-152653290D02*
X263377216Y-152691385D01*
X263377216Y-152691385D02*
X263415311Y-152767576D01*
X263415311Y-152767576D02*
X263453406Y-152919957D01*
X263453406Y-152919957D02*
X263453406Y-153110433D01*
X263453406Y-153110433D02*
X263415311Y-153262814D01*
X263415311Y-153262814D02*
X263377216Y-153339004D01*
X263377216Y-153339004D02*
X263339121Y-153377100D01*
X263339121Y-153377100D02*
X263262930Y-153415195D01*
X263262930Y-153415195D02*
X263186740Y-153415195D01*
X263186740Y-153415195D02*
X263110549Y-153377100D01*
X263110549Y-153377100D02*
X263072454Y-153339004D01*
X263072454Y-153339004D02*
X263034359Y-153262814D01*
X263034359Y-153262814D02*
X262996263Y-153110433D01*
X262996263Y-153110433D02*
X262996263Y-152919957D01*
X262996263Y-152919957D02*
X263034359Y-152767576D01*
X263034359Y-152767576D02*
X263072454Y-152691385D01*
X263072454Y-152691385D02*
X263110549Y-152653290D01*
X263110549Y-152653290D02*
X263186740Y-152615195D01*
X264215311Y-153415195D02*
X263758168Y-153415195D01*
X263986740Y-153415195D02*
X263986740Y-152615195D01*
X263986740Y-152615195D02*
X263910549Y-152729480D01*
X263910549Y-152729480D02*
X263834359Y-152805671D01*
X263834359Y-152805671D02*
X263758168Y-152843766D01*
X264481978Y-152615195D02*
X265015312Y-152615195D01*
X265015312Y-152615195D02*
X264672454Y-153415195D01*
X263453406Y-163565195D02*
X262996263Y-163565195D01*
X263224835Y-163565195D02*
X263224835Y-162765195D01*
X263224835Y-162765195D02*
X263148644Y-162879480D01*
X263148644Y-162879480D02*
X263072454Y-162955671D01*
X263072454Y-162955671D02*
X262996263Y-162993766D01*
X263948645Y-162765195D02*
X264024835Y-162765195D01*
X264024835Y-162765195D02*
X264101026Y-162803290D01*
X264101026Y-162803290D02*
X264139121Y-162841385D01*
X264139121Y-162841385D02*
X264177216Y-162917576D01*
X264177216Y-162917576D02*
X264215311Y-163069957D01*
X264215311Y-163069957D02*
X264215311Y-163260433D01*
X264215311Y-163260433D02*
X264177216Y-163412814D01*
X264177216Y-163412814D02*
X264139121Y-163489004D01*
X264139121Y-163489004D02*
X264101026Y-163527100D01*
X264101026Y-163527100D02*
X264024835Y-163565195D01*
X264024835Y-163565195D02*
X263948645Y-163565195D01*
X263948645Y-163565195D02*
X263872454Y-163527100D01*
X263872454Y-163527100D02*
X263834359Y-163489004D01*
X263834359Y-163489004D02*
X263796264Y-163412814D01*
X263796264Y-163412814D02*
X263758168Y-163260433D01*
X263758168Y-163260433D02*
X263758168Y-163069957D01*
X263758168Y-163069957D02*
X263796264Y-162917576D01*
X263796264Y-162917576D02*
X263834359Y-162841385D01*
X263834359Y-162841385D02*
X263872454Y-162803290D01*
X263872454Y-162803290D02*
X263948645Y-162765195D01*
X264710550Y-162765195D02*
X264786740Y-162765195D01*
X264786740Y-162765195D02*
X264862931Y-162803290D01*
X264862931Y-162803290D02*
X264901026Y-162841385D01*
X264901026Y-162841385D02*
X264939121Y-162917576D01*
X264939121Y-162917576D02*
X264977216Y-163069957D01*
X264977216Y-163069957D02*
X264977216Y-163260433D01*
X264977216Y-163260433D02*
X264939121Y-163412814D01*
X264939121Y-163412814D02*
X264901026Y-163489004D01*
X264901026Y-163489004D02*
X264862931Y-163527100D01*
X264862931Y-163527100D02*
X264786740Y-163565195D01*
X264786740Y-163565195D02*
X264710550Y-163565195D01*
X264710550Y-163565195D02*
X264634359Y-163527100D01*
X264634359Y-163527100D02*
X264596264Y-163489004D01*
X264596264Y-163489004D02*
X264558169Y-163412814D01*
X264558169Y-163412814D02*
X264520073Y-163260433D01*
X264520073Y-163260433D02*
X264520073Y-163069957D01*
X264520073Y-163069957D02*
X264558169Y-162917576D01*
X264558169Y-162917576D02*
X264596264Y-162841385D01*
X264596264Y-162841385D02*
X264634359Y-162803290D01*
X264634359Y-162803290D02*
X264710550Y-162765195D01*
X252379025Y-163565195D02*
X251921882Y-163565195D01*
X252150454Y-163565195D02*
X252150454Y-162765195D01*
X252150454Y-162765195D02*
X252074263Y-162879480D01*
X252074263Y-162879480D02*
X251998073Y-162955671D01*
X251998073Y-162955671D02*
X251921882Y-162993766D01*
X253140930Y-163565195D02*
X252683787Y-163565195D01*
X252912359Y-163565195D02*
X252912359Y-162765195D01*
X252912359Y-162765195D02*
X252836168Y-162879480D01*
X252836168Y-162879480D02*
X252759978Y-162955671D01*
X252759978Y-162955671D02*
X252683787Y-162993766D01*
X253407597Y-162765195D02*
X253902835Y-162765195D01*
X253902835Y-162765195D02*
X253636169Y-163069957D01*
X253636169Y-163069957D02*
X253750454Y-163069957D01*
X253750454Y-163069957D02*
X253826645Y-163108052D01*
X253826645Y-163108052D02*
X253864740Y-163146147D01*
X253864740Y-163146147D02*
X253902835Y-163222338D01*
X253902835Y-163222338D02*
X253902835Y-163412814D01*
X253902835Y-163412814D02*
X253864740Y-163489004D01*
X253864740Y-163489004D02*
X253826645Y-163527100D01*
X253826645Y-163527100D02*
X253750454Y-163565195D01*
X253750454Y-163565195D02*
X253521883Y-163565195D01*
X253521883Y-163565195D02*
X253445692Y-163527100D01*
X253445692Y-163527100D02*
X253407597Y-163489004D01*
X252379025Y-166105195D02*
X251921882Y-166105195D01*
X252150454Y-166105195D02*
X252150454Y-165305195D01*
X252150454Y-165305195D02*
X252074263Y-165419480D01*
X252074263Y-165419480D02*
X251998073Y-165495671D01*
X251998073Y-165495671D02*
X251921882Y-165533766D01*
X253140930Y-166105195D02*
X252683787Y-166105195D01*
X252912359Y-166105195D02*
X252912359Y-165305195D01*
X252912359Y-165305195D02*
X252836168Y-165419480D01*
X252836168Y-165419480D02*
X252759978Y-165495671D01*
X252759978Y-165495671D02*
X252683787Y-165533766D01*
X253902835Y-166105195D02*
X253445692Y-166105195D01*
X253674264Y-166105195D02*
X253674264Y-165305195D01*
X253674264Y-165305195D02*
X253598073Y-165419480D01*
X253598073Y-165419480D02*
X253521883Y-165495671D01*
X253521883Y-165495671D02*
X253445692Y-165533766D01*
X263186740Y-155215195D02*
X263262930Y-155215195D01*
X263262930Y-155215195D02*
X263339121Y-155253290D01*
X263339121Y-155253290D02*
X263377216Y-155291385D01*
X263377216Y-155291385D02*
X263415311Y-155367576D01*
X263415311Y-155367576D02*
X263453406Y-155519957D01*
X263453406Y-155519957D02*
X263453406Y-155710433D01*
X263453406Y-155710433D02*
X263415311Y-155862814D01*
X263415311Y-155862814D02*
X263377216Y-155939004D01*
X263377216Y-155939004D02*
X263339121Y-155977100D01*
X263339121Y-155977100D02*
X263262930Y-156015195D01*
X263262930Y-156015195D02*
X263186740Y-156015195D01*
X263186740Y-156015195D02*
X263110549Y-155977100D01*
X263110549Y-155977100D02*
X263072454Y-155939004D01*
X263072454Y-155939004D02*
X263034359Y-155862814D01*
X263034359Y-155862814D02*
X262996263Y-155710433D01*
X262996263Y-155710433D02*
X262996263Y-155519957D01*
X262996263Y-155519957D02*
X263034359Y-155367576D01*
X263034359Y-155367576D02*
X263072454Y-155291385D01*
X263072454Y-155291385D02*
X263110549Y-155253290D01*
X263110549Y-155253290D02*
X263186740Y-155215195D01*
X263758168Y-155291385D02*
X263796264Y-155253290D01*
X263796264Y-155253290D02*
X263872454Y-155215195D01*
X263872454Y-155215195D02*
X264062930Y-155215195D01*
X264062930Y-155215195D02*
X264139121Y-155253290D01*
X264139121Y-155253290D02*
X264177216Y-155291385D01*
X264177216Y-155291385D02*
X264215311Y-155367576D01*
X264215311Y-155367576D02*
X264215311Y-155443766D01*
X264215311Y-155443766D02*
X264177216Y-155558052D01*
X264177216Y-155558052D02*
X263720073Y-156015195D01*
X263720073Y-156015195D02*
X264215311Y-156015195D01*
X264710550Y-155215195D02*
X264786740Y-155215195D01*
X264786740Y-155215195D02*
X264862931Y-155253290D01*
X264862931Y-155253290D02*
X264901026Y-155291385D01*
X264901026Y-155291385D02*
X264939121Y-155367576D01*
X264939121Y-155367576D02*
X264977216Y-155519957D01*
X264977216Y-155519957D02*
X264977216Y-155710433D01*
X264977216Y-155710433D02*
X264939121Y-155862814D01*
X264939121Y-155862814D02*
X264901026Y-155939004D01*
X264901026Y-155939004D02*
X264862931Y-155977100D01*
X264862931Y-155977100D02*
X264786740Y-156015195D01*
X264786740Y-156015195D02*
X264710550Y-156015195D01*
X264710550Y-156015195D02*
X264634359Y-155977100D01*
X264634359Y-155977100D02*
X264596264Y-155939004D01*
X264596264Y-155939004D02*
X264558169Y-155862814D01*
X264558169Y-155862814D02*
X264520073Y-155710433D01*
X264520073Y-155710433D02*
X264520073Y-155519957D01*
X264520073Y-155519957D02*
X264558169Y-155367576D01*
X264558169Y-155367576D02*
X264596264Y-155291385D01*
X264596264Y-155291385D02*
X264634359Y-155253290D01*
X264634359Y-155253290D02*
X264710550Y-155215195D01*
X263301026Y-147563290D02*
X263224836Y-147525195D01*
X263224836Y-147525195D02*
X263110550Y-147525195D01*
X263110550Y-147525195D02*
X262996264Y-147563290D01*
X262996264Y-147563290D02*
X262920074Y-147639480D01*
X262920074Y-147639480D02*
X262881979Y-147715671D01*
X262881979Y-147715671D02*
X262843883Y-147868052D01*
X262843883Y-147868052D02*
X262843883Y-147982338D01*
X262843883Y-147982338D02*
X262881979Y-148134719D01*
X262881979Y-148134719D02*
X262920074Y-148210909D01*
X262920074Y-148210909D02*
X262996264Y-148287100D01*
X262996264Y-148287100D02*
X263110550Y-148325195D01*
X263110550Y-148325195D02*
X263186741Y-148325195D01*
X263186741Y-148325195D02*
X263301026Y-148287100D01*
X263301026Y-148287100D02*
X263339122Y-148249004D01*
X263339122Y-148249004D02*
X263339122Y-147982338D01*
X263339122Y-147982338D02*
X263186741Y-147982338D01*
X263681979Y-148325195D02*
X263681979Y-147525195D01*
X263681979Y-147525195D02*
X264139122Y-148325195D01*
X264139122Y-148325195D02*
X264139122Y-147525195D01*
X264520074Y-148325195D02*
X264520074Y-147525195D01*
X264520074Y-147525195D02*
X264710550Y-147525195D01*
X264710550Y-147525195D02*
X264824836Y-147563290D01*
X264824836Y-147563290D02*
X264901026Y-147639480D01*
X264901026Y-147639480D02*
X264939121Y-147715671D01*
X264939121Y-147715671D02*
X264977217Y-147868052D01*
X264977217Y-147868052D02*
X264977217Y-147982338D01*
X264977217Y-147982338D02*
X264939121Y-148134719D01*
X264939121Y-148134719D02*
X264901026Y-148210909D01*
X264901026Y-148210909D02*
X264824836Y-148287100D01*
X264824836Y-148287100D02*
X264710550Y-148325195D01*
X264710550Y-148325195D02*
X264520074Y-148325195D01*
X263186740Y-144915195D02*
X263262930Y-144915195D01*
X263262930Y-144915195D02*
X263339121Y-144953290D01*
X263339121Y-144953290D02*
X263377216Y-144991385D01*
X263377216Y-144991385D02*
X263415311Y-145067576D01*
X263415311Y-145067576D02*
X263453406Y-145219957D01*
X263453406Y-145219957D02*
X263453406Y-145410433D01*
X263453406Y-145410433D02*
X263415311Y-145562814D01*
X263415311Y-145562814D02*
X263377216Y-145639004D01*
X263377216Y-145639004D02*
X263339121Y-145677100D01*
X263339121Y-145677100D02*
X263262930Y-145715195D01*
X263262930Y-145715195D02*
X263186740Y-145715195D01*
X263186740Y-145715195D02*
X263110549Y-145677100D01*
X263110549Y-145677100D02*
X263072454Y-145639004D01*
X263072454Y-145639004D02*
X263034359Y-145562814D01*
X263034359Y-145562814D02*
X262996263Y-145410433D01*
X262996263Y-145410433D02*
X262996263Y-145219957D01*
X262996263Y-145219957D02*
X263034359Y-145067576D01*
X263034359Y-145067576D02*
X263072454Y-144991385D01*
X263072454Y-144991385D02*
X263110549Y-144953290D01*
X263110549Y-144953290D02*
X263186740Y-144915195D01*
X263948645Y-144915195D02*
X264024835Y-144915195D01*
X264024835Y-144915195D02*
X264101026Y-144953290D01*
X264101026Y-144953290D02*
X264139121Y-144991385D01*
X264139121Y-144991385D02*
X264177216Y-145067576D01*
X264177216Y-145067576D02*
X264215311Y-145219957D01*
X264215311Y-145219957D02*
X264215311Y-145410433D01*
X264215311Y-145410433D02*
X264177216Y-145562814D01*
X264177216Y-145562814D02*
X264139121Y-145639004D01*
X264139121Y-145639004D02*
X264101026Y-145677100D01*
X264101026Y-145677100D02*
X264024835Y-145715195D01*
X264024835Y-145715195D02*
X263948645Y-145715195D01*
X263948645Y-145715195D02*
X263872454Y-145677100D01*
X263872454Y-145677100D02*
X263834359Y-145639004D01*
X263834359Y-145639004D02*
X263796264Y-145562814D01*
X263796264Y-145562814D02*
X263758168Y-145410433D01*
X263758168Y-145410433D02*
X263758168Y-145219957D01*
X263758168Y-145219957D02*
X263796264Y-145067576D01*
X263796264Y-145067576D02*
X263834359Y-144991385D01*
X263834359Y-144991385D02*
X263872454Y-144953290D01*
X263872454Y-144953290D02*
X263948645Y-144915195D01*
X264672454Y-145258052D02*
X264596264Y-145219957D01*
X264596264Y-145219957D02*
X264558169Y-145181861D01*
X264558169Y-145181861D02*
X264520073Y-145105671D01*
X264520073Y-145105671D02*
X264520073Y-145067576D01*
X264520073Y-145067576D02*
X264558169Y-144991385D01*
X264558169Y-144991385D02*
X264596264Y-144953290D01*
X264596264Y-144953290D02*
X264672454Y-144915195D01*
X264672454Y-144915195D02*
X264824835Y-144915195D01*
X264824835Y-144915195D02*
X264901026Y-144953290D01*
X264901026Y-144953290D02*
X264939121Y-144991385D01*
X264939121Y-144991385D02*
X264977216Y-145067576D01*
X264977216Y-145067576D02*
X264977216Y-145105671D01*
X264977216Y-145105671D02*
X264939121Y-145181861D01*
X264939121Y-145181861D02*
X264901026Y-145219957D01*
X264901026Y-145219957D02*
X264824835Y-145258052D01*
X264824835Y-145258052D02*
X264672454Y-145258052D01*
X264672454Y-145258052D02*
X264596264Y-145296147D01*
X264596264Y-145296147D02*
X264558169Y-145334242D01*
X264558169Y-145334242D02*
X264520073Y-145410433D01*
X264520073Y-145410433D02*
X264520073Y-145562814D01*
X264520073Y-145562814D02*
X264558169Y-145639004D01*
X264558169Y-145639004D02*
X264596264Y-145677100D01*
X264596264Y-145677100D02*
X264672454Y-145715195D01*
X264672454Y-145715195D02*
X264824835Y-145715195D01*
X264824835Y-145715195D02*
X264901026Y-145677100D01*
X264901026Y-145677100D02*
X264939121Y-145639004D01*
X264939121Y-145639004D02*
X264977216Y-145562814D01*
X264977216Y-145562814D02*
X264977216Y-145410433D01*
X264977216Y-145410433D02*
X264939121Y-145334242D01*
X264939121Y-145334242D02*
X264901026Y-145296147D01*
X264901026Y-145296147D02*
X264824835Y-145258052D01*
X263186740Y-142445195D02*
X263262930Y-142445195D01*
X263262930Y-142445195D02*
X263339121Y-142483290D01*
X263339121Y-142483290D02*
X263377216Y-142521385D01*
X263377216Y-142521385D02*
X263415311Y-142597576D01*
X263415311Y-142597576D02*
X263453406Y-142749957D01*
X263453406Y-142749957D02*
X263453406Y-142940433D01*
X263453406Y-142940433D02*
X263415311Y-143092814D01*
X263415311Y-143092814D02*
X263377216Y-143169004D01*
X263377216Y-143169004D02*
X263339121Y-143207100D01*
X263339121Y-143207100D02*
X263262930Y-143245195D01*
X263262930Y-143245195D02*
X263186740Y-143245195D01*
X263186740Y-143245195D02*
X263110549Y-143207100D01*
X263110549Y-143207100D02*
X263072454Y-143169004D01*
X263072454Y-143169004D02*
X263034359Y-143092814D01*
X263034359Y-143092814D02*
X262996263Y-142940433D01*
X262996263Y-142940433D02*
X262996263Y-142749957D01*
X262996263Y-142749957D02*
X263034359Y-142597576D01*
X263034359Y-142597576D02*
X263072454Y-142521385D01*
X263072454Y-142521385D02*
X263110549Y-142483290D01*
X263110549Y-142483290D02*
X263186740Y-142445195D01*
X263948645Y-142445195D02*
X264024835Y-142445195D01*
X264024835Y-142445195D02*
X264101026Y-142483290D01*
X264101026Y-142483290D02*
X264139121Y-142521385D01*
X264139121Y-142521385D02*
X264177216Y-142597576D01*
X264177216Y-142597576D02*
X264215311Y-142749957D01*
X264215311Y-142749957D02*
X264215311Y-142940433D01*
X264215311Y-142940433D02*
X264177216Y-143092814D01*
X264177216Y-143092814D02*
X264139121Y-143169004D01*
X264139121Y-143169004D02*
X264101026Y-143207100D01*
X264101026Y-143207100D02*
X264024835Y-143245195D01*
X264024835Y-143245195D02*
X263948645Y-143245195D01*
X263948645Y-143245195D02*
X263872454Y-143207100D01*
X263872454Y-143207100D02*
X263834359Y-143169004D01*
X263834359Y-143169004D02*
X263796264Y-143092814D01*
X263796264Y-143092814D02*
X263758168Y-142940433D01*
X263758168Y-142940433D02*
X263758168Y-142749957D01*
X263758168Y-142749957D02*
X263796264Y-142597576D01*
X263796264Y-142597576D02*
X263834359Y-142521385D01*
X263834359Y-142521385D02*
X263872454Y-142483290D01*
X263872454Y-142483290D02*
X263948645Y-142445195D01*
X264901026Y-142445195D02*
X264748645Y-142445195D01*
X264748645Y-142445195D02*
X264672454Y-142483290D01*
X264672454Y-142483290D02*
X264634359Y-142521385D01*
X264634359Y-142521385D02*
X264558169Y-142635671D01*
X264558169Y-142635671D02*
X264520073Y-142788052D01*
X264520073Y-142788052D02*
X264520073Y-143092814D01*
X264520073Y-143092814D02*
X264558169Y-143169004D01*
X264558169Y-143169004D02*
X264596264Y-143207100D01*
X264596264Y-143207100D02*
X264672454Y-143245195D01*
X264672454Y-143245195D02*
X264824835Y-143245195D01*
X264824835Y-143245195D02*
X264901026Y-143207100D01*
X264901026Y-143207100D02*
X264939121Y-143169004D01*
X264939121Y-143169004D02*
X264977216Y-143092814D01*
X264977216Y-143092814D02*
X264977216Y-142902338D01*
X264977216Y-142902338D02*
X264939121Y-142826147D01*
X264939121Y-142826147D02*
X264901026Y-142788052D01*
X264901026Y-142788052D02*
X264824835Y-142749957D01*
X264824835Y-142749957D02*
X264672454Y-142749957D01*
X264672454Y-142749957D02*
X264596264Y-142788052D01*
X264596264Y-142788052D02*
X264558169Y-142826147D01*
X264558169Y-142826147D02*
X264520073Y-142902338D01*
X252379025Y-161025195D02*
X251921882Y-161025195D01*
X252150454Y-161025195D02*
X252150454Y-160225195D01*
X252150454Y-160225195D02*
X252074263Y-160339480D01*
X252074263Y-160339480D02*
X251998073Y-160415671D01*
X251998073Y-160415671D02*
X251921882Y-160453766D01*
X253140930Y-161025195D02*
X252683787Y-161025195D01*
X252912359Y-161025195D02*
X252912359Y-160225195D01*
X252912359Y-160225195D02*
X252836168Y-160339480D01*
X252836168Y-160339480D02*
X252759978Y-160415671D01*
X252759978Y-160415671D02*
X252683787Y-160453766D01*
X253864740Y-160225195D02*
X253483788Y-160225195D01*
X253483788Y-160225195D02*
X253445692Y-160606147D01*
X253445692Y-160606147D02*
X253483788Y-160568052D01*
X253483788Y-160568052D02*
X253559978Y-160529957D01*
X253559978Y-160529957D02*
X253750454Y-160529957D01*
X253750454Y-160529957D02*
X253826645Y-160568052D01*
X253826645Y-160568052D02*
X253864740Y-160606147D01*
X253864740Y-160606147D02*
X253902835Y-160682338D01*
X253902835Y-160682338D02*
X253902835Y-160872814D01*
X253902835Y-160872814D02*
X253864740Y-160949004D01*
X253864740Y-160949004D02*
X253826645Y-160987100D01*
X253826645Y-160987100D02*
X253750454Y-161025195D01*
X253750454Y-161025195D02*
X253559978Y-161025195D01*
X253559978Y-161025195D02*
X253483788Y-160987100D01*
X253483788Y-160987100D02*
X253445692Y-160949004D01*
X252112359Y-155145195D02*
X252188549Y-155145195D01*
X252188549Y-155145195D02*
X252264740Y-155183290D01*
X252264740Y-155183290D02*
X252302835Y-155221385D01*
X252302835Y-155221385D02*
X252340930Y-155297576D01*
X252340930Y-155297576D02*
X252379025Y-155449957D01*
X252379025Y-155449957D02*
X252379025Y-155640433D01*
X252379025Y-155640433D02*
X252340930Y-155792814D01*
X252340930Y-155792814D02*
X252302835Y-155869004D01*
X252302835Y-155869004D02*
X252264740Y-155907100D01*
X252264740Y-155907100D02*
X252188549Y-155945195D01*
X252188549Y-155945195D02*
X252112359Y-155945195D01*
X252112359Y-155945195D02*
X252036168Y-155907100D01*
X252036168Y-155907100D02*
X251998073Y-155869004D01*
X251998073Y-155869004D02*
X251959978Y-155792814D01*
X251959978Y-155792814D02*
X251921882Y-155640433D01*
X251921882Y-155640433D02*
X251921882Y-155449957D01*
X251921882Y-155449957D02*
X251959978Y-155297576D01*
X251959978Y-155297576D02*
X251998073Y-155221385D01*
X251998073Y-155221385D02*
X252036168Y-155183290D01*
X252036168Y-155183290D02*
X252112359Y-155145195D01*
X252683787Y-155221385D02*
X252721883Y-155183290D01*
X252721883Y-155183290D02*
X252798073Y-155145195D01*
X252798073Y-155145195D02*
X252988549Y-155145195D01*
X252988549Y-155145195D02*
X253064740Y-155183290D01*
X253064740Y-155183290D02*
X253102835Y-155221385D01*
X253102835Y-155221385D02*
X253140930Y-155297576D01*
X253140930Y-155297576D02*
X253140930Y-155373766D01*
X253140930Y-155373766D02*
X253102835Y-155488052D01*
X253102835Y-155488052D02*
X252645692Y-155945195D01*
X252645692Y-155945195D02*
X253140930Y-155945195D01*
X253521883Y-155945195D02*
X253674264Y-155945195D01*
X253674264Y-155945195D02*
X253750454Y-155907100D01*
X253750454Y-155907100D02*
X253788550Y-155869004D01*
X253788550Y-155869004D02*
X253864740Y-155754719D01*
X253864740Y-155754719D02*
X253902835Y-155602338D01*
X253902835Y-155602338D02*
X253902835Y-155297576D01*
X253902835Y-155297576D02*
X253864740Y-155221385D01*
X253864740Y-155221385D02*
X253826645Y-155183290D01*
X253826645Y-155183290D02*
X253750454Y-155145195D01*
X253750454Y-155145195D02*
X253598073Y-155145195D01*
X253598073Y-155145195D02*
X253521883Y-155183290D01*
X253521883Y-155183290D02*
X253483788Y-155221385D01*
X253483788Y-155221385D02*
X253445692Y-155297576D01*
X253445692Y-155297576D02*
X253445692Y-155488052D01*
X253445692Y-155488052D02*
X253483788Y-155564242D01*
X253483788Y-155564242D02*
X253521883Y-155602338D01*
X253521883Y-155602338D02*
X253598073Y-155640433D01*
X253598073Y-155640433D02*
X253750454Y-155640433D01*
X253750454Y-155640433D02*
X253826645Y-155602338D01*
X253826645Y-155602338D02*
X253864740Y-155564242D01*
X253864740Y-155564242D02*
X253902835Y-155488052D01*
X263186740Y-160225195D02*
X263262930Y-160225195D01*
X263262930Y-160225195D02*
X263339121Y-160263290D01*
X263339121Y-160263290D02*
X263377216Y-160301385D01*
X263377216Y-160301385D02*
X263415311Y-160377576D01*
X263415311Y-160377576D02*
X263453406Y-160529957D01*
X263453406Y-160529957D02*
X263453406Y-160720433D01*
X263453406Y-160720433D02*
X263415311Y-160872814D01*
X263415311Y-160872814D02*
X263377216Y-160949004D01*
X263377216Y-160949004D02*
X263339121Y-160987100D01*
X263339121Y-160987100D02*
X263262930Y-161025195D01*
X263262930Y-161025195D02*
X263186740Y-161025195D01*
X263186740Y-161025195D02*
X263110549Y-160987100D01*
X263110549Y-160987100D02*
X263072454Y-160949004D01*
X263072454Y-160949004D02*
X263034359Y-160872814D01*
X263034359Y-160872814D02*
X262996263Y-160720433D01*
X262996263Y-160720433D02*
X262996263Y-160529957D01*
X262996263Y-160529957D02*
X263034359Y-160377576D01*
X263034359Y-160377576D02*
X263072454Y-160301385D01*
X263072454Y-160301385D02*
X263110549Y-160263290D01*
X263110549Y-160263290D02*
X263186740Y-160225195D01*
X263758168Y-160301385D02*
X263796264Y-160263290D01*
X263796264Y-160263290D02*
X263872454Y-160225195D01*
X263872454Y-160225195D02*
X264062930Y-160225195D01*
X264062930Y-160225195D02*
X264139121Y-160263290D01*
X264139121Y-160263290D02*
X264177216Y-160301385D01*
X264177216Y-160301385D02*
X264215311Y-160377576D01*
X264215311Y-160377576D02*
X264215311Y-160453766D01*
X264215311Y-160453766D02*
X264177216Y-160568052D01*
X264177216Y-160568052D02*
X263720073Y-161025195D01*
X263720073Y-161025195D02*
X264215311Y-161025195D01*
X264901026Y-160491861D02*
X264901026Y-161025195D01*
X264710550Y-160187100D02*
X264520073Y-160758528D01*
X264520073Y-160758528D02*
X265015312Y-160758528D01*
X252423455Y-148325195D02*
X252156788Y-147944242D01*
X251966312Y-148325195D02*
X251966312Y-147525195D01*
X251966312Y-147525195D02*
X252271074Y-147525195D01*
X252271074Y-147525195D02*
X252347264Y-147563290D01*
X252347264Y-147563290D02*
X252385359Y-147601385D01*
X252385359Y-147601385D02*
X252423455Y-147677576D01*
X252423455Y-147677576D02*
X252423455Y-147791861D01*
X252423455Y-147791861D02*
X252385359Y-147868052D01*
X252385359Y-147868052D02*
X252347264Y-147906147D01*
X252347264Y-147906147D02*
X252271074Y-147944242D01*
X252271074Y-147944242D02*
X251966312Y-147944242D01*
X252728216Y-148287100D02*
X252842502Y-148325195D01*
X252842502Y-148325195D02*
X253032978Y-148325195D01*
X253032978Y-148325195D02*
X253109169Y-148287100D01*
X253109169Y-148287100D02*
X253147264Y-148249004D01*
X253147264Y-148249004D02*
X253185359Y-148172814D01*
X253185359Y-148172814D02*
X253185359Y-148096623D01*
X253185359Y-148096623D02*
X253147264Y-148020433D01*
X253147264Y-148020433D02*
X253109169Y-147982338D01*
X253109169Y-147982338D02*
X253032978Y-147944242D01*
X253032978Y-147944242D02*
X252880597Y-147906147D01*
X252880597Y-147906147D02*
X252804407Y-147868052D01*
X252804407Y-147868052D02*
X252766312Y-147829957D01*
X252766312Y-147829957D02*
X252728216Y-147753766D01*
X252728216Y-147753766D02*
X252728216Y-147677576D01*
X252728216Y-147677576D02*
X252766312Y-147601385D01*
X252766312Y-147601385D02*
X252804407Y-147563290D01*
X252804407Y-147563290D02*
X252880597Y-147525195D01*
X252880597Y-147525195D02*
X253071074Y-147525195D01*
X253071074Y-147525195D02*
X253185359Y-147563290D01*
X253413931Y-147525195D02*
X253871074Y-147525195D01*
X253642502Y-148325195D02*
X253642502Y-147525195D01*
X263453406Y-168645195D02*
X262996263Y-168645195D01*
X263224835Y-168645195D02*
X263224835Y-167845195D01*
X263224835Y-167845195D02*
X263148644Y-167959480D01*
X263148644Y-167959480D02*
X263072454Y-168035671D01*
X263072454Y-168035671D02*
X262996263Y-168073766D01*
X263948645Y-167845195D02*
X264024835Y-167845195D01*
X264024835Y-167845195D02*
X264101026Y-167883290D01*
X264101026Y-167883290D02*
X264139121Y-167921385D01*
X264139121Y-167921385D02*
X264177216Y-167997576D01*
X264177216Y-167997576D02*
X264215311Y-168149957D01*
X264215311Y-168149957D02*
X264215311Y-168340433D01*
X264215311Y-168340433D02*
X264177216Y-168492814D01*
X264177216Y-168492814D02*
X264139121Y-168569004D01*
X264139121Y-168569004D02*
X264101026Y-168607100D01*
X264101026Y-168607100D02*
X264024835Y-168645195D01*
X264024835Y-168645195D02*
X263948645Y-168645195D01*
X263948645Y-168645195D02*
X263872454Y-168607100D01*
X263872454Y-168607100D02*
X263834359Y-168569004D01*
X263834359Y-168569004D02*
X263796264Y-168492814D01*
X263796264Y-168492814D02*
X263758168Y-168340433D01*
X263758168Y-168340433D02*
X263758168Y-168149957D01*
X263758168Y-168149957D02*
X263796264Y-167997576D01*
X263796264Y-167997576D02*
X263834359Y-167921385D01*
X263834359Y-167921385D02*
X263872454Y-167883290D01*
X263872454Y-167883290D02*
X263948645Y-167845195D01*
X264901026Y-168111861D02*
X264901026Y-168645195D01*
X264710550Y-167807100D02*
X264520073Y-168378528D01*
X264520073Y-168378528D02*
X265015312Y-168378528D01*
X252423454Y-143245195D02*
X252156787Y-142864242D01*
X251966311Y-143245195D02*
X251966311Y-142445195D01*
X251966311Y-142445195D02*
X252271073Y-142445195D01*
X252271073Y-142445195D02*
X252347263Y-142483290D01*
X252347263Y-142483290D02*
X252385358Y-142521385D01*
X252385358Y-142521385D02*
X252423454Y-142597576D01*
X252423454Y-142597576D02*
X252423454Y-142711861D01*
X252423454Y-142711861D02*
X252385358Y-142788052D01*
X252385358Y-142788052D02*
X252347263Y-142826147D01*
X252347263Y-142826147D02*
X252271073Y-142864242D01*
X252271073Y-142864242D02*
X251966311Y-142864242D01*
X252728215Y-143016623D02*
X253109168Y-143016623D01*
X252652025Y-143245195D02*
X252918692Y-142445195D01*
X252918692Y-142445195D02*
X253185358Y-143245195D01*
X253375834Y-142445195D02*
X253566310Y-143245195D01*
X253566310Y-143245195D02*
X253718691Y-142673766D01*
X253718691Y-142673766D02*
X253871072Y-143245195D01*
X253871072Y-143245195D02*
X254061549Y-142445195D01*
X263301026Y-150103290D02*
X263224836Y-150065195D01*
X263224836Y-150065195D02*
X263110550Y-150065195D01*
X263110550Y-150065195D02*
X262996264Y-150103290D01*
X262996264Y-150103290D02*
X262920074Y-150179480D01*
X262920074Y-150179480D02*
X262881979Y-150255671D01*
X262881979Y-150255671D02*
X262843883Y-150408052D01*
X262843883Y-150408052D02*
X262843883Y-150522338D01*
X262843883Y-150522338D02*
X262881979Y-150674719D01*
X262881979Y-150674719D02*
X262920074Y-150750909D01*
X262920074Y-150750909D02*
X262996264Y-150827100D01*
X262996264Y-150827100D02*
X263110550Y-150865195D01*
X263110550Y-150865195D02*
X263186741Y-150865195D01*
X263186741Y-150865195D02*
X263301026Y-150827100D01*
X263301026Y-150827100D02*
X263339122Y-150789004D01*
X263339122Y-150789004D02*
X263339122Y-150522338D01*
X263339122Y-150522338D02*
X263186741Y-150522338D01*
X263681979Y-150865195D02*
X263681979Y-150065195D01*
X263681979Y-150065195D02*
X264139122Y-150865195D01*
X264139122Y-150865195D02*
X264139122Y-150065195D01*
X264520074Y-150865195D02*
X264520074Y-150065195D01*
X264520074Y-150065195D02*
X264710550Y-150065195D01*
X264710550Y-150065195D02*
X264824836Y-150103290D01*
X264824836Y-150103290D02*
X264901026Y-150179480D01*
X264901026Y-150179480D02*
X264939121Y-150255671D01*
X264939121Y-150255671D02*
X264977217Y-150408052D01*
X264977217Y-150408052D02*
X264977217Y-150522338D01*
X264977217Y-150522338D02*
X264939121Y-150674719D01*
X264939121Y-150674719D02*
X264901026Y-150750909D01*
X264901026Y-150750909D02*
X264824836Y-150827100D01*
X264824836Y-150827100D02*
X264710550Y-150865195D01*
X264710550Y-150865195D02*
X264520074Y-150865195D01*
D12*
%TO.C,D5*%
X142699550Y-145757900D02*
X143099550Y-145757900D01*
X143099550Y-145757900D02*
X143099550Y-145207900D01*
X143099550Y-145757900D02*
X143099550Y-146307900D01*
X143099550Y-145757900D02*
X143699550Y-145357900D01*
X143699550Y-145357900D02*
X143699550Y-146157900D01*
X143699550Y-145757900D02*
X144199550Y-145757900D01*
X143699550Y-146157900D02*
X143099550Y-145757900D01*
%TO.C,D1*%
X253790336Y-191298330D02*
X254152859Y-191467378D01*
X254152859Y-191467378D02*
X254385299Y-190968908D01*
X254152859Y-191467378D02*
X253920419Y-191965847D01*
X254152859Y-191467378D02*
X254865691Y-191358425D01*
X254865691Y-191358425D02*
X254527597Y-192083472D01*
X254696644Y-191720949D02*
X255149798Y-191932258D01*
X254527597Y-192083472D02*
X254152859Y-191467378D01*
%TO.C,D11*%
X180699550Y-140995400D02*
X181099550Y-140995400D01*
X181099550Y-140995400D02*
X181099550Y-140445400D01*
X181099550Y-140995400D02*
X181099550Y-141545400D01*
X181099550Y-140995400D02*
X181699550Y-140595400D01*
X181699550Y-140595400D02*
X181699550Y-141395400D01*
X181699550Y-140995400D02*
X182199550Y-140995400D01*
X181699550Y-141395400D02*
X181099550Y-140995400D01*
%TO.C,D10*%
X180699550Y-160045400D02*
X181099550Y-160045400D01*
X181099550Y-160045400D02*
X181099550Y-159495400D01*
X181099550Y-160045400D02*
X181099550Y-160595400D01*
X181099550Y-160045400D02*
X181699550Y-159645400D01*
X181699550Y-159645400D02*
X181699550Y-160445400D01*
X181699550Y-160045400D02*
X182199550Y-160045400D01*
X181699550Y-160445400D02*
X181099550Y-160045400D01*
%TO.C,D4*%
X142699550Y-164807900D02*
X143099550Y-164807900D01*
X143099550Y-164807900D02*
X143099550Y-164257900D01*
X143099550Y-164807900D02*
X143099550Y-165357900D01*
X143099550Y-164807900D02*
X143699550Y-164407900D01*
X143699550Y-164407900D02*
X143699550Y-165207900D01*
X143699550Y-164807900D02*
X144199550Y-164807900D01*
X143699550Y-165207900D02*
X143099550Y-164807900D01*
%TO.C,D12*%
X180699550Y-121945400D02*
X181099550Y-121945400D01*
X181099550Y-121945400D02*
X181099550Y-121395400D01*
X181099550Y-121945400D02*
X181099550Y-122495400D01*
X181099550Y-121945400D02*
X181699550Y-121545400D01*
X181699550Y-121545400D02*
X181699550Y-122345400D01*
X181699550Y-121945400D02*
X182199550Y-121945400D01*
X181699550Y-122345400D02*
X181099550Y-121945400D01*
%TO.C,D20*%
X237699550Y-143852900D02*
X238099550Y-143852900D01*
X238099550Y-143852900D02*
X238099550Y-143302900D01*
X238099550Y-143852900D02*
X238099550Y-144402900D01*
X238099550Y-143852900D02*
X238699550Y-143452900D01*
X238699550Y-143452900D02*
X238699550Y-144252900D01*
X238699550Y-143852900D02*
X239199550Y-143852900D01*
X238699550Y-144252900D02*
X238099550Y-143852900D01*
%TO.C,D16*%
X218699550Y-160045400D02*
X219099550Y-160045400D01*
X219099550Y-160045400D02*
X219099550Y-159495400D01*
X219099550Y-160045400D02*
X219099550Y-160595400D01*
X219099550Y-160045400D02*
X219699550Y-159645400D01*
X219699550Y-159645400D02*
X219699550Y-160445400D01*
X219699550Y-160045400D02*
X220199550Y-160045400D01*
X219699550Y-160445400D02*
X219099550Y-160045400D01*
%TO.C,D21*%
X237699550Y-124802900D02*
X238099550Y-124802900D01*
X238099550Y-124802900D02*
X238099550Y-124252900D01*
X238099550Y-124802900D02*
X238099550Y-125352900D01*
X238099550Y-124802900D02*
X238699550Y-124402900D01*
X238699550Y-124402900D02*
X238699550Y-125202900D01*
X238699550Y-124802900D02*
X239199550Y-124802900D01*
X238699550Y-125202900D02*
X238099550Y-124802900D01*
%TO.C,D19*%
X237699550Y-162902900D02*
X238099550Y-162902900D01*
X238099550Y-162902900D02*
X238099550Y-162352900D01*
X238099550Y-162902900D02*
X238099550Y-163452900D01*
X238099550Y-162902900D02*
X238699550Y-162502900D01*
X238699550Y-162502900D02*
X238699550Y-163302900D01*
X238699550Y-162902900D02*
X239199550Y-162902900D01*
X238699550Y-163302900D02*
X238099550Y-162902900D01*
%TO.C,D15*%
X199699550Y-117182900D02*
X200099550Y-117182900D01*
X200099550Y-117182900D02*
X200099550Y-116632900D01*
X200099550Y-117182900D02*
X200099550Y-117732900D01*
X200099550Y-117182900D02*
X200699550Y-116782900D01*
X200699550Y-116782900D02*
X200699550Y-117582900D01*
X200699550Y-117182900D02*
X201199550Y-117182900D01*
X200699550Y-117582900D02*
X200099550Y-117182900D01*
%TO.C,D17*%
X218699550Y-140995400D02*
X219099550Y-140995400D01*
X219099550Y-140995400D02*
X219099550Y-140445400D01*
X219099550Y-140995400D02*
X219099550Y-141545400D01*
X219099550Y-140995400D02*
X219699550Y-140595400D01*
X219699550Y-140595400D02*
X219699550Y-141395400D01*
X219699550Y-140995400D02*
X220199550Y-140995400D01*
X219699550Y-141395400D02*
X219099550Y-140995400D01*
%TO.C,D8*%
X161699550Y-140995400D02*
X162099550Y-140995400D01*
X162099550Y-140995400D02*
X162099550Y-140445400D01*
X162099550Y-140995400D02*
X162099550Y-141545400D01*
X162099550Y-140995400D02*
X162699550Y-140595400D01*
X162699550Y-140595400D02*
X162699550Y-141395400D01*
X162699550Y-140995400D02*
X163199550Y-140995400D01*
X162699550Y-141395400D02*
X162099550Y-140995400D01*
%TO.C,D2*%
X234591996Y-185450408D02*
X234985919Y-185519867D01*
X234985919Y-185519867D02*
X235081426Y-184978223D01*
X234985919Y-185519867D02*
X234890413Y-186061511D01*
X234985919Y-185519867D02*
X235646263Y-185230133D01*
X235646263Y-185230133D02*
X235507345Y-186017979D01*
X235576804Y-185624056D02*
X236069208Y-185710880D01*
X235507345Y-186017979D02*
X234985919Y-185519867D01*
%TO.C,D3*%
X214889550Y-183857900D02*
X215289550Y-183857900D01*
X215289550Y-183857900D02*
X215289550Y-183307900D01*
X215289550Y-183857900D02*
X215289550Y-184407900D01*
X215289550Y-183857900D02*
X215889550Y-183457900D01*
X215889550Y-183457900D02*
X215889550Y-184257900D01*
X215889550Y-183857900D02*
X216389550Y-183857900D01*
X215889550Y-184257900D02*
X215289550Y-183857900D01*
%TO.C,D6*%
X142699550Y-126707900D02*
X143099550Y-126707900D01*
X143099550Y-126707900D02*
X143099550Y-126157900D01*
X143099550Y-126707900D02*
X143099550Y-127257900D01*
X143099550Y-126707900D02*
X143699550Y-126307900D01*
X143699550Y-126307900D02*
X143699550Y-127107900D01*
X143699550Y-126707900D02*
X144199550Y-126707900D01*
X143699550Y-127107900D02*
X143099550Y-126707900D01*
D13*
%TO.C,MCU1*%
X249559550Y-172092900D02*
X267339550Y-172092900D01*
X267339550Y-172092900D02*
X267339550Y-139072900D01*
X249559550Y-139072900D02*
X249559550Y-172092900D01*
X267339550Y-139072900D02*
X249559550Y-139072900D01*
D12*
%TO.C,D9*%
X161699550Y-121945400D02*
X162099550Y-121945400D01*
X162099550Y-121945400D02*
X162099550Y-121395400D01*
X162099550Y-121945400D02*
X162099550Y-122495400D01*
X162099550Y-121945400D02*
X162699550Y-121545400D01*
X162699550Y-121545400D02*
X162699550Y-122345400D01*
X162699550Y-121945400D02*
X163199550Y-121945400D01*
X162699550Y-122345400D02*
X162099550Y-121945400D01*
%TO.C,D18*%
X218699550Y-121945400D02*
X219099550Y-121945400D01*
X219099550Y-121945400D02*
X219099550Y-121395400D01*
X219099550Y-121945400D02*
X219099550Y-122495400D01*
X219099550Y-121945400D02*
X219699550Y-121545400D01*
X219699550Y-121545400D02*
X219699550Y-122345400D01*
X219699550Y-121945400D02*
X220199550Y-121945400D01*
X219699550Y-122345400D02*
X219099550Y-121945400D01*
%TO.C,D13*%
X199699550Y-155282900D02*
X200099550Y-155282900D01*
X200099550Y-155282900D02*
X200099550Y-154732900D01*
X200099550Y-155282900D02*
X200099550Y-155832900D01*
X200099550Y-155282900D02*
X200699550Y-154882900D01*
X200699550Y-154882900D02*
X200699550Y-155682900D01*
X200699550Y-155282900D02*
X201199550Y-155282900D01*
X200699550Y-155682900D02*
X200099550Y-155282900D01*
%TO.C,D14*%
X199699550Y-136232900D02*
X200099550Y-136232900D01*
X200099550Y-136232900D02*
X200099550Y-135682900D01*
X200099550Y-136232900D02*
X200099550Y-136782900D01*
X200099550Y-136232900D02*
X200699550Y-135832900D01*
X200699550Y-135832900D02*
X200699550Y-136632900D01*
X200699550Y-136232900D02*
X201199550Y-136232900D01*
X200699550Y-136632900D02*
X200099550Y-136232900D01*
%TO.C,D7*%
X161699550Y-160045400D02*
X162099550Y-160045400D01*
X162099550Y-160045400D02*
X162099550Y-159495400D01*
X162099550Y-160045400D02*
X162099550Y-160595400D01*
X162099550Y-160045400D02*
X162699550Y-159645400D01*
X162699550Y-159645400D02*
X162699550Y-160445400D01*
X162699550Y-160045400D02*
X163199550Y-160045400D01*
X162699550Y-160445400D02*
X162099550Y-160045400D01*
%TD*%
D14*
%TO.C,MCU1*%
X250829550Y-142882900D03*
X250829550Y-145422900D03*
X250829550Y-147962900D03*
X250829550Y-150502900D03*
X250829550Y-153042900D03*
X250829550Y-155582900D03*
X250829550Y-158122900D03*
X250829550Y-160662900D03*
X250829550Y-163202900D03*
X250829550Y-165742900D03*
X250829550Y-168282900D03*
X250829550Y-170822900D03*
X266069550Y-170822900D03*
X266069550Y-168282900D03*
X266069550Y-165742900D03*
X266069550Y-163202900D03*
X266069550Y-160662900D03*
X266069550Y-158122900D03*
X266069550Y-155582900D03*
X266069550Y-153042900D03*
X266069550Y-150502900D03*
X266069550Y-147962900D03*
X266069550Y-145422900D03*
X266069550Y-142882900D03*
%TD*%
M02*
