%TF.GenerationSoftware,KiCad,Pcbnew,7.0.9*%
%TF.CreationDate,2024-08-18T04:48:21-07:00*%
%TF.ProjectId,left,6c656674-2e6b-4696-9361-645f70636258,v1.0.0*%
%TF.SameCoordinates,Original*%
%TF.FileFunction,Profile,NP*%
%FSLAX46Y46*%
G04 Gerber Fmt 4.6, Leading zero omitted, Abs format (unit mm)*
G04 Created by KiCad (PCBNEW 7.0.9) date 2024-08-18 04:48:21*
%MOMM*%
%LPD*%
G01*
G04 APERTURE LIST*
%TA.AperFunction,Profile*%
%ADD10C,0.150000*%
%TD*%
G04 APERTURE END LIST*
D10*
X189949550Y-105182900D02*
X189949550Y-105945400D01*
X150949550Y-111707900D02*
G75*
G03*
X151949550Y-110707900I0J1000000D01*
G01*
X229949550Y-107802900D02*
X229949550Y-107445400D01*
X151949550Y-109945400D02*
X151949550Y-110707900D01*
X231949550Y-109802900D02*
X245949550Y-109802900D01*
X229949550Y-107802900D02*
G75*
G03*
X231949550Y-109802900I2000000J0D01*
G01*
X154949550Y-106945400D02*
G75*
G03*
X151949550Y-109945400I0J-3000000D01*
G01*
X188949550Y-106945400D02*
G75*
G03*
X189949550Y-105945400I0J1000000D01*
G01*
X189949550Y-168282900D02*
G75*
G03*
X191949550Y-170282900I2000000J0D01*
G01*
X260576902Y-198410162D02*
G75*
G03*
X260576902Y-198410162I-1000000J0D01*
G01*
X244139023Y-192314739D02*
X259154284Y-199316470D01*
X189949550Y-168282900D02*
X189949550Y-168045400D01*
X205139550Y-185857900D02*
G75*
G03*
X208139550Y-188857900I3000000J0D01*
G01*
X210949550Y-103945400D02*
G75*
G03*
X213949550Y-106945400I3000000J0D01*
G01*
X135949550Y-111707900D02*
G75*
G03*
X132949550Y-114707900I1J-3000001D01*
G01*
X210949550Y-103945400D02*
X210949550Y-103182900D01*
X213949550Y-106945400D02*
X229449550Y-106945400D01*
X153949550Y-166807900D02*
X153949550Y-166045400D01*
X251949550Y-137902900D02*
X270449550Y-137902900D01*
X208139550Y-188857900D02*
X224860527Y-188857900D01*
X225381471Y-188903477D02*
X243392113Y-192079239D01*
X154949550Y-165045400D02*
G75*
G03*
X153949550Y-166045400I0J-1000000D01*
G01*
X248949550Y-112802900D02*
G75*
G03*
X245949550Y-109802900I-3000000J0D01*
G01*
X154949550Y-106945400D02*
X188949550Y-106945400D01*
X259154300Y-199316436D02*
G75*
G03*
X263141063Y-197865401I1267850J2718936D01*
G01*
X135949550Y-111707900D02*
X150949550Y-111707900D01*
X192949550Y-102182900D02*
G75*
G03*
X189949550Y-105182900I0J-3000000D01*
G01*
X263141062Y-197865401D02*
X270325573Y-182458169D01*
X248949550Y-134902900D02*
X248949550Y-112802900D01*
X135949550Y-169807900D02*
X150949550Y-169807900D01*
X189949550Y-168045400D02*
G75*
G03*
X186949550Y-165045400I-3000000J0D01*
G01*
X154949550Y-165045400D02*
X186949550Y-165045400D01*
X270449550Y-182402900D02*
G75*
G03*
X273449550Y-179402900I0J3000000D01*
G01*
X225381472Y-188903473D02*
G75*
G03*
X224860527Y-188857900I-520922J-2954427D01*
G01*
X273449550Y-140902900D02*
G75*
G03*
X270449550Y-137902900I-3000000J0D01*
G01*
X209949550Y-102182900D02*
X192949550Y-102182900D01*
X273449550Y-179402900D02*
X273449550Y-140902900D01*
X270325573Y-182458169D02*
X270207048Y-182402900D01*
X244139019Y-192314748D02*
G75*
G03*
X243392113Y-192079240I-1267869J-2718852D01*
G01*
X132949550Y-166807900D02*
X132949550Y-114707900D01*
X205139550Y-173282900D02*
G75*
G03*
X202139550Y-170282900I-3000000J0D01*
G01*
X248949550Y-134902900D02*
G75*
G03*
X251949550Y-137902900I3000000J0D01*
G01*
X191949550Y-170282900D02*
X202139550Y-170282900D01*
X205139550Y-185857900D02*
X205139550Y-173282900D01*
X270449550Y-182402900D02*
X270207048Y-182402900D01*
X225794647Y-189395881D02*
G75*
G03*
X225794647Y-189395881I-500000J0D01*
G01*
X210949550Y-103182900D02*
G75*
G03*
X209949550Y-102182900I-1000000J0D01*
G01*
X229949550Y-107445400D02*
G75*
G03*
X229449550Y-106945400I-500000J0D01*
G01*
X150949550Y-169807900D02*
G75*
G03*
X153949550Y-166807900I0J3000000D01*
G01*
X244427714Y-192767893D02*
G75*
G03*
X244427714Y-192767893I-500000J0D01*
G01*
X132949550Y-166807900D02*
G75*
G03*
X135949550Y-169807900I3000001J1D01*
G01*
M02*
