%TF.GenerationSoftware,KiCad,Pcbnew,7.0.9*%
%TF.CreationDate,2024-08-18T04:48:21-07:00*%
%TF.ProjectId,left,6c656674-2e6b-4696-9361-645f70636258,v1.0.0*%
%TF.SameCoordinates,Original*%
%TF.FileFunction,Copper,L1,Top*%
%TF.FilePolarity,Positive*%
%FSLAX46Y46*%
G04 Gerber Fmt 4.6, Leading zero omitted, Abs format (unit mm)*
G04 Created by KiCad (PCBNEW 7.0.9) date 2024-08-18 04:48:21*
%MOMM*%
%LPD*%
G01*
G04 APERTURE LIST*
G04 Aperture macros list*
%AMRotRect*
0 Rectangle, with rotation*
0 The origin of the aperture is its center*
0 $1 length*
0 $2 width*
0 $3 Rotation angle, in degrees counterclockwise*
0 Add horizontal line*
21,1,$1,$2,0,0,$3*%
G04 Aperture macros list end*
%TA.AperFunction,WasherPad*%
%ADD10C,1.000000*%
%TD*%
%TA.AperFunction,ComponentPad*%
%ADD11R,1.778000X1.778000*%
%TD*%
%TA.AperFunction,SMDPad,CuDef*%
%ADD12R,0.900000X1.200000*%
%TD*%
%TA.AperFunction,ComponentPad*%
%ADD13C,1.905000*%
%TD*%
%TA.AperFunction,ComponentPad*%
%ADD14RotRect,1.778000X1.778000X335.000000*%
%TD*%
%TA.AperFunction,SMDPad,CuDef*%
%ADD15RotRect,0.900000X1.200000X335.000000*%
%TD*%
%TA.AperFunction,ComponentPad*%
%ADD16O,2.200000X1.600000*%
%TD*%
%TA.AperFunction,ComponentPad*%
%ADD17R,1.700000X1.200000*%
%TD*%
%TA.AperFunction,ComponentPad*%
%ADD18O,1.700000X1.200000*%
%TD*%
%TA.AperFunction,ComponentPad*%
%ADD19C,0.700000*%
%TD*%
%TA.AperFunction,ComponentPad*%
%ADD20C,4.400000*%
%TD*%
%TA.AperFunction,ComponentPad*%
%ADD21RotRect,1.778000X1.778000X350.000000*%
%TD*%
%TA.AperFunction,SMDPad,CuDef*%
%ADD22RotRect,0.900000X1.200000X350.000000*%
%TD*%
%TA.AperFunction,ComponentPad*%
%ADD23C,1.752600*%
%TD*%
%TA.AperFunction,Conductor*%
%ADD24C,0.250000*%
%TD*%
G04 APERTURE END LIST*
D10*
%TO.P,T1,*%
%TO.N,*%
X271449550Y-164352900D03*
X271449550Y-161352900D03*
%TD*%
D11*
%TO.P,D5,1*%
%TO.N,P029*%
X139639550Y-145757900D03*
D12*
X141799550Y-145757900D03*
%TO.P,D5,2*%
%TO.N,outer_home*%
X145099550Y-145757900D03*
D13*
X147259550Y-145757900D03*
%TD*%
D14*
%TO.P,D1,1*%
%TO.N,P113*%
X251017034Y-190005118D03*
D15*
X252974659Y-190917974D03*
%TO.P,D1,2*%
%TO.N,reachy_cluster*%
X255965475Y-192312614D03*
D13*
X257923100Y-193225470D03*
%TD*%
D11*
%TO.P,D11,1*%
%TO.N,P029*%
X177639550Y-140995400D03*
D12*
X179799550Y-140995400D03*
%TO.P,D11,2*%
%TO.N,ring_home*%
X183099550Y-140995400D03*
D13*
X185259550Y-140995400D03*
%TD*%
D16*
%TO.P,TRRS1,1*%
%TO.N,GND*%
X262146350Y-173800700D03*
X262146350Y-178400700D03*
%TO.P,TRRS1,2*%
X263246350Y-173800700D03*
X263246350Y-178400700D03*
%TO.P,TRRS1,3*%
%TO.N,P010*%
X267246350Y-173800700D03*
X267246350Y-178400700D03*
%TO.P,TRRS1,4*%
%TO.N,VCC*%
X270246350Y-173800700D03*
X270246350Y-178400700D03*
%TD*%
D17*
%TO.P,JST1,1*%
%TO.N,pos*%
X205449550Y-120232900D03*
D18*
%TO.P,JST1,2*%
%TO.N,GND*%
X205449550Y-122232900D03*
%TD*%
D11*
%TO.P,D10,1*%
%TO.N,P002*%
X177639550Y-160045400D03*
D12*
X179799550Y-160045400D03*
%TO.P,D10,2*%
%TO.N,ring_bottom*%
X183099550Y-160045400D03*
D13*
X185259550Y-160045400D03*
%TD*%
D11*
%TO.P,D4,1*%
%TO.N,P002*%
X139639550Y-164807900D03*
D12*
X141799550Y-164807900D03*
%TO.P,D4,2*%
%TO.N,outer_bottom*%
X145099550Y-164807900D03*
D13*
X147259550Y-164807900D03*
%TD*%
D11*
%TO.P,D12,1*%
%TO.N,P031*%
X177639550Y-121945400D03*
D12*
X179799550Y-121945400D03*
%TO.P,D12,2*%
%TO.N,ring_top*%
X183099550Y-121945400D03*
D13*
X185259550Y-121945400D03*
%TD*%
D11*
%TO.P,D20,1*%
%TO.N,P029*%
X234639550Y-143852900D03*
D12*
X236799550Y-143852900D03*
%TO.P,D20,2*%
%TO.N,inner_home*%
X240099550Y-143852900D03*
D13*
X242259550Y-143852900D03*
%TD*%
D11*
%TO.P,D16,1*%
%TO.N,P002*%
X215639550Y-160045400D03*
D12*
X217799550Y-160045400D03*
%TO.P,D16,2*%
%TO.N,index_bottom*%
X221099550Y-160045400D03*
D13*
X223259550Y-160045400D03*
%TD*%
D11*
%TO.P,D21,1*%
%TO.N,P031*%
X234639550Y-124802900D03*
D12*
X236799550Y-124802900D03*
%TO.P,D21,2*%
%TO.N,inner_top*%
X240099550Y-124802900D03*
D13*
X242259550Y-124802900D03*
%TD*%
D11*
%TO.P,D19,1*%
%TO.N,P002*%
X234639550Y-162902900D03*
D12*
X236799550Y-162902900D03*
%TO.P,D19,2*%
%TO.N,inner_bottom*%
X240099550Y-162902900D03*
D13*
X242259550Y-162902900D03*
%TD*%
D19*
%TO.P,_2,1*%
%TO.N,N/C*%
X151299550Y-150307900D03*
X151782824Y-149141174D03*
X151782824Y-151474626D03*
X152949550Y-148657900D03*
D20*
X152949550Y-150307900D03*
D19*
X152949550Y-151957900D03*
X154116276Y-149141174D03*
X154116276Y-151474626D03*
X154599550Y-150307900D03*
%TD*%
%TO.P,_3,1*%
%TO.N,N/C*%
X227299550Y-123945400D03*
X227782824Y-122778674D03*
X227782824Y-125112126D03*
X228949550Y-122295400D03*
D20*
X228949550Y-123945400D03*
D19*
X228949550Y-125595400D03*
X230116276Y-122778674D03*
X230116276Y-125112126D03*
X230599550Y-123945400D03*
%TD*%
D11*
%TO.P,D15,1*%
%TO.N,P031*%
X196639550Y-117182900D03*
D12*
X198799550Y-117182900D03*
%TO.P,D15,2*%
%TO.N,middle_top*%
X202099550Y-117182900D03*
D13*
X204259550Y-117182900D03*
%TD*%
D19*
%TO.P,_4,1*%
%TO.N,N/C*%
X236744512Y-168059989D03*
X237423044Y-166994907D03*
X237017844Y-169292909D03*
X238655964Y-166721575D03*
D20*
X238369445Y-168346508D03*
D19*
X238082926Y-169971441D03*
X239721046Y-167400107D03*
X239315846Y-169698109D03*
X239994378Y-168633027D03*
%TD*%
D11*
%TO.P,D17,1*%
%TO.N,P029*%
X215639550Y-140995400D03*
D12*
X217799550Y-140995400D03*
%TO.P,D17,2*%
%TO.N,index_home*%
X221099550Y-140995400D03*
D13*
X223259550Y-140995400D03*
%TD*%
D11*
%TO.P,D8,1*%
%TO.N,P029*%
X158639550Y-140995400D03*
D12*
X160799550Y-140995400D03*
%TO.P,D8,2*%
%TO.N,pinky_home*%
X164099550Y-140995400D03*
D13*
X166259550Y-140995400D03*
%TD*%
D21*
%TO.P,D2,1*%
%TO.N,P113*%
X231578484Y-184919044D03*
D22*
X233705669Y-185294125D03*
%TO.P,D2,2*%
%TO.N,tucky_cluster*%
X236955535Y-185867163D03*
D13*
X239082720Y-186242244D03*
%TD*%
D11*
%TO.P,D3,1*%
%TO.N,P113*%
X211829550Y-183857900D03*
D12*
X213989550Y-183857900D03*
%TO.P,D3,2*%
%TO.N,stim_cluster*%
X217289550Y-183857900D03*
D13*
X219449550Y-183857900D03*
%TD*%
D11*
%TO.P,D6,1*%
%TO.N,P031*%
X139639550Y-126707900D03*
D12*
X141799550Y-126707900D03*
%TO.P,D6,2*%
%TO.N,outer_top*%
X145099550Y-126707900D03*
D13*
X147259550Y-126707900D03*
%TD*%
D23*
%TO.P,MCU1,24*%
%TO.N,RAW*%
X250829550Y-142882900D03*
%TO.P,MCU1,23*%
%TO.N,GND*%
X250829550Y-145422900D03*
%TO.P,MCU1,22*%
%TO.N,RST*%
X250829550Y-147962900D03*
%TO.P,MCU1,21*%
%TO.N,VCC*%
X250829550Y-150502900D03*
%TO.P,MCU1,20*%
%TO.N,P031*%
X250829550Y-153042900D03*
%TO.P,MCU1,19*%
%TO.N,P029*%
X250829550Y-155582900D03*
%TO.P,MCU1,18*%
%TO.N,P002*%
X250829550Y-158122900D03*
%TO.P,MCU1,17*%
%TO.N,P115*%
X250829550Y-160662900D03*
%TO.P,MCU1,16*%
%TO.N,P113*%
X250829550Y-163202900D03*
%TO.P,MCU1,15*%
%TO.N,P111*%
X250829550Y-165742900D03*
%TO.P,MCU1,14*%
%TO.N,P010*%
X250829550Y-168282900D03*
%TO.P,MCU1,13*%
%TO.N,P009*%
X250829550Y-170822900D03*
%TO.P,MCU1,12*%
%TO.N,P106*%
X266069550Y-170822900D03*
%TO.P,MCU1,11*%
%TO.N,P104*%
X266069550Y-168282900D03*
%TO.P,MCU1,10*%
%TO.N,P011*%
X266069550Y-165742900D03*
%TO.P,MCU1,9*%
%TO.N,P100*%
X266069550Y-163202900D03*
%TO.P,MCU1,8*%
%TO.N,P024*%
X266069550Y-160662900D03*
%TO.P,MCU1,7*%
%TO.N,P022*%
X266069550Y-158122900D03*
%TO.P,MCU1,6*%
%TO.N,P020*%
X266069550Y-155582900D03*
%TO.P,MCU1,5*%
%TO.N,P017*%
X266069550Y-153042900D03*
%TO.P,MCU1,4*%
%TO.N,GND*%
X266069550Y-150502900D03*
%TO.P,MCU1,3*%
X266069550Y-147962900D03*
%TO.P,MCU1,2*%
%TO.N,P008*%
X266069550Y-145422900D03*
%TO.P,MCU1,1*%
%TO.N,P006*%
X266069550Y-142882900D03*
%TD*%
D11*
%TO.P,D9,1*%
%TO.N,P031*%
X158639550Y-121945400D03*
D12*
X160799550Y-121945400D03*
%TO.P,D9,2*%
%TO.N,pinky_top*%
X164099550Y-121945400D03*
D13*
X166259550Y-121945400D03*
%TD*%
D11*
%TO.P,D18,1*%
%TO.N,P031*%
X215639550Y-121945400D03*
D12*
X217799550Y-121945400D03*
%TO.P,D18,2*%
%TO.N,index_top*%
X221099550Y-121945400D03*
D13*
X223259550Y-121945400D03*
%TD*%
D11*
%TO.P,D13,1*%
%TO.N,P002*%
X196639550Y-155282900D03*
D12*
X198799550Y-155282900D03*
%TO.P,D13,2*%
%TO.N,middle_bottom*%
X202099550Y-155282900D03*
D13*
X204259550Y-155282900D03*
%TD*%
D11*
%TO.P,D14,1*%
%TO.N,P029*%
X196639550Y-136232900D03*
D12*
X198799550Y-136232900D03*
%TO.P,D14,2*%
%TO.N,middle_home*%
X202099550Y-136232900D03*
D13*
X204259550Y-136232900D03*
%TD*%
D11*
%TO.P,D7,1*%
%TO.N,P002*%
X158639550Y-160045400D03*
D12*
X160799550Y-160045400D03*
%TO.P,D7,2*%
%TO.N,pinky_bottom*%
X164099550Y-160045400D03*
D13*
X166259550Y-160045400D03*
%TD*%
D19*
%TO.P,_1,1*%
%TO.N,N/C*%
X151299550Y-126707900D03*
X151782824Y-125541174D03*
X151782824Y-127874626D03*
X152949550Y-125057900D03*
D20*
X152949550Y-126707900D03*
D19*
X152949550Y-128357900D03*
X154116276Y-125541174D03*
X154116276Y-127874626D03*
X154599550Y-126707900D03*
%TD*%
D24*
%TO.N,VCC*%
X252030850Y-151704200D02*
X250829550Y-150502900D01*
X263616600Y-169484200D02*
X252030850Y-157898450D01*
X270246350Y-172750700D02*
X266979850Y-169484200D01*
X252030850Y-157898450D02*
X252030850Y-151704200D01*
X270246350Y-173800700D02*
X270246350Y-172750700D01*
X266979850Y-169484200D02*
X263616600Y-169484200D01*
%TO.N,pinky_bottom*%
X164099550Y-160045400D02*
X166259550Y-160045400D01*
%TO.N,middle_home*%
X202099550Y-136232900D02*
X204259550Y-136232900D01*
%TO.N,index_home*%
X221099550Y-140995400D02*
X223259550Y-140995400D01*
%TO.N,inner_top*%
X240099550Y-124802900D02*
X242259550Y-124802900D01*
%TO.N,index_top*%
X221099550Y-121945400D02*
X223259550Y-121945400D01*
%TO.N,middle_top*%
X202099550Y-117182900D02*
X204259550Y-117182900D01*
%TO.N,ring_top*%
X183099550Y-121945400D02*
X185259550Y-121945400D01*
%TO.N,pinky_top*%
X164099550Y-121945400D02*
X166259550Y-121945400D01*
%TO.N,outer_top*%
X145099550Y-126707900D02*
X147259550Y-126707900D01*
%TO.N,outer_home*%
X145099550Y-145757900D02*
X147259550Y-145757900D01*
%TO.N,outer_bottom*%
X145099550Y-164807900D02*
X147259550Y-164807900D01*
%TO.N,inner_bottom*%
X240099550Y-162902900D02*
X242259550Y-162902900D01*
%TO.N,index_bottom*%
X221099550Y-160045400D02*
X223259550Y-160045400D01*
%TO.N,middle_bottom*%
X204259550Y-155282900D02*
X202099550Y-155282900D01*
%TO.N,ring_bottom*%
X183099550Y-160045400D02*
X185259550Y-160045400D01*
%TO.N,tucky_cluster*%
X238707639Y-185867163D02*
X239082720Y-186242244D01*
X236955535Y-185867163D02*
X238707639Y-185867163D01*
%TO.N,P113*%
X249628250Y-164404200D02*
X250829550Y-163202900D01*
X249628250Y-188616334D02*
X249628250Y-164404200D01*
X251017034Y-190005118D02*
X249628250Y-188616334D01*
%TO.N,reachy_cluster*%
X257010244Y-192312614D02*
X257923100Y-193225470D01*
X255965475Y-192312614D02*
X257010244Y-192312614D01*
%TO.N,P113*%
X252061803Y-190005118D02*
X252974659Y-190917974D01*
X251017034Y-190005118D02*
X252061803Y-190005118D01*
X238416662Y-190005118D02*
X251017034Y-190005118D01*
X233705669Y-185294125D02*
X238416662Y-190005118D01*
%TO.N,stim_cluster*%
X217289550Y-183857900D02*
X219449550Y-183857900D01*
%TO.N,P113*%
X233330588Y-184919044D02*
X233705669Y-185294125D01*
X231578484Y-184919044D02*
X233330588Y-184919044D01*
X215267050Y-185135400D02*
X231362128Y-185135400D01*
X213989550Y-183857900D02*
X215267050Y-185135400D01*
X231362128Y-185135400D02*
X231578484Y-184919044D01*
X211829550Y-183857900D02*
X213989550Y-183857900D01*
%TO.N,GND*%
X262146350Y-178400700D02*
X263246350Y-178400700D01*
X262146350Y-173800700D02*
X263246350Y-173800700D01*
%TO.N,pinky_home*%
X164099550Y-140995400D02*
X166259550Y-140995400D01*
%TO.N,ring_home*%
X183099550Y-140995400D02*
X185259550Y-140995400D01*
%TO.N,P029*%
X158639550Y-140995400D02*
X160799550Y-140995400D01*
X155154550Y-144480400D02*
X158639550Y-140995400D01*
X143077050Y-144480400D02*
X155154550Y-144480400D01*
X141799550Y-145757900D02*
X143077050Y-144480400D01*
X139639550Y-145757900D02*
X141799550Y-145757900D01*
%TO.N,P031*%
X141799550Y-126707900D02*
X144324550Y-124182900D01*
X144324550Y-124182900D02*
X156402050Y-124182900D01*
X156402050Y-124182900D02*
X158639550Y-121945400D01*
X139639550Y-126707900D02*
X141799550Y-126707900D01*
%TO.N,P029*%
X162077050Y-139717900D02*
X160799550Y-140995400D01*
X176362050Y-139717900D02*
X162077050Y-139717900D01*
X177639550Y-140995400D02*
X176362050Y-139717900D01*
X179799550Y-140995400D02*
X177639550Y-140995400D01*
X181077050Y-139717900D02*
X179799550Y-140995400D01*
X193154550Y-139717900D02*
X181077050Y-139717900D01*
X196639550Y-136232900D02*
X193154550Y-139717900D01*
X196639550Y-136232900D02*
X198799550Y-136232900D01*
X215639550Y-140995400D02*
X203562050Y-140995400D01*
X203562050Y-140995400D02*
X198799550Y-136232900D01*
X217799550Y-140995400D02*
X215639550Y-140995400D01*
%TO.N,P031*%
X215639550Y-121945400D02*
X217799550Y-121945400D01*
X222324550Y-126470400D02*
X217799550Y-121945400D01*
X232972050Y-126470400D02*
X222324550Y-126470400D01*
X234639550Y-124802900D02*
X232972050Y-126470400D01*
%TO.N,P029*%
X220657050Y-143852900D02*
X217799550Y-140995400D01*
X234639550Y-143852900D02*
X220657050Y-143852900D01*
X248529550Y-155582900D02*
X250829550Y-155582900D01*
X236799550Y-143852900D02*
X248529550Y-155582900D01*
X236799550Y-143852900D02*
X234639550Y-143852900D01*
%TO.N,inner_home*%
X242259550Y-143852900D02*
X240099550Y-143852900D01*
%TO.N,P031*%
X177639550Y-121945400D02*
X179799550Y-121945400D01*
X162077050Y-120667900D02*
X176362050Y-120667900D01*
X176362050Y-120667900D02*
X177639550Y-121945400D01*
X160799550Y-121945400D02*
X162077050Y-120667900D01*
X158639550Y-121945400D02*
X160799550Y-121945400D01*
X193154550Y-120667900D02*
X196639550Y-117182900D01*
X181077050Y-120667900D02*
X193154550Y-120667900D01*
X179799550Y-121945400D02*
X181077050Y-120667900D01*
X196639550Y-117182900D02*
X198799550Y-117182900D01*
X200077050Y-118460400D02*
X198799550Y-117182900D01*
X212154550Y-118460400D02*
X200077050Y-118460400D01*
X215639550Y-121945400D02*
X212154550Y-118460400D01*
X236799550Y-124802900D02*
X234639550Y-124802900D01*
X249628250Y-151841600D02*
X250829550Y-153042900D01*
X249628250Y-150005305D02*
X249628250Y-151841600D01*
X250331955Y-149301600D02*
X249628250Y-150005305D01*
X251189745Y-149301600D02*
X250331955Y-149301600D01*
X252874852Y-147616493D02*
X251189745Y-149301600D01*
X252874852Y-140357420D02*
X252874852Y-147616493D01*
X237320332Y-124802900D02*
X252874852Y-140357420D01*
X234639550Y-124802900D02*
X237320332Y-124802900D01*
%TO.N,GND*%
X249596150Y-138597850D02*
X249596150Y-144189500D01*
X238700600Y-127702300D02*
X249596150Y-138597850D01*
X249596150Y-144189500D02*
X250829550Y-145422900D01*
X210918950Y-127702300D02*
X238700600Y-127702300D01*
X205449550Y-122232900D02*
X210918950Y-127702300D01*
%TO.N,P002*%
X179799550Y-160045400D02*
X183573650Y-156271300D01*
X203562050Y-160045400D02*
X215639550Y-160045400D01*
X215639550Y-160045400D02*
X217799550Y-160045400D01*
X238077050Y-164180400D02*
X244772050Y-164180400D01*
X217799550Y-160195400D02*
X220507050Y-162902900D01*
X160799550Y-160045400D02*
X162111450Y-161357300D01*
X158639550Y-160045400D02*
X160799550Y-160045400D01*
X139639550Y-164807900D02*
X141799550Y-164807900D01*
X220507050Y-162902900D02*
X234639550Y-162902900D01*
X236799550Y-162902900D02*
X238077050Y-164180400D01*
X198799550Y-155282900D02*
X203562050Y-160045400D01*
X155549650Y-163135300D02*
X158639550Y-160045400D01*
X141799550Y-164807900D02*
X143472150Y-163135300D01*
X244772050Y-164180400D02*
X250829550Y-158122900D01*
X183573650Y-156271300D02*
X195651150Y-156271300D01*
X217799550Y-160045400D02*
X217799550Y-160195400D01*
X177639550Y-160045400D02*
X179799550Y-160045400D01*
X143472150Y-163135300D02*
X155549650Y-163135300D01*
X196639550Y-155282900D02*
X198799550Y-155282900D01*
X176327650Y-161357300D02*
X177639550Y-160045400D01*
X162111450Y-161357300D02*
X176327650Y-161357300D01*
X195651150Y-156271300D02*
X196639550Y-155282900D01*
X234639550Y-162902900D02*
X236799550Y-162902900D01*
%TO.N,P010*%
X267246350Y-173800700D02*
X261728550Y-168282900D01*
X261728550Y-168282900D02*
X250829550Y-168282900D01*
X267246350Y-178400700D02*
X267246350Y-173800700D01*
%TO.N,VCC*%
X270246350Y-178400700D02*
X270246350Y-173800700D01*
%TD*%
M02*
