%TF.GenerationSoftware,KiCad,Pcbnew,7.0.9*%
%TF.CreationDate,2024-08-18T04:48:21-07:00*%
%TF.ProjectId,left,6c656674-2e6b-4696-9361-645f70636258,v1.0.0*%
%TF.SameCoordinates,Original*%
%TF.FileFunction,Paste,Bot*%
%TF.FilePolarity,Positive*%
%FSLAX46Y46*%
G04 Gerber Fmt 4.6, Leading zero omitted, Abs format (unit mm)*
G04 Created by KiCad (PCBNEW 7.0.9) date 2024-08-18 04:48:21*
%MOMM*%
%LPD*%
G01*
G04 APERTURE LIST*
G04 Aperture macros list*
%AMRotRect*
0 Rectangle, with rotation*
0 The origin of the aperture is its center*
0 $1 length*
0 $2 width*
0 $3 Rotation angle, in degrees counterclockwise*
0 Add horizontal line*
21,1,$1,$2,0,0,$3*%
G04 Aperture macros list end*
%ADD10R,1.250000X0.900000*%
%ADD11R,0.900000X0.900000*%
%ADD12R,1.100000X1.800000*%
%ADD13R,2.600000X2.600000*%
%ADD14RotRect,2.600000X2.600000X335.000000*%
%ADD15R,0.900000X1.200000*%
%ADD16RotRect,0.900000X1.200000X335.000000*%
%ADD17RotRect,2.600000X2.600000X350.000000*%
%ADD18RotRect,0.900000X1.200000X350.000000*%
G04 APERTURE END LIST*
D10*
%TO.C,T1*%
X269374550Y-165102900D03*
X269374550Y-163602900D03*
X269374550Y-160602900D03*
D11*
X270349550Y-166552900D03*
X272549550Y-166552900D03*
X270349550Y-159152900D03*
X272549550Y-159152900D03*
%TD*%
D12*
%TO.C,B1*%
X272299550Y-147752900D03*
X272299550Y-153952900D03*
X268599550Y-147752900D03*
X268599550Y-153952900D03*
%TD*%
D13*
%TO.C,S5*%
X140174550Y-134807900D03*
X151724550Y-137007900D03*
%TD*%
D14*
%TO.C,S1*%
X256129579Y-180307149D03*
X265667673Y-187182267D03*
%TD*%
D15*
%TO.C,D5*%
X141799550Y-145757900D03*
X145099550Y-145757900D03*
%TD*%
D16*
%TO.C,D1*%
X252974659Y-190917974D03*
X255965475Y-192312614D03*
%TD*%
D13*
%TO.C,S20*%
X235174550Y-132902900D03*
X246724550Y-135102900D03*
%TD*%
%TO.C,S8*%
X159174550Y-130045400D03*
X170724550Y-132245400D03*
%TD*%
D15*
%TO.C,D11*%
X179799550Y-140995400D03*
X183099550Y-140995400D03*
%TD*%
%TO.C,D10*%
X179799550Y-160045400D03*
X183099550Y-160045400D03*
%TD*%
%TO.C,D4*%
X141799550Y-164807900D03*
X145099550Y-164807900D03*
%TD*%
D13*
%TO.C,S10*%
X178174550Y-149095400D03*
X189724550Y-151295400D03*
%TD*%
D15*
%TO.C,D12*%
X179799550Y-121945400D03*
X183099550Y-121945400D03*
%TD*%
D17*
%TO.C,S2*%
X234006804Y-174228301D03*
X244999308Y-178400515D03*
%TD*%
D15*
%TO.C,D20*%
X236799550Y-143852900D03*
X240099550Y-143852900D03*
%TD*%
D13*
%TO.C,S3*%
X212364550Y-172907900D03*
X223914550Y-175107900D03*
%TD*%
D15*
%TO.C,D16*%
X217799550Y-160045400D03*
X221099550Y-160045400D03*
%TD*%
D13*
%TO.C,S17*%
X216174550Y-130045400D03*
X227724550Y-132245400D03*
%TD*%
D15*
%TO.C,D21*%
X236799550Y-124802900D03*
X240099550Y-124802900D03*
%TD*%
%TO.C,D19*%
X236799550Y-162902900D03*
X240099550Y-162902900D03*
%TD*%
D13*
%TO.C,S12*%
X178174550Y-110995400D03*
X189724550Y-113195400D03*
%TD*%
%TO.C,S9*%
X159174550Y-110995400D03*
X170724550Y-113195400D03*
%TD*%
D15*
%TO.C,D15*%
X198799550Y-117182900D03*
X202099550Y-117182900D03*
%TD*%
D13*
%TO.C,S6*%
X140174550Y-115757900D03*
X151724550Y-117957900D03*
%TD*%
%TO.C,S7*%
X170724550Y-151295400D03*
X159174550Y-149095400D03*
%TD*%
%TO.C,S14*%
X197174550Y-125282900D03*
X208724550Y-127482900D03*
%TD*%
D15*
%TO.C,D17*%
X217799550Y-140995400D03*
X221099550Y-140995400D03*
%TD*%
%TO.C,D8*%
X160799550Y-140995400D03*
X164099550Y-140995400D03*
%TD*%
D18*
%TO.C,D2*%
X233705669Y-185294125D03*
X236955535Y-185867163D03*
%TD*%
D13*
%TO.C,S13*%
X197174550Y-144332900D03*
X208724550Y-146532900D03*
%TD*%
%TO.C,S11*%
X178174550Y-130045400D03*
X189724550Y-132245400D03*
%TD*%
%TO.C,S4*%
X140174550Y-153857900D03*
X151724550Y-156057900D03*
%TD*%
D15*
%TO.C,D3*%
X213989550Y-183857900D03*
X217289550Y-183857900D03*
%TD*%
D13*
%TO.C,S21*%
X235174550Y-113852900D03*
X246724550Y-116052900D03*
%TD*%
%TO.C,S16*%
X216174550Y-149095400D03*
X227724550Y-151295400D03*
%TD*%
D15*
%TO.C,D6*%
X141799550Y-126707900D03*
X145099550Y-126707900D03*
%TD*%
D13*
%TO.C,S18*%
X216174550Y-110995400D03*
X227724550Y-113195400D03*
%TD*%
D15*
%TO.C,D9*%
X160799550Y-121945400D03*
X164099550Y-121945400D03*
%TD*%
D13*
%TO.C,S15*%
X197174550Y-106232900D03*
X208724550Y-108432900D03*
%TD*%
D15*
%TO.C,D18*%
X217799550Y-121945400D03*
X221099550Y-121945400D03*
%TD*%
%TO.C,D13*%
X198799550Y-155282900D03*
X202099550Y-155282900D03*
%TD*%
%TO.C,D14*%
X198799550Y-136232900D03*
X202099550Y-136232900D03*
%TD*%
D13*
%TO.C,S19*%
X235174550Y-151952900D03*
X246724550Y-154152900D03*
%TD*%
D15*
%TO.C,D7*%
X160799550Y-160045400D03*
X164099550Y-160045400D03*
%TD*%
M02*
