%TF.GenerationSoftware,KiCad,Pcbnew,7.0.9*%
%TF.CreationDate,2024-08-18T04:48:21-07:00*%
%TF.ProjectId,left,6c656674-2e6b-4696-9361-645f70636258,v1.0.0*%
%TF.SameCoordinates,Original*%
%TF.FileFunction,Legend,Bot*%
%TF.FilePolarity,Positive*%
%FSLAX46Y46*%
G04 Gerber Fmt 4.6, Leading zero omitted, Abs format (unit mm)*
G04 Created by KiCad (PCBNEW 7.0.9) date 2024-08-18 04:48:21*
%MOMM*%
%LPD*%
G01*
G04 APERTURE LIST*
%ADD10C,0.150000*%
%ADD11C,0.100000*%
%ADD12C,0.381000*%
%ADD13C,1.752600*%
G04 APERTURE END LIST*
D10*
X264520073Y-147563290D02*
X264596263Y-147525195D01*
X264596263Y-147525195D02*
X264710549Y-147525195D01*
X264710549Y-147525195D02*
X264824835Y-147563290D01*
X264824835Y-147563290D02*
X264901025Y-147639480D01*
X264901025Y-147639480D02*
X264939120Y-147715671D01*
X264939120Y-147715671D02*
X264977216Y-147868052D01*
X264977216Y-147868052D02*
X264977216Y-147982338D01*
X264977216Y-147982338D02*
X264939120Y-148134719D01*
X264939120Y-148134719D02*
X264901025Y-148210909D01*
X264901025Y-148210909D02*
X264824835Y-148287100D01*
X264824835Y-148287100D02*
X264710549Y-148325195D01*
X264710549Y-148325195D02*
X264634358Y-148325195D01*
X264634358Y-148325195D02*
X264520073Y-148287100D01*
X264520073Y-148287100D02*
X264481977Y-148249004D01*
X264481977Y-148249004D02*
X264481977Y-147982338D01*
X264481977Y-147982338D02*
X264634358Y-147982338D01*
X264139120Y-148325195D02*
X264139120Y-147525195D01*
X264139120Y-147525195D02*
X263681977Y-148325195D01*
X263681977Y-148325195D02*
X263681977Y-147525195D01*
X263301025Y-148325195D02*
X263301025Y-147525195D01*
X263301025Y-147525195D02*
X263110549Y-147525195D01*
X263110549Y-147525195D02*
X262996263Y-147563290D01*
X262996263Y-147563290D02*
X262920073Y-147639480D01*
X262920073Y-147639480D02*
X262881978Y-147715671D01*
X262881978Y-147715671D02*
X262843882Y-147868052D01*
X262843882Y-147868052D02*
X262843882Y-147982338D01*
X262843882Y-147982338D02*
X262881978Y-148134719D01*
X262881978Y-148134719D02*
X262920073Y-148210909D01*
X262920073Y-148210909D02*
X262996263Y-148287100D01*
X262996263Y-148287100D02*
X263110549Y-148325195D01*
X263110549Y-148325195D02*
X263301025Y-148325195D01*
X253712358Y-167845195D02*
X253636168Y-167845195D01*
X253636168Y-167845195D02*
X253559977Y-167883290D01*
X253559977Y-167883290D02*
X253521882Y-167921385D01*
X253521882Y-167921385D02*
X253483787Y-167997576D01*
X253483787Y-167997576D02*
X253445692Y-168149957D01*
X253445692Y-168149957D02*
X253445692Y-168340433D01*
X253445692Y-168340433D02*
X253483787Y-168492814D01*
X253483787Y-168492814D02*
X253521882Y-168569004D01*
X253521882Y-168569004D02*
X253559977Y-168607100D01*
X253559977Y-168607100D02*
X253636168Y-168645195D01*
X253636168Y-168645195D02*
X253712358Y-168645195D01*
X253712358Y-168645195D02*
X253788549Y-168607100D01*
X253788549Y-168607100D02*
X253826644Y-168569004D01*
X253826644Y-168569004D02*
X253864739Y-168492814D01*
X253864739Y-168492814D02*
X253902835Y-168340433D01*
X253902835Y-168340433D02*
X253902835Y-168149957D01*
X253902835Y-168149957D02*
X253864739Y-167997576D01*
X253864739Y-167997576D02*
X253826644Y-167921385D01*
X253826644Y-167921385D02*
X253788549Y-167883290D01*
X253788549Y-167883290D02*
X253712358Y-167845195D01*
X252683787Y-168645195D02*
X253140930Y-168645195D01*
X252912358Y-168645195D02*
X252912358Y-167845195D01*
X252912358Y-167845195D02*
X252988549Y-167959480D01*
X252988549Y-167959480D02*
X253064739Y-168035671D01*
X253064739Y-168035671D02*
X253140930Y-168073766D01*
X252188548Y-167845195D02*
X252112358Y-167845195D01*
X252112358Y-167845195D02*
X252036167Y-167883290D01*
X252036167Y-167883290D02*
X251998072Y-167921385D01*
X251998072Y-167921385D02*
X251959977Y-167997576D01*
X251959977Y-167997576D02*
X251921882Y-168149957D01*
X251921882Y-168149957D02*
X251921882Y-168340433D01*
X251921882Y-168340433D02*
X251959977Y-168492814D01*
X251959977Y-168492814D02*
X251998072Y-168569004D01*
X251998072Y-168569004D02*
X252036167Y-168607100D01*
X252036167Y-168607100D02*
X252112358Y-168645195D01*
X252112358Y-168645195D02*
X252188548Y-168645195D01*
X252188548Y-168645195D02*
X252264739Y-168607100D01*
X252264739Y-168607100D02*
X252302834Y-168569004D01*
X252302834Y-168569004D02*
X252340929Y-168492814D01*
X252340929Y-168492814D02*
X252379025Y-168340433D01*
X252379025Y-168340433D02*
X252379025Y-168149957D01*
X252379025Y-168149957D02*
X252340929Y-167997576D01*
X252340929Y-167997576D02*
X252302834Y-167921385D01*
X252302834Y-167921385D02*
X252264739Y-167883290D01*
X252264739Y-167883290D02*
X252188548Y-167845195D01*
X253445692Y-161025195D02*
X253902835Y-161025195D01*
X253674263Y-161025195D02*
X253674263Y-160225195D01*
X253674263Y-160225195D02*
X253750454Y-160339480D01*
X253750454Y-160339480D02*
X253826644Y-160415671D01*
X253826644Y-160415671D02*
X253902835Y-160453766D01*
X252683787Y-161025195D02*
X253140930Y-161025195D01*
X252912358Y-161025195D02*
X252912358Y-160225195D01*
X252912358Y-160225195D02*
X252988549Y-160339480D01*
X252988549Y-160339480D02*
X253064739Y-160415671D01*
X253064739Y-160415671D02*
X253140930Y-160453766D01*
X251959977Y-160225195D02*
X252340929Y-160225195D01*
X252340929Y-160225195D02*
X252379025Y-160606147D01*
X252379025Y-160606147D02*
X252340929Y-160568052D01*
X252340929Y-160568052D02*
X252264739Y-160529957D01*
X252264739Y-160529957D02*
X252074263Y-160529957D01*
X252074263Y-160529957D02*
X251998072Y-160568052D01*
X251998072Y-160568052D02*
X251959977Y-160606147D01*
X251959977Y-160606147D02*
X251921882Y-160682338D01*
X251921882Y-160682338D02*
X251921882Y-160872814D01*
X251921882Y-160872814D02*
X251959977Y-160949004D01*
X251959977Y-160949004D02*
X251998072Y-160987100D01*
X251998072Y-160987100D02*
X252074263Y-161025195D01*
X252074263Y-161025195D02*
X252264739Y-161025195D01*
X252264739Y-161025195D02*
X252340929Y-160987100D01*
X252340929Y-160987100D02*
X252379025Y-160949004D01*
X253604406Y-145023290D02*
X253680596Y-144985195D01*
X253680596Y-144985195D02*
X253794882Y-144985195D01*
X253794882Y-144985195D02*
X253909168Y-145023290D01*
X253909168Y-145023290D02*
X253985358Y-145099480D01*
X253985358Y-145099480D02*
X254023453Y-145175671D01*
X254023453Y-145175671D02*
X254061549Y-145328052D01*
X254061549Y-145328052D02*
X254061549Y-145442338D01*
X254061549Y-145442338D02*
X254023453Y-145594719D01*
X254023453Y-145594719D02*
X253985358Y-145670909D01*
X253985358Y-145670909D02*
X253909168Y-145747100D01*
X253909168Y-145747100D02*
X253794882Y-145785195D01*
X253794882Y-145785195D02*
X253718691Y-145785195D01*
X253718691Y-145785195D02*
X253604406Y-145747100D01*
X253604406Y-145747100D02*
X253566310Y-145709004D01*
X253566310Y-145709004D02*
X253566310Y-145442338D01*
X253566310Y-145442338D02*
X253718691Y-145442338D01*
X253223453Y-145785195D02*
X253223453Y-144985195D01*
X253223453Y-144985195D02*
X252766310Y-145785195D01*
X252766310Y-145785195D02*
X252766310Y-144985195D01*
X252385358Y-145785195D02*
X252385358Y-144985195D01*
X252385358Y-144985195D02*
X252194882Y-144985195D01*
X252194882Y-144985195D02*
X252080596Y-145023290D01*
X252080596Y-145023290D02*
X252004406Y-145099480D01*
X252004406Y-145099480D02*
X251966311Y-145175671D01*
X251966311Y-145175671D02*
X251928215Y-145328052D01*
X251928215Y-145328052D02*
X251928215Y-145442338D01*
X251928215Y-145442338D02*
X251966311Y-145594719D01*
X251966311Y-145594719D02*
X252004406Y-145670909D01*
X252004406Y-145670909D02*
X252080596Y-145747100D01*
X252080596Y-145747100D02*
X252194882Y-145785195D01*
X252194882Y-145785195D02*
X252385358Y-145785195D01*
X253979025Y-150065195D02*
X253712358Y-150865195D01*
X253712358Y-150865195D02*
X253445692Y-150065195D01*
X252721882Y-150789004D02*
X252759978Y-150827100D01*
X252759978Y-150827100D02*
X252874263Y-150865195D01*
X252874263Y-150865195D02*
X252950454Y-150865195D01*
X252950454Y-150865195D02*
X253064740Y-150827100D01*
X253064740Y-150827100D02*
X253140930Y-150750909D01*
X253140930Y-150750909D02*
X253179025Y-150674719D01*
X253179025Y-150674719D02*
X253217121Y-150522338D01*
X253217121Y-150522338D02*
X253217121Y-150408052D01*
X253217121Y-150408052D02*
X253179025Y-150255671D01*
X253179025Y-150255671D02*
X253140930Y-150179480D01*
X253140930Y-150179480D02*
X253064740Y-150103290D01*
X253064740Y-150103290D02*
X252950454Y-150065195D01*
X252950454Y-150065195D02*
X252874263Y-150065195D01*
X252874263Y-150065195D02*
X252759978Y-150103290D01*
X252759978Y-150103290D02*
X252721882Y-150141385D01*
X251921882Y-150789004D02*
X251959978Y-150827100D01*
X251959978Y-150827100D02*
X252074263Y-150865195D01*
X252074263Y-150865195D02*
X252150454Y-150865195D01*
X252150454Y-150865195D02*
X252264740Y-150827100D01*
X252264740Y-150827100D02*
X252340930Y-150750909D01*
X252340930Y-150750909D02*
X252379025Y-150674719D01*
X252379025Y-150674719D02*
X252417121Y-150522338D01*
X252417121Y-150522338D02*
X252417121Y-150408052D01*
X252417121Y-150408052D02*
X252379025Y-150255671D01*
X252379025Y-150255671D02*
X252340930Y-150179480D01*
X252340930Y-150179480D02*
X252264740Y-150103290D01*
X252264740Y-150103290D02*
X252150454Y-150065195D01*
X252150454Y-150065195D02*
X252074263Y-150065195D01*
X252074263Y-150065195D02*
X251959978Y-150103290D01*
X251959978Y-150103290D02*
X251921882Y-150141385D01*
X253712358Y-157685195D02*
X253636168Y-157685195D01*
X253636168Y-157685195D02*
X253559977Y-157723290D01*
X253559977Y-157723290D02*
X253521882Y-157761385D01*
X253521882Y-157761385D02*
X253483787Y-157837576D01*
X253483787Y-157837576D02*
X253445692Y-157989957D01*
X253445692Y-157989957D02*
X253445692Y-158180433D01*
X253445692Y-158180433D02*
X253483787Y-158332814D01*
X253483787Y-158332814D02*
X253521882Y-158409004D01*
X253521882Y-158409004D02*
X253559977Y-158447100D01*
X253559977Y-158447100D02*
X253636168Y-158485195D01*
X253636168Y-158485195D02*
X253712358Y-158485195D01*
X253712358Y-158485195D02*
X253788549Y-158447100D01*
X253788549Y-158447100D02*
X253826644Y-158409004D01*
X253826644Y-158409004D02*
X253864739Y-158332814D01*
X253864739Y-158332814D02*
X253902835Y-158180433D01*
X253902835Y-158180433D02*
X253902835Y-157989957D01*
X253902835Y-157989957D02*
X253864739Y-157837576D01*
X253864739Y-157837576D02*
X253826644Y-157761385D01*
X253826644Y-157761385D02*
X253788549Y-157723290D01*
X253788549Y-157723290D02*
X253712358Y-157685195D01*
X252950453Y-157685195D02*
X252874263Y-157685195D01*
X252874263Y-157685195D02*
X252798072Y-157723290D01*
X252798072Y-157723290D02*
X252759977Y-157761385D01*
X252759977Y-157761385D02*
X252721882Y-157837576D01*
X252721882Y-157837576D02*
X252683787Y-157989957D01*
X252683787Y-157989957D02*
X252683787Y-158180433D01*
X252683787Y-158180433D02*
X252721882Y-158332814D01*
X252721882Y-158332814D02*
X252759977Y-158409004D01*
X252759977Y-158409004D02*
X252798072Y-158447100D01*
X252798072Y-158447100D02*
X252874263Y-158485195D01*
X252874263Y-158485195D02*
X252950453Y-158485195D01*
X252950453Y-158485195D02*
X253026644Y-158447100D01*
X253026644Y-158447100D02*
X253064739Y-158409004D01*
X253064739Y-158409004D02*
X253102834Y-158332814D01*
X253102834Y-158332814D02*
X253140930Y-158180433D01*
X253140930Y-158180433D02*
X253140930Y-157989957D01*
X253140930Y-157989957D02*
X253102834Y-157837576D01*
X253102834Y-157837576D02*
X253064739Y-157761385D01*
X253064739Y-157761385D02*
X253026644Y-157723290D01*
X253026644Y-157723290D02*
X252950453Y-157685195D01*
X252379025Y-157761385D02*
X252340929Y-157723290D01*
X252340929Y-157723290D02*
X252264739Y-157685195D01*
X252264739Y-157685195D02*
X252074263Y-157685195D01*
X252074263Y-157685195D02*
X251998072Y-157723290D01*
X251998072Y-157723290D02*
X251959977Y-157761385D01*
X251959977Y-157761385D02*
X251921882Y-157837576D01*
X251921882Y-157837576D02*
X251921882Y-157913766D01*
X251921882Y-157913766D02*
X251959977Y-158028052D01*
X251959977Y-158028052D02*
X252417120Y-158485195D01*
X252417120Y-158485195D02*
X251921882Y-158485195D01*
X264786739Y-157715195D02*
X264710549Y-157715195D01*
X264710549Y-157715195D02*
X264634358Y-157753290D01*
X264634358Y-157753290D02*
X264596263Y-157791385D01*
X264596263Y-157791385D02*
X264558168Y-157867576D01*
X264558168Y-157867576D02*
X264520073Y-158019957D01*
X264520073Y-158019957D02*
X264520073Y-158210433D01*
X264520073Y-158210433D02*
X264558168Y-158362814D01*
X264558168Y-158362814D02*
X264596263Y-158439004D01*
X264596263Y-158439004D02*
X264634358Y-158477100D01*
X264634358Y-158477100D02*
X264710549Y-158515195D01*
X264710549Y-158515195D02*
X264786739Y-158515195D01*
X264786739Y-158515195D02*
X264862930Y-158477100D01*
X264862930Y-158477100D02*
X264901025Y-158439004D01*
X264901025Y-158439004D02*
X264939120Y-158362814D01*
X264939120Y-158362814D02*
X264977216Y-158210433D01*
X264977216Y-158210433D02*
X264977216Y-158019957D01*
X264977216Y-158019957D02*
X264939120Y-157867576D01*
X264939120Y-157867576D02*
X264901025Y-157791385D01*
X264901025Y-157791385D02*
X264862930Y-157753290D01*
X264862930Y-157753290D02*
X264786739Y-157715195D01*
X264215311Y-157791385D02*
X264177215Y-157753290D01*
X264177215Y-157753290D02*
X264101025Y-157715195D01*
X264101025Y-157715195D02*
X263910549Y-157715195D01*
X263910549Y-157715195D02*
X263834358Y-157753290D01*
X263834358Y-157753290D02*
X263796263Y-157791385D01*
X263796263Y-157791385D02*
X263758168Y-157867576D01*
X263758168Y-157867576D02*
X263758168Y-157943766D01*
X263758168Y-157943766D02*
X263796263Y-158058052D01*
X263796263Y-158058052D02*
X264253406Y-158515195D01*
X264253406Y-158515195D02*
X263758168Y-158515195D01*
X263453406Y-157791385D02*
X263415310Y-157753290D01*
X263415310Y-157753290D02*
X263339120Y-157715195D01*
X263339120Y-157715195D02*
X263148644Y-157715195D01*
X263148644Y-157715195D02*
X263072453Y-157753290D01*
X263072453Y-157753290D02*
X263034358Y-157791385D01*
X263034358Y-157791385D02*
X262996263Y-157867576D01*
X262996263Y-157867576D02*
X262996263Y-157943766D01*
X262996263Y-157943766D02*
X263034358Y-158058052D01*
X263034358Y-158058052D02*
X263491501Y-158515195D01*
X263491501Y-158515195D02*
X262996263Y-158515195D01*
X264786739Y-152615195D02*
X264710549Y-152615195D01*
X264710549Y-152615195D02*
X264634358Y-152653290D01*
X264634358Y-152653290D02*
X264596263Y-152691385D01*
X264596263Y-152691385D02*
X264558168Y-152767576D01*
X264558168Y-152767576D02*
X264520073Y-152919957D01*
X264520073Y-152919957D02*
X264520073Y-153110433D01*
X264520073Y-153110433D02*
X264558168Y-153262814D01*
X264558168Y-153262814D02*
X264596263Y-153339004D01*
X264596263Y-153339004D02*
X264634358Y-153377100D01*
X264634358Y-153377100D02*
X264710549Y-153415195D01*
X264710549Y-153415195D02*
X264786739Y-153415195D01*
X264786739Y-153415195D02*
X264862930Y-153377100D01*
X264862930Y-153377100D02*
X264901025Y-153339004D01*
X264901025Y-153339004D02*
X264939120Y-153262814D01*
X264939120Y-153262814D02*
X264977216Y-153110433D01*
X264977216Y-153110433D02*
X264977216Y-152919957D01*
X264977216Y-152919957D02*
X264939120Y-152767576D01*
X264939120Y-152767576D02*
X264901025Y-152691385D01*
X264901025Y-152691385D02*
X264862930Y-152653290D01*
X264862930Y-152653290D02*
X264786739Y-152615195D01*
X263758168Y-153415195D02*
X264215311Y-153415195D01*
X263986739Y-153415195D02*
X263986739Y-152615195D01*
X263986739Y-152615195D02*
X264062930Y-152729480D01*
X264062930Y-152729480D02*
X264139120Y-152805671D01*
X264139120Y-152805671D02*
X264215311Y-152843766D01*
X263491501Y-152615195D02*
X262958167Y-152615195D01*
X262958167Y-152615195D02*
X263301025Y-153415195D01*
X264520073Y-163565195D02*
X264977216Y-163565195D01*
X264748644Y-163565195D02*
X264748644Y-162765195D01*
X264748644Y-162765195D02*
X264824835Y-162879480D01*
X264824835Y-162879480D02*
X264901025Y-162955671D01*
X264901025Y-162955671D02*
X264977216Y-162993766D01*
X264024834Y-162765195D02*
X263948644Y-162765195D01*
X263948644Y-162765195D02*
X263872453Y-162803290D01*
X263872453Y-162803290D02*
X263834358Y-162841385D01*
X263834358Y-162841385D02*
X263796263Y-162917576D01*
X263796263Y-162917576D02*
X263758168Y-163069957D01*
X263758168Y-163069957D02*
X263758168Y-163260433D01*
X263758168Y-163260433D02*
X263796263Y-163412814D01*
X263796263Y-163412814D02*
X263834358Y-163489004D01*
X263834358Y-163489004D02*
X263872453Y-163527100D01*
X263872453Y-163527100D02*
X263948644Y-163565195D01*
X263948644Y-163565195D02*
X264024834Y-163565195D01*
X264024834Y-163565195D02*
X264101025Y-163527100D01*
X264101025Y-163527100D02*
X264139120Y-163489004D01*
X264139120Y-163489004D02*
X264177215Y-163412814D01*
X264177215Y-163412814D02*
X264215311Y-163260433D01*
X264215311Y-163260433D02*
X264215311Y-163069957D01*
X264215311Y-163069957D02*
X264177215Y-162917576D01*
X264177215Y-162917576D02*
X264139120Y-162841385D01*
X264139120Y-162841385D02*
X264101025Y-162803290D01*
X264101025Y-162803290D02*
X264024834Y-162765195D01*
X263262929Y-162765195D02*
X263186739Y-162765195D01*
X263186739Y-162765195D02*
X263110548Y-162803290D01*
X263110548Y-162803290D02*
X263072453Y-162841385D01*
X263072453Y-162841385D02*
X263034358Y-162917576D01*
X263034358Y-162917576D02*
X262996263Y-163069957D01*
X262996263Y-163069957D02*
X262996263Y-163260433D01*
X262996263Y-163260433D02*
X263034358Y-163412814D01*
X263034358Y-163412814D02*
X263072453Y-163489004D01*
X263072453Y-163489004D02*
X263110548Y-163527100D01*
X263110548Y-163527100D02*
X263186739Y-163565195D01*
X263186739Y-163565195D02*
X263262929Y-163565195D01*
X263262929Y-163565195D02*
X263339120Y-163527100D01*
X263339120Y-163527100D02*
X263377215Y-163489004D01*
X263377215Y-163489004D02*
X263415310Y-163412814D01*
X263415310Y-163412814D02*
X263453406Y-163260433D01*
X263453406Y-163260433D02*
X263453406Y-163069957D01*
X263453406Y-163069957D02*
X263415310Y-162917576D01*
X263415310Y-162917576D02*
X263377215Y-162841385D01*
X263377215Y-162841385D02*
X263339120Y-162803290D01*
X263339120Y-162803290D02*
X263262929Y-162765195D01*
X264786739Y-144915195D02*
X264710549Y-144915195D01*
X264710549Y-144915195D02*
X264634358Y-144953290D01*
X264634358Y-144953290D02*
X264596263Y-144991385D01*
X264596263Y-144991385D02*
X264558168Y-145067576D01*
X264558168Y-145067576D02*
X264520073Y-145219957D01*
X264520073Y-145219957D02*
X264520073Y-145410433D01*
X264520073Y-145410433D02*
X264558168Y-145562814D01*
X264558168Y-145562814D02*
X264596263Y-145639004D01*
X264596263Y-145639004D02*
X264634358Y-145677100D01*
X264634358Y-145677100D02*
X264710549Y-145715195D01*
X264710549Y-145715195D02*
X264786739Y-145715195D01*
X264786739Y-145715195D02*
X264862930Y-145677100D01*
X264862930Y-145677100D02*
X264901025Y-145639004D01*
X264901025Y-145639004D02*
X264939120Y-145562814D01*
X264939120Y-145562814D02*
X264977216Y-145410433D01*
X264977216Y-145410433D02*
X264977216Y-145219957D01*
X264977216Y-145219957D02*
X264939120Y-145067576D01*
X264939120Y-145067576D02*
X264901025Y-144991385D01*
X264901025Y-144991385D02*
X264862930Y-144953290D01*
X264862930Y-144953290D02*
X264786739Y-144915195D01*
X264024834Y-144915195D02*
X263948644Y-144915195D01*
X263948644Y-144915195D02*
X263872453Y-144953290D01*
X263872453Y-144953290D02*
X263834358Y-144991385D01*
X263834358Y-144991385D02*
X263796263Y-145067576D01*
X263796263Y-145067576D02*
X263758168Y-145219957D01*
X263758168Y-145219957D02*
X263758168Y-145410433D01*
X263758168Y-145410433D02*
X263796263Y-145562814D01*
X263796263Y-145562814D02*
X263834358Y-145639004D01*
X263834358Y-145639004D02*
X263872453Y-145677100D01*
X263872453Y-145677100D02*
X263948644Y-145715195D01*
X263948644Y-145715195D02*
X264024834Y-145715195D01*
X264024834Y-145715195D02*
X264101025Y-145677100D01*
X264101025Y-145677100D02*
X264139120Y-145639004D01*
X264139120Y-145639004D02*
X264177215Y-145562814D01*
X264177215Y-145562814D02*
X264215311Y-145410433D01*
X264215311Y-145410433D02*
X264215311Y-145219957D01*
X264215311Y-145219957D02*
X264177215Y-145067576D01*
X264177215Y-145067576D02*
X264139120Y-144991385D01*
X264139120Y-144991385D02*
X264101025Y-144953290D01*
X264101025Y-144953290D02*
X264024834Y-144915195D01*
X263301025Y-145258052D02*
X263377215Y-145219957D01*
X263377215Y-145219957D02*
X263415310Y-145181861D01*
X263415310Y-145181861D02*
X263453406Y-145105671D01*
X263453406Y-145105671D02*
X263453406Y-145067576D01*
X263453406Y-145067576D02*
X263415310Y-144991385D01*
X263415310Y-144991385D02*
X263377215Y-144953290D01*
X263377215Y-144953290D02*
X263301025Y-144915195D01*
X263301025Y-144915195D02*
X263148644Y-144915195D01*
X263148644Y-144915195D02*
X263072453Y-144953290D01*
X263072453Y-144953290D02*
X263034358Y-144991385D01*
X263034358Y-144991385D02*
X262996263Y-145067576D01*
X262996263Y-145067576D02*
X262996263Y-145105671D01*
X262996263Y-145105671D02*
X263034358Y-145181861D01*
X263034358Y-145181861D02*
X263072453Y-145219957D01*
X263072453Y-145219957D02*
X263148644Y-145258052D01*
X263148644Y-145258052D02*
X263301025Y-145258052D01*
X263301025Y-145258052D02*
X263377215Y-145296147D01*
X263377215Y-145296147D02*
X263415310Y-145334242D01*
X263415310Y-145334242D02*
X263453406Y-145410433D01*
X263453406Y-145410433D02*
X263453406Y-145562814D01*
X263453406Y-145562814D02*
X263415310Y-145639004D01*
X263415310Y-145639004D02*
X263377215Y-145677100D01*
X263377215Y-145677100D02*
X263301025Y-145715195D01*
X263301025Y-145715195D02*
X263148644Y-145715195D01*
X263148644Y-145715195D02*
X263072453Y-145677100D01*
X263072453Y-145677100D02*
X263034358Y-145639004D01*
X263034358Y-145639004D02*
X262996263Y-145562814D01*
X262996263Y-145562814D02*
X262996263Y-145410433D01*
X262996263Y-145410433D02*
X263034358Y-145334242D01*
X263034358Y-145334242D02*
X263072453Y-145296147D01*
X263072453Y-145296147D02*
X263148644Y-145258052D01*
X264786739Y-142445195D02*
X264710549Y-142445195D01*
X264710549Y-142445195D02*
X264634358Y-142483290D01*
X264634358Y-142483290D02*
X264596263Y-142521385D01*
X264596263Y-142521385D02*
X264558168Y-142597576D01*
X264558168Y-142597576D02*
X264520073Y-142749957D01*
X264520073Y-142749957D02*
X264520073Y-142940433D01*
X264520073Y-142940433D02*
X264558168Y-143092814D01*
X264558168Y-143092814D02*
X264596263Y-143169004D01*
X264596263Y-143169004D02*
X264634358Y-143207100D01*
X264634358Y-143207100D02*
X264710549Y-143245195D01*
X264710549Y-143245195D02*
X264786739Y-143245195D01*
X264786739Y-143245195D02*
X264862930Y-143207100D01*
X264862930Y-143207100D02*
X264901025Y-143169004D01*
X264901025Y-143169004D02*
X264939120Y-143092814D01*
X264939120Y-143092814D02*
X264977216Y-142940433D01*
X264977216Y-142940433D02*
X264977216Y-142749957D01*
X264977216Y-142749957D02*
X264939120Y-142597576D01*
X264939120Y-142597576D02*
X264901025Y-142521385D01*
X264901025Y-142521385D02*
X264862930Y-142483290D01*
X264862930Y-142483290D02*
X264786739Y-142445195D01*
X264024834Y-142445195D02*
X263948644Y-142445195D01*
X263948644Y-142445195D02*
X263872453Y-142483290D01*
X263872453Y-142483290D02*
X263834358Y-142521385D01*
X263834358Y-142521385D02*
X263796263Y-142597576D01*
X263796263Y-142597576D02*
X263758168Y-142749957D01*
X263758168Y-142749957D02*
X263758168Y-142940433D01*
X263758168Y-142940433D02*
X263796263Y-143092814D01*
X263796263Y-143092814D02*
X263834358Y-143169004D01*
X263834358Y-143169004D02*
X263872453Y-143207100D01*
X263872453Y-143207100D02*
X263948644Y-143245195D01*
X263948644Y-143245195D02*
X264024834Y-143245195D01*
X264024834Y-143245195D02*
X264101025Y-143207100D01*
X264101025Y-143207100D02*
X264139120Y-143169004D01*
X264139120Y-143169004D02*
X264177215Y-143092814D01*
X264177215Y-143092814D02*
X264215311Y-142940433D01*
X264215311Y-142940433D02*
X264215311Y-142749957D01*
X264215311Y-142749957D02*
X264177215Y-142597576D01*
X264177215Y-142597576D02*
X264139120Y-142521385D01*
X264139120Y-142521385D02*
X264101025Y-142483290D01*
X264101025Y-142483290D02*
X264024834Y-142445195D01*
X263072453Y-142445195D02*
X263224834Y-142445195D01*
X263224834Y-142445195D02*
X263301025Y-142483290D01*
X263301025Y-142483290D02*
X263339120Y-142521385D01*
X263339120Y-142521385D02*
X263415310Y-142635671D01*
X263415310Y-142635671D02*
X263453406Y-142788052D01*
X263453406Y-142788052D02*
X263453406Y-143092814D01*
X263453406Y-143092814D02*
X263415310Y-143169004D01*
X263415310Y-143169004D02*
X263377215Y-143207100D01*
X263377215Y-143207100D02*
X263301025Y-143245195D01*
X263301025Y-143245195D02*
X263148644Y-143245195D01*
X263148644Y-143245195D02*
X263072453Y-143207100D01*
X263072453Y-143207100D02*
X263034358Y-143169004D01*
X263034358Y-143169004D02*
X262996263Y-143092814D01*
X262996263Y-143092814D02*
X262996263Y-142902338D01*
X262996263Y-142902338D02*
X263034358Y-142826147D01*
X263034358Y-142826147D02*
X263072453Y-142788052D01*
X263072453Y-142788052D02*
X263148644Y-142749957D01*
X263148644Y-142749957D02*
X263301025Y-142749957D01*
X263301025Y-142749957D02*
X263377215Y-142788052D01*
X263377215Y-142788052D02*
X263415310Y-142826147D01*
X263415310Y-142826147D02*
X263453406Y-142902338D01*
X264786739Y-155215195D02*
X264710549Y-155215195D01*
X264710549Y-155215195D02*
X264634358Y-155253290D01*
X264634358Y-155253290D02*
X264596263Y-155291385D01*
X264596263Y-155291385D02*
X264558168Y-155367576D01*
X264558168Y-155367576D02*
X264520073Y-155519957D01*
X264520073Y-155519957D02*
X264520073Y-155710433D01*
X264520073Y-155710433D02*
X264558168Y-155862814D01*
X264558168Y-155862814D02*
X264596263Y-155939004D01*
X264596263Y-155939004D02*
X264634358Y-155977100D01*
X264634358Y-155977100D02*
X264710549Y-156015195D01*
X264710549Y-156015195D02*
X264786739Y-156015195D01*
X264786739Y-156015195D02*
X264862930Y-155977100D01*
X264862930Y-155977100D02*
X264901025Y-155939004D01*
X264901025Y-155939004D02*
X264939120Y-155862814D01*
X264939120Y-155862814D02*
X264977216Y-155710433D01*
X264977216Y-155710433D02*
X264977216Y-155519957D01*
X264977216Y-155519957D02*
X264939120Y-155367576D01*
X264939120Y-155367576D02*
X264901025Y-155291385D01*
X264901025Y-155291385D02*
X264862930Y-155253290D01*
X264862930Y-155253290D02*
X264786739Y-155215195D01*
X264215311Y-155291385D02*
X264177215Y-155253290D01*
X264177215Y-155253290D02*
X264101025Y-155215195D01*
X264101025Y-155215195D02*
X263910549Y-155215195D01*
X263910549Y-155215195D02*
X263834358Y-155253290D01*
X263834358Y-155253290D02*
X263796263Y-155291385D01*
X263796263Y-155291385D02*
X263758168Y-155367576D01*
X263758168Y-155367576D02*
X263758168Y-155443766D01*
X263758168Y-155443766D02*
X263796263Y-155558052D01*
X263796263Y-155558052D02*
X264253406Y-156015195D01*
X264253406Y-156015195D02*
X263758168Y-156015195D01*
X263262929Y-155215195D02*
X263186739Y-155215195D01*
X263186739Y-155215195D02*
X263110548Y-155253290D01*
X263110548Y-155253290D02*
X263072453Y-155291385D01*
X263072453Y-155291385D02*
X263034358Y-155367576D01*
X263034358Y-155367576D02*
X262996263Y-155519957D01*
X262996263Y-155519957D02*
X262996263Y-155710433D01*
X262996263Y-155710433D02*
X263034358Y-155862814D01*
X263034358Y-155862814D02*
X263072453Y-155939004D01*
X263072453Y-155939004D02*
X263110548Y-155977100D01*
X263110548Y-155977100D02*
X263186739Y-156015195D01*
X263186739Y-156015195D02*
X263262929Y-156015195D01*
X263262929Y-156015195D02*
X263339120Y-155977100D01*
X263339120Y-155977100D02*
X263377215Y-155939004D01*
X263377215Y-155939004D02*
X263415310Y-155862814D01*
X263415310Y-155862814D02*
X263453406Y-155710433D01*
X263453406Y-155710433D02*
X263453406Y-155519957D01*
X263453406Y-155519957D02*
X263415310Y-155367576D01*
X263415310Y-155367576D02*
X263377215Y-155291385D01*
X263377215Y-155291385D02*
X263339120Y-155253290D01*
X263339120Y-155253290D02*
X263262929Y-155215195D01*
X253299644Y-148325195D02*
X253566311Y-147944242D01*
X253756787Y-148325195D02*
X253756787Y-147525195D01*
X253756787Y-147525195D02*
X253452025Y-147525195D01*
X253452025Y-147525195D02*
X253375835Y-147563290D01*
X253375835Y-147563290D02*
X253337740Y-147601385D01*
X253337740Y-147601385D02*
X253299644Y-147677576D01*
X253299644Y-147677576D02*
X253299644Y-147791861D01*
X253299644Y-147791861D02*
X253337740Y-147868052D01*
X253337740Y-147868052D02*
X253375835Y-147906147D01*
X253375835Y-147906147D02*
X253452025Y-147944242D01*
X253452025Y-147944242D02*
X253756787Y-147944242D01*
X252994883Y-148287100D02*
X252880597Y-148325195D01*
X252880597Y-148325195D02*
X252690121Y-148325195D01*
X252690121Y-148325195D02*
X252613930Y-148287100D01*
X252613930Y-148287100D02*
X252575835Y-148249004D01*
X252575835Y-148249004D02*
X252537740Y-148172814D01*
X252537740Y-148172814D02*
X252537740Y-148096623D01*
X252537740Y-148096623D02*
X252575835Y-148020433D01*
X252575835Y-148020433D02*
X252613930Y-147982338D01*
X252613930Y-147982338D02*
X252690121Y-147944242D01*
X252690121Y-147944242D02*
X252842502Y-147906147D01*
X252842502Y-147906147D02*
X252918692Y-147868052D01*
X252918692Y-147868052D02*
X252956787Y-147829957D01*
X252956787Y-147829957D02*
X252994883Y-147753766D01*
X252994883Y-147753766D02*
X252994883Y-147677576D01*
X252994883Y-147677576D02*
X252956787Y-147601385D01*
X252956787Y-147601385D02*
X252918692Y-147563290D01*
X252918692Y-147563290D02*
X252842502Y-147525195D01*
X252842502Y-147525195D02*
X252652025Y-147525195D01*
X252652025Y-147525195D02*
X252537740Y-147563290D01*
X252309168Y-147525195D02*
X251852025Y-147525195D01*
X252080597Y-148325195D02*
X252080597Y-147525195D01*
X253445692Y-166105195D02*
X253902835Y-166105195D01*
X253674263Y-166105195D02*
X253674263Y-165305195D01*
X253674263Y-165305195D02*
X253750454Y-165419480D01*
X253750454Y-165419480D02*
X253826644Y-165495671D01*
X253826644Y-165495671D02*
X253902835Y-165533766D01*
X252683787Y-166105195D02*
X253140930Y-166105195D01*
X252912358Y-166105195D02*
X252912358Y-165305195D01*
X252912358Y-165305195D02*
X252988549Y-165419480D01*
X252988549Y-165419480D02*
X253064739Y-165495671D01*
X253064739Y-165495671D02*
X253140930Y-165533766D01*
X251921882Y-166105195D02*
X252379025Y-166105195D01*
X252150453Y-166105195D02*
X252150453Y-165305195D01*
X252150453Y-165305195D02*
X252226644Y-165419480D01*
X252226644Y-165419480D02*
X252302834Y-165495671D01*
X252302834Y-165495671D02*
X252379025Y-165533766D01*
X253712358Y-152605195D02*
X253636168Y-152605195D01*
X253636168Y-152605195D02*
X253559977Y-152643290D01*
X253559977Y-152643290D02*
X253521882Y-152681385D01*
X253521882Y-152681385D02*
X253483787Y-152757576D01*
X253483787Y-152757576D02*
X253445692Y-152909957D01*
X253445692Y-152909957D02*
X253445692Y-153100433D01*
X253445692Y-153100433D02*
X253483787Y-153252814D01*
X253483787Y-153252814D02*
X253521882Y-153329004D01*
X253521882Y-153329004D02*
X253559977Y-153367100D01*
X253559977Y-153367100D02*
X253636168Y-153405195D01*
X253636168Y-153405195D02*
X253712358Y-153405195D01*
X253712358Y-153405195D02*
X253788549Y-153367100D01*
X253788549Y-153367100D02*
X253826644Y-153329004D01*
X253826644Y-153329004D02*
X253864739Y-153252814D01*
X253864739Y-153252814D02*
X253902835Y-153100433D01*
X253902835Y-153100433D02*
X253902835Y-152909957D01*
X253902835Y-152909957D02*
X253864739Y-152757576D01*
X253864739Y-152757576D02*
X253826644Y-152681385D01*
X253826644Y-152681385D02*
X253788549Y-152643290D01*
X253788549Y-152643290D02*
X253712358Y-152605195D01*
X253179025Y-152605195D02*
X252683787Y-152605195D01*
X252683787Y-152605195D02*
X252950453Y-152909957D01*
X252950453Y-152909957D02*
X252836168Y-152909957D01*
X252836168Y-152909957D02*
X252759977Y-152948052D01*
X252759977Y-152948052D02*
X252721882Y-152986147D01*
X252721882Y-152986147D02*
X252683787Y-153062338D01*
X252683787Y-153062338D02*
X252683787Y-153252814D01*
X252683787Y-153252814D02*
X252721882Y-153329004D01*
X252721882Y-153329004D02*
X252759977Y-153367100D01*
X252759977Y-153367100D02*
X252836168Y-153405195D01*
X252836168Y-153405195D02*
X253064739Y-153405195D01*
X253064739Y-153405195D02*
X253140930Y-153367100D01*
X253140930Y-153367100D02*
X253179025Y-153329004D01*
X251921882Y-153405195D02*
X252379025Y-153405195D01*
X252150453Y-153405195D02*
X252150453Y-152605195D01*
X252150453Y-152605195D02*
X252226644Y-152719480D01*
X252226644Y-152719480D02*
X252302834Y-152795671D01*
X252302834Y-152795671D02*
X252379025Y-152833766D01*
X264520073Y-168645195D02*
X264977216Y-168645195D01*
X264748644Y-168645195D02*
X264748644Y-167845195D01*
X264748644Y-167845195D02*
X264824835Y-167959480D01*
X264824835Y-167959480D02*
X264901025Y-168035671D01*
X264901025Y-168035671D02*
X264977216Y-168073766D01*
X264024834Y-167845195D02*
X263948644Y-167845195D01*
X263948644Y-167845195D02*
X263872453Y-167883290D01*
X263872453Y-167883290D02*
X263834358Y-167921385D01*
X263834358Y-167921385D02*
X263796263Y-167997576D01*
X263796263Y-167997576D02*
X263758168Y-168149957D01*
X263758168Y-168149957D02*
X263758168Y-168340433D01*
X263758168Y-168340433D02*
X263796263Y-168492814D01*
X263796263Y-168492814D02*
X263834358Y-168569004D01*
X263834358Y-168569004D02*
X263872453Y-168607100D01*
X263872453Y-168607100D02*
X263948644Y-168645195D01*
X263948644Y-168645195D02*
X264024834Y-168645195D01*
X264024834Y-168645195D02*
X264101025Y-168607100D01*
X264101025Y-168607100D02*
X264139120Y-168569004D01*
X264139120Y-168569004D02*
X264177215Y-168492814D01*
X264177215Y-168492814D02*
X264215311Y-168340433D01*
X264215311Y-168340433D02*
X264215311Y-168149957D01*
X264215311Y-168149957D02*
X264177215Y-167997576D01*
X264177215Y-167997576D02*
X264139120Y-167921385D01*
X264139120Y-167921385D02*
X264101025Y-167883290D01*
X264101025Y-167883290D02*
X264024834Y-167845195D01*
X263072453Y-168111861D02*
X263072453Y-168645195D01*
X263262929Y-167807100D02*
X263453406Y-168378528D01*
X263453406Y-168378528D02*
X262958167Y-168378528D01*
X264520073Y-150103290D02*
X264596263Y-150065195D01*
X264596263Y-150065195D02*
X264710549Y-150065195D01*
X264710549Y-150065195D02*
X264824835Y-150103290D01*
X264824835Y-150103290D02*
X264901025Y-150179480D01*
X264901025Y-150179480D02*
X264939120Y-150255671D01*
X264939120Y-150255671D02*
X264977216Y-150408052D01*
X264977216Y-150408052D02*
X264977216Y-150522338D01*
X264977216Y-150522338D02*
X264939120Y-150674719D01*
X264939120Y-150674719D02*
X264901025Y-150750909D01*
X264901025Y-150750909D02*
X264824835Y-150827100D01*
X264824835Y-150827100D02*
X264710549Y-150865195D01*
X264710549Y-150865195D02*
X264634358Y-150865195D01*
X264634358Y-150865195D02*
X264520073Y-150827100D01*
X264520073Y-150827100D02*
X264481977Y-150789004D01*
X264481977Y-150789004D02*
X264481977Y-150522338D01*
X264481977Y-150522338D02*
X264634358Y-150522338D01*
X264139120Y-150865195D02*
X264139120Y-150065195D01*
X264139120Y-150065195D02*
X263681977Y-150865195D01*
X263681977Y-150865195D02*
X263681977Y-150065195D01*
X263301025Y-150865195D02*
X263301025Y-150065195D01*
X263301025Y-150065195D02*
X263110549Y-150065195D01*
X263110549Y-150065195D02*
X262996263Y-150103290D01*
X262996263Y-150103290D02*
X262920073Y-150179480D01*
X262920073Y-150179480D02*
X262881978Y-150255671D01*
X262881978Y-150255671D02*
X262843882Y-150408052D01*
X262843882Y-150408052D02*
X262843882Y-150522338D01*
X262843882Y-150522338D02*
X262881978Y-150674719D01*
X262881978Y-150674719D02*
X262920073Y-150750909D01*
X262920073Y-150750909D02*
X262996263Y-150827100D01*
X262996263Y-150827100D02*
X263110549Y-150865195D01*
X263110549Y-150865195D02*
X263301025Y-150865195D01*
X264786739Y-160225195D02*
X264710549Y-160225195D01*
X264710549Y-160225195D02*
X264634358Y-160263290D01*
X264634358Y-160263290D02*
X264596263Y-160301385D01*
X264596263Y-160301385D02*
X264558168Y-160377576D01*
X264558168Y-160377576D02*
X264520073Y-160529957D01*
X264520073Y-160529957D02*
X264520073Y-160720433D01*
X264520073Y-160720433D02*
X264558168Y-160872814D01*
X264558168Y-160872814D02*
X264596263Y-160949004D01*
X264596263Y-160949004D02*
X264634358Y-160987100D01*
X264634358Y-160987100D02*
X264710549Y-161025195D01*
X264710549Y-161025195D02*
X264786739Y-161025195D01*
X264786739Y-161025195D02*
X264862930Y-160987100D01*
X264862930Y-160987100D02*
X264901025Y-160949004D01*
X264901025Y-160949004D02*
X264939120Y-160872814D01*
X264939120Y-160872814D02*
X264977216Y-160720433D01*
X264977216Y-160720433D02*
X264977216Y-160529957D01*
X264977216Y-160529957D02*
X264939120Y-160377576D01*
X264939120Y-160377576D02*
X264901025Y-160301385D01*
X264901025Y-160301385D02*
X264862930Y-160263290D01*
X264862930Y-160263290D02*
X264786739Y-160225195D01*
X264215311Y-160301385D02*
X264177215Y-160263290D01*
X264177215Y-160263290D02*
X264101025Y-160225195D01*
X264101025Y-160225195D02*
X263910549Y-160225195D01*
X263910549Y-160225195D02*
X263834358Y-160263290D01*
X263834358Y-160263290D02*
X263796263Y-160301385D01*
X263796263Y-160301385D02*
X263758168Y-160377576D01*
X263758168Y-160377576D02*
X263758168Y-160453766D01*
X263758168Y-160453766D02*
X263796263Y-160568052D01*
X263796263Y-160568052D02*
X264253406Y-161025195D01*
X264253406Y-161025195D02*
X263758168Y-161025195D01*
X263072453Y-160491861D02*
X263072453Y-161025195D01*
X263262929Y-160187100D02*
X263453406Y-160758528D01*
X263453406Y-160758528D02*
X262958167Y-160758528D01*
X253528215Y-143245195D02*
X253794882Y-142864242D01*
X253985358Y-143245195D02*
X253985358Y-142445195D01*
X253985358Y-142445195D02*
X253680596Y-142445195D01*
X253680596Y-142445195D02*
X253604406Y-142483290D01*
X253604406Y-142483290D02*
X253566311Y-142521385D01*
X253566311Y-142521385D02*
X253528215Y-142597576D01*
X253528215Y-142597576D02*
X253528215Y-142711861D01*
X253528215Y-142711861D02*
X253566311Y-142788052D01*
X253566311Y-142788052D02*
X253604406Y-142826147D01*
X253604406Y-142826147D02*
X253680596Y-142864242D01*
X253680596Y-142864242D02*
X253985358Y-142864242D01*
X253223454Y-143016623D02*
X252842501Y-143016623D01*
X253299644Y-143245195D02*
X253032977Y-142445195D01*
X253032977Y-142445195D02*
X252766311Y-143245195D01*
X252575835Y-142445195D02*
X252385359Y-143245195D01*
X252385359Y-143245195D02*
X252232978Y-142673766D01*
X252232978Y-142673766D02*
X252080597Y-143245195D01*
X252080597Y-143245195D02*
X251890121Y-142445195D01*
X253445692Y-163565195D02*
X253902835Y-163565195D01*
X253674263Y-163565195D02*
X253674263Y-162765195D01*
X253674263Y-162765195D02*
X253750454Y-162879480D01*
X253750454Y-162879480D02*
X253826644Y-162955671D01*
X253826644Y-162955671D02*
X253902835Y-162993766D01*
X252683787Y-163565195D02*
X253140930Y-163565195D01*
X252912358Y-163565195D02*
X252912358Y-162765195D01*
X252912358Y-162765195D02*
X252988549Y-162879480D01*
X252988549Y-162879480D02*
X253064739Y-162955671D01*
X253064739Y-162955671D02*
X253140930Y-162993766D01*
X252417120Y-162765195D02*
X251921882Y-162765195D01*
X251921882Y-162765195D02*
X252188548Y-163069957D01*
X252188548Y-163069957D02*
X252074263Y-163069957D01*
X252074263Y-163069957D02*
X251998072Y-163108052D01*
X251998072Y-163108052D02*
X251959977Y-163146147D01*
X251959977Y-163146147D02*
X251921882Y-163222338D01*
X251921882Y-163222338D02*
X251921882Y-163412814D01*
X251921882Y-163412814D02*
X251959977Y-163489004D01*
X251959977Y-163489004D02*
X251998072Y-163527100D01*
X251998072Y-163527100D02*
X252074263Y-163565195D01*
X252074263Y-163565195D02*
X252302834Y-163565195D01*
X252302834Y-163565195D02*
X252379025Y-163527100D01*
X252379025Y-163527100D02*
X252417120Y-163489004D01*
X253712358Y-155145195D02*
X253636168Y-155145195D01*
X253636168Y-155145195D02*
X253559977Y-155183290D01*
X253559977Y-155183290D02*
X253521882Y-155221385D01*
X253521882Y-155221385D02*
X253483787Y-155297576D01*
X253483787Y-155297576D02*
X253445692Y-155449957D01*
X253445692Y-155449957D02*
X253445692Y-155640433D01*
X253445692Y-155640433D02*
X253483787Y-155792814D01*
X253483787Y-155792814D02*
X253521882Y-155869004D01*
X253521882Y-155869004D02*
X253559977Y-155907100D01*
X253559977Y-155907100D02*
X253636168Y-155945195D01*
X253636168Y-155945195D02*
X253712358Y-155945195D01*
X253712358Y-155945195D02*
X253788549Y-155907100D01*
X253788549Y-155907100D02*
X253826644Y-155869004D01*
X253826644Y-155869004D02*
X253864739Y-155792814D01*
X253864739Y-155792814D02*
X253902835Y-155640433D01*
X253902835Y-155640433D02*
X253902835Y-155449957D01*
X253902835Y-155449957D02*
X253864739Y-155297576D01*
X253864739Y-155297576D02*
X253826644Y-155221385D01*
X253826644Y-155221385D02*
X253788549Y-155183290D01*
X253788549Y-155183290D02*
X253712358Y-155145195D01*
X253140930Y-155221385D02*
X253102834Y-155183290D01*
X253102834Y-155183290D02*
X253026644Y-155145195D01*
X253026644Y-155145195D02*
X252836168Y-155145195D01*
X252836168Y-155145195D02*
X252759977Y-155183290D01*
X252759977Y-155183290D02*
X252721882Y-155221385D01*
X252721882Y-155221385D02*
X252683787Y-155297576D01*
X252683787Y-155297576D02*
X252683787Y-155373766D01*
X252683787Y-155373766D02*
X252721882Y-155488052D01*
X252721882Y-155488052D02*
X253179025Y-155945195D01*
X253179025Y-155945195D02*
X252683787Y-155945195D01*
X252302834Y-155945195D02*
X252150453Y-155945195D01*
X252150453Y-155945195D02*
X252074263Y-155907100D01*
X252074263Y-155907100D02*
X252036167Y-155869004D01*
X252036167Y-155869004D02*
X251959977Y-155754719D01*
X251959977Y-155754719D02*
X251921882Y-155602338D01*
X251921882Y-155602338D02*
X251921882Y-155297576D01*
X251921882Y-155297576D02*
X251959977Y-155221385D01*
X251959977Y-155221385D02*
X251998072Y-155183290D01*
X251998072Y-155183290D02*
X252074263Y-155145195D01*
X252074263Y-155145195D02*
X252226644Y-155145195D01*
X252226644Y-155145195D02*
X252302834Y-155183290D01*
X252302834Y-155183290D02*
X252340929Y-155221385D01*
X252340929Y-155221385D02*
X252379025Y-155297576D01*
X252379025Y-155297576D02*
X252379025Y-155488052D01*
X252379025Y-155488052D02*
X252340929Y-155564242D01*
X252340929Y-155564242D02*
X252302834Y-155602338D01*
X252302834Y-155602338D02*
X252226644Y-155640433D01*
X252226644Y-155640433D02*
X252074263Y-155640433D01*
X252074263Y-155640433D02*
X251998072Y-155602338D01*
X251998072Y-155602338D02*
X251959977Y-155564242D01*
X251959977Y-155564242D02*
X251921882Y-155488052D01*
%TO.C,T1*%
X269949550Y-166152900D02*
X272799550Y-166152900D01*
X272799550Y-164802900D02*
X272799550Y-160902900D01*
X272799550Y-162852900D02*
X272799550Y-166152900D01*
X272799550Y-162852900D02*
X272799550Y-159552900D01*
X269949550Y-159552900D02*
X269949550Y-166152900D01*
X272799550Y-159552900D02*
X269949550Y-159552900D01*
%TO.C,B1*%
X271699550Y-148102900D02*
X269199550Y-148102900D01*
X271699550Y-148102900D02*
X273199550Y-149602900D01*
X269199550Y-148102900D02*
X267699550Y-149602900D01*
X273199550Y-149602900D02*
X273199550Y-152102900D01*
X267699550Y-149602900D02*
X267699550Y-152102900D01*
X271699550Y-153602900D02*
X273199550Y-152102900D01*
X271699550Y-153602900D02*
X269199550Y-153602900D01*
X269199550Y-153602900D02*
X267699550Y-152102900D01*
D11*
%TO.C,D5*%
X142699550Y-145757900D02*
X143099550Y-145757900D01*
X143099550Y-145757900D02*
X143099550Y-145207900D01*
X143099550Y-145757900D02*
X143099550Y-146307900D01*
X143099550Y-145757900D02*
X143699550Y-145357900D01*
X143699550Y-145357900D02*
X143699550Y-146157900D01*
X143699550Y-145757900D02*
X144199550Y-145757900D01*
X143699550Y-146157900D02*
X143099550Y-145757900D01*
%TO.C,D1*%
X253790336Y-191298330D02*
X254152859Y-191467378D01*
X254152859Y-191467378D02*
X254385299Y-190968908D01*
X254152859Y-191467378D02*
X253920419Y-191965847D01*
X254152859Y-191467378D02*
X254865691Y-191358425D01*
X254865691Y-191358425D02*
X254527597Y-192083472D01*
X254696644Y-191720949D02*
X255149798Y-191932258D01*
X254527597Y-192083472D02*
X254152859Y-191467378D01*
%TO.C,D11*%
X180699550Y-140995400D02*
X181099550Y-140995400D01*
X181099550Y-140995400D02*
X181099550Y-140445400D01*
X181099550Y-140995400D02*
X181099550Y-141545400D01*
X181099550Y-140995400D02*
X181699550Y-140595400D01*
X181699550Y-140595400D02*
X181699550Y-141395400D01*
X181699550Y-140995400D02*
X182199550Y-140995400D01*
X181699550Y-141395400D02*
X181099550Y-140995400D01*
D10*
%TO.C,JST1*%
X206799550Y-118282900D02*
X199199550Y-118282900D01*
X199199550Y-118282900D02*
X199199550Y-124182900D01*
X206799550Y-118982900D02*
X206799550Y-118282900D01*
X205199550Y-118982900D02*
X206799550Y-118982900D01*
X203699550Y-119982900D02*
X203699550Y-120482900D01*
X203949550Y-120232900D02*
X203449550Y-120232900D01*
X206799550Y-123482900D02*
X205199550Y-123482900D01*
X205199550Y-123482900D02*
X205199550Y-118982900D01*
X206799550Y-124182900D02*
X206799550Y-123482900D01*
X199199550Y-124182900D02*
X206799550Y-124182900D01*
D11*
%TO.C,D10*%
X180699550Y-160045400D02*
X181099550Y-160045400D01*
X181099550Y-160045400D02*
X181099550Y-159495400D01*
X181099550Y-160045400D02*
X181099550Y-160595400D01*
X181099550Y-160045400D02*
X181699550Y-159645400D01*
X181699550Y-159645400D02*
X181699550Y-160445400D01*
X181699550Y-160045400D02*
X182199550Y-160045400D01*
X181699550Y-160445400D02*
X181099550Y-160045400D01*
%TO.C,D4*%
X142699550Y-164807900D02*
X143099550Y-164807900D01*
X143099550Y-164807900D02*
X143099550Y-164257900D01*
X143099550Y-164807900D02*
X143099550Y-165357900D01*
X143099550Y-164807900D02*
X143699550Y-164407900D01*
X143699550Y-164407900D02*
X143699550Y-165207900D01*
X143699550Y-164807900D02*
X144199550Y-164807900D01*
X143699550Y-165207900D02*
X143099550Y-164807900D01*
%TO.C,D12*%
X180699550Y-121945400D02*
X181099550Y-121945400D01*
X181099550Y-121945400D02*
X181099550Y-121395400D01*
X181099550Y-121945400D02*
X181099550Y-122495400D01*
X181099550Y-121945400D02*
X181699550Y-121545400D01*
X181699550Y-121545400D02*
X181699550Y-122345400D01*
X181699550Y-121945400D02*
X182199550Y-121945400D01*
X181699550Y-122345400D02*
X181099550Y-121945400D01*
%TO.C,D20*%
X237699550Y-143852900D02*
X238099550Y-143852900D01*
X238099550Y-143852900D02*
X238099550Y-143302900D01*
X238099550Y-143852900D02*
X238099550Y-144402900D01*
X238099550Y-143852900D02*
X238699550Y-143452900D01*
X238699550Y-143452900D02*
X238699550Y-144252900D01*
X238699550Y-143852900D02*
X239199550Y-143852900D01*
X238699550Y-144252900D02*
X238099550Y-143852900D01*
%TO.C,D16*%
X218699550Y-160045400D02*
X219099550Y-160045400D01*
X219099550Y-160045400D02*
X219099550Y-159495400D01*
X219099550Y-160045400D02*
X219099550Y-160595400D01*
X219099550Y-160045400D02*
X219699550Y-159645400D01*
X219699550Y-159645400D02*
X219699550Y-160445400D01*
X219699550Y-160045400D02*
X220199550Y-160045400D01*
X219699550Y-160445400D02*
X219099550Y-160045400D01*
%TO.C,D21*%
X237699550Y-124802900D02*
X238099550Y-124802900D01*
X238099550Y-124802900D02*
X238099550Y-124252900D01*
X238099550Y-124802900D02*
X238099550Y-125352900D01*
X238099550Y-124802900D02*
X238699550Y-124402900D01*
X238699550Y-124402900D02*
X238699550Y-125202900D01*
X238699550Y-124802900D02*
X239199550Y-124802900D01*
X238699550Y-125202900D02*
X238099550Y-124802900D01*
%TO.C,D19*%
X237699550Y-162902900D02*
X238099550Y-162902900D01*
X238099550Y-162902900D02*
X238099550Y-162352900D01*
X238099550Y-162902900D02*
X238099550Y-163452900D01*
X238099550Y-162902900D02*
X238699550Y-162502900D01*
X238699550Y-162502900D02*
X238699550Y-163302900D01*
X238699550Y-162902900D02*
X239199550Y-162902900D01*
X238699550Y-163302900D02*
X238099550Y-162902900D01*
%TO.C,D15*%
X199699550Y-117182900D02*
X200099550Y-117182900D01*
X200099550Y-117182900D02*
X200099550Y-116632900D01*
X200099550Y-117182900D02*
X200099550Y-117732900D01*
X200099550Y-117182900D02*
X200699550Y-116782900D01*
X200699550Y-116782900D02*
X200699550Y-117582900D01*
X200699550Y-117182900D02*
X201199550Y-117182900D01*
X200699550Y-117582900D02*
X200099550Y-117182900D01*
%TO.C,D17*%
X218699550Y-140995400D02*
X219099550Y-140995400D01*
X219099550Y-140995400D02*
X219099550Y-140445400D01*
X219099550Y-140995400D02*
X219099550Y-141545400D01*
X219099550Y-140995400D02*
X219699550Y-140595400D01*
X219699550Y-140595400D02*
X219699550Y-141395400D01*
X219699550Y-140995400D02*
X220199550Y-140995400D01*
X219699550Y-141395400D02*
X219099550Y-140995400D01*
%TO.C,D8*%
X161699550Y-140995400D02*
X162099550Y-140995400D01*
X162099550Y-140995400D02*
X162099550Y-140445400D01*
X162099550Y-140995400D02*
X162099550Y-141545400D01*
X162099550Y-140995400D02*
X162699550Y-140595400D01*
X162699550Y-140595400D02*
X162699550Y-141395400D01*
X162699550Y-140995400D02*
X163199550Y-140995400D01*
X162699550Y-141395400D02*
X162099550Y-140995400D01*
%TO.C,D2*%
X234591996Y-185450408D02*
X234985919Y-185519867D01*
X234985919Y-185519867D02*
X235081426Y-184978223D01*
X234985919Y-185519867D02*
X234890413Y-186061511D01*
X234985919Y-185519867D02*
X235646263Y-185230133D01*
X235646263Y-185230133D02*
X235507345Y-186017979D01*
X235576804Y-185624056D02*
X236069208Y-185710880D01*
X235507345Y-186017979D02*
X234985919Y-185519867D01*
%TO.C,D3*%
X214889550Y-183857900D02*
X215289550Y-183857900D01*
X215289550Y-183857900D02*
X215289550Y-183307900D01*
X215289550Y-183857900D02*
X215289550Y-184407900D01*
X215289550Y-183857900D02*
X215889550Y-183457900D01*
X215889550Y-183457900D02*
X215889550Y-184257900D01*
X215889550Y-183857900D02*
X216389550Y-183857900D01*
X215889550Y-184257900D02*
X215289550Y-183857900D01*
%TO.C,D6*%
X142699550Y-126707900D02*
X143099550Y-126707900D01*
X143099550Y-126707900D02*
X143099550Y-126157900D01*
X143099550Y-126707900D02*
X143099550Y-127257900D01*
X143099550Y-126707900D02*
X143699550Y-126307900D01*
X143699550Y-126307900D02*
X143699550Y-127107900D01*
X143699550Y-126707900D02*
X144199550Y-126707900D01*
X143699550Y-127107900D02*
X143099550Y-126707900D01*
D12*
%TO.C,MCU1*%
X249559550Y-172092900D02*
X267339550Y-172092900D01*
X267339550Y-172092900D02*
X267339550Y-139072900D01*
X249559550Y-139072900D02*
X249559550Y-172092900D01*
X267339550Y-139072900D02*
X249559550Y-139072900D01*
D11*
%TO.C,D9*%
X161699550Y-121945400D02*
X162099550Y-121945400D01*
X162099550Y-121945400D02*
X162099550Y-121395400D01*
X162099550Y-121945400D02*
X162099550Y-122495400D01*
X162099550Y-121945400D02*
X162699550Y-121545400D01*
X162699550Y-121545400D02*
X162699550Y-122345400D01*
X162699550Y-121945400D02*
X163199550Y-121945400D01*
X162699550Y-122345400D02*
X162099550Y-121945400D01*
%TO.C,D18*%
X218699550Y-121945400D02*
X219099550Y-121945400D01*
X219099550Y-121945400D02*
X219099550Y-121395400D01*
X219099550Y-121945400D02*
X219099550Y-122495400D01*
X219099550Y-121945400D02*
X219699550Y-121545400D01*
X219699550Y-121545400D02*
X219699550Y-122345400D01*
X219699550Y-121945400D02*
X220199550Y-121945400D01*
X219699550Y-122345400D02*
X219099550Y-121945400D01*
%TO.C,D13*%
X199699550Y-155282900D02*
X200099550Y-155282900D01*
X200099550Y-155282900D02*
X200099550Y-154732900D01*
X200099550Y-155282900D02*
X200099550Y-155832900D01*
X200099550Y-155282900D02*
X200699550Y-154882900D01*
X200699550Y-154882900D02*
X200699550Y-155682900D01*
X200699550Y-155282900D02*
X201199550Y-155282900D01*
X200699550Y-155682900D02*
X200099550Y-155282900D01*
%TO.C,D14*%
X199699550Y-136232900D02*
X200099550Y-136232900D01*
X200099550Y-136232900D02*
X200099550Y-135682900D01*
X200099550Y-136232900D02*
X200099550Y-136782900D01*
X200099550Y-136232900D02*
X200699550Y-135832900D01*
X200699550Y-135832900D02*
X200699550Y-136632900D01*
X200699550Y-136232900D02*
X201199550Y-136232900D01*
X200699550Y-136632900D02*
X200099550Y-136232900D01*
%TO.C,D7*%
X161699550Y-160045400D02*
X162099550Y-160045400D01*
X162099550Y-160045400D02*
X162099550Y-159495400D01*
X162099550Y-160045400D02*
X162099550Y-160595400D01*
X162099550Y-160045400D02*
X162699550Y-159645400D01*
X162699550Y-159645400D02*
X162699550Y-160445400D01*
X162699550Y-160045400D02*
X163199550Y-160045400D01*
X162699550Y-160445400D02*
X162099550Y-160045400D01*
%TD*%
D13*
%TO.C,MCU1*%
X250829550Y-142882900D03*
X250829550Y-145422900D03*
X250829550Y-147962900D03*
X250829550Y-150502900D03*
X250829550Y-153042900D03*
X250829550Y-155582900D03*
X250829550Y-158122900D03*
X250829550Y-160662900D03*
X250829550Y-163202900D03*
X250829550Y-165742900D03*
X250829550Y-168282900D03*
X250829550Y-170822900D03*
X266069550Y-170822900D03*
X266069550Y-168282900D03*
X266069550Y-165742900D03*
X266069550Y-163202900D03*
X266069550Y-160662900D03*
X266069550Y-158122900D03*
X266069550Y-155582900D03*
X266069550Y-153042900D03*
X266069550Y-150502900D03*
X266069550Y-147962900D03*
X266069550Y-145422900D03*
X266069550Y-142882900D03*
%TD*%
M02*
