%TF.GenerationSoftware,KiCad,Pcbnew,7.0.9*%
%TF.CreationDate,2024-08-18T04:48:34-07:00*%
%TF.ProjectId,right,72696768-742e-46b6-9963-61645f706362,v1.0.0*%
%TF.SameCoordinates,Original*%
%TF.FileFunction,Soldermask,Top*%
%TF.FilePolarity,Negative*%
%FSLAX46Y46*%
G04 Gerber Fmt 4.6, Leading zero omitted, Abs format (unit mm)*
G04 Created by KiCad (PCBNEW 7.0.9) date 2024-08-18 04:48:34*
%MOMM*%
%LPD*%
G01*
G04 APERTURE LIST*
G04 Aperture macros list*
%AMRoundRect*
0 Rectangle with rounded corners*
0 $1 Rounding radius*
0 $2 $3 $4 $5 $6 $7 $8 $9 X,Y pos of 4 corners*
0 Add a 4 corners polygon primitive as box body*
4,1,4,$2,$3,$4,$5,$6,$7,$8,$9,$2,$3,0*
0 Add four circle primitives for the rounded corners*
1,1,$1+$1,$2,$3*
1,1,$1+$1,$4,$5*
1,1,$1+$1,$6,$7*
1,1,$1+$1,$8,$9*
0 Add four rect primitives between the rounded corners*
20,1,$1+$1,$2,$3,$4,$5,0*
20,1,$1+$1,$4,$5,$6,$7,0*
20,1,$1+$1,$6,$7,$8,$9,0*
20,1,$1+$1,$8,$9,$2,$3,0*%
G04 Aperture macros list end*
%ADD10C,3.529000*%
%ADD11C,1.801800*%
%ADD12C,3.100000*%
%ADD13RoundRect,0.050000X-0.154268X-0.733963X0.661409X-0.353606X0.154268X0.733963X-0.661409X0.353606X0*%
%ADD14RoundRect,0.050000X-0.430000X-1.181415X1.181415X-0.430000X0.430000X1.181415X-1.181415X0.430000X0*%
%ADD15C,2.005000*%
%ADD16RoundRect,0.050000X-0.338975X-0.669026X0.547352X-0.512743X0.338975X0.669026X-0.547352X0.512743X0*%
%ADD17RoundRect,0.050000X-0.721121X-1.029867X1.029867X-0.721121X0.721121X1.029867X-1.029867X0.721121X0*%
%ADD18RoundRect,0.050000X-0.450000X-0.600000X0.450000X-0.600000X0.450000X0.600000X-0.450000X0.600000X0*%
%ADD19RoundRect,0.050000X-0.889000X-0.889000X0.889000X-0.889000X0.889000X0.889000X-0.889000X0.889000X0*%
%ADD20RoundRect,0.050000X0.850000X-0.600000X0.850000X0.600000X-0.850000X0.600000X-0.850000X-0.600000X0*%
%ADD21O,1.800000X1.300000*%
%ADD22C,1.100000*%
%ADD23C,1.600000*%
%ADD24O,2.300000X1.700000*%
%ADD25C,1.852600*%
%ADD26C,0.800000*%
%ADD27C,4.500000*%
G04 APERTURE END LIST*
D10*
%TO.C,S1*%
X158356792Y-179205955D03*
D11*
X163341485Y-176881555D03*
X153372099Y-181530355D03*
D12*
X161303512Y-173694209D03*
X155842213Y-173813424D03*
%TD*%
D10*
%TO.C,S2*%
X178741107Y-172778805D03*
D11*
X184157550Y-171823740D03*
X173324664Y-173733870D03*
D12*
X183013965Y-168217535D03*
X177707900Y-166919199D03*
%TD*%
D10*
%TO.C,S3*%
X199300400Y-170980100D03*
D11*
X204800400Y-170980100D03*
X193800400Y-170980100D03*
D12*
X204300400Y-167230100D03*
X199300400Y-165030100D03*
%TD*%
D10*
%TO.C,S4*%
X271490400Y-151930100D03*
D11*
X276990400Y-151930100D03*
X265990400Y-151930100D03*
D12*
X276490400Y-148180100D03*
X271490400Y-145980100D03*
%TD*%
D10*
%TO.C,S5*%
X271490400Y-132880100D03*
D11*
X276990400Y-132880100D03*
X265990400Y-132880100D03*
D12*
X276490400Y-129130100D03*
X271490400Y-126930100D03*
%TD*%
D10*
%TO.C,S6*%
X271490400Y-113830100D03*
D11*
X276990400Y-113830100D03*
X265990400Y-113830100D03*
D12*
X276490400Y-110080100D03*
X271490400Y-107880100D03*
%TD*%
D10*
%TO.C,S7*%
X252490400Y-147167600D03*
D11*
X257990400Y-147167600D03*
X246990400Y-147167600D03*
D12*
X257490400Y-143417600D03*
X252490400Y-141217600D03*
%TD*%
D10*
%TO.C,S8*%
X252490400Y-128117600D03*
D11*
X257990400Y-128117600D03*
X246990400Y-128117600D03*
D12*
X257490400Y-124367600D03*
X252490400Y-122167600D03*
%TD*%
D10*
%TO.C,S9*%
X252490400Y-109067600D03*
D11*
X257990400Y-109067600D03*
X246990400Y-109067600D03*
D12*
X257490400Y-105317600D03*
X252490400Y-103117600D03*
%TD*%
D10*
%TO.C,S10*%
X233490400Y-147167600D03*
D11*
X238990400Y-147167600D03*
X227990400Y-147167600D03*
D12*
X238490400Y-143417600D03*
X233490400Y-141217600D03*
%TD*%
D10*
%TO.C,S11*%
X233490400Y-128117600D03*
D11*
X238990400Y-128117600D03*
X227990400Y-128117600D03*
D12*
X238490400Y-124367600D03*
X233490400Y-122167600D03*
%TD*%
D10*
%TO.C,S12*%
X233490400Y-109067600D03*
D11*
X238990400Y-109067600D03*
X227990400Y-109067600D03*
D12*
X238490400Y-105317600D03*
X233490400Y-103117600D03*
%TD*%
D10*
%TO.C,S13*%
X214490400Y-142405100D03*
D11*
X219990400Y-142405100D03*
X208990400Y-142405100D03*
D12*
X219490400Y-138655100D03*
X214490400Y-136455100D03*
%TD*%
D10*
%TO.C,S14*%
X214490400Y-123355100D03*
D11*
X219990400Y-123355100D03*
X208990400Y-123355100D03*
D12*
X219490400Y-119605100D03*
X214490400Y-117405100D03*
%TD*%
D10*
%TO.C,S15*%
X214490400Y-104305100D03*
D11*
X219990400Y-104305100D03*
X208990400Y-104305100D03*
D12*
X219490400Y-100555100D03*
X214490400Y-98355100D03*
%TD*%
D10*
%TO.C,S16*%
X195490400Y-147167600D03*
D11*
X200990400Y-147167600D03*
X189990400Y-147167600D03*
D12*
X200490400Y-143417600D03*
X195490400Y-141217600D03*
%TD*%
D10*
%TO.C,S17*%
X195490400Y-128117600D03*
D11*
X200990400Y-128117600D03*
X189990400Y-128117600D03*
D12*
X200490400Y-124367600D03*
X195490400Y-122167600D03*
%TD*%
D10*
%TO.C,S18*%
X195490400Y-109067600D03*
D11*
X200990400Y-109067600D03*
X189990400Y-109067600D03*
D12*
X200490400Y-105317600D03*
X195490400Y-103117600D03*
%TD*%
D10*
%TO.C,S19*%
X176490400Y-150025100D03*
D11*
X181990400Y-150025100D03*
X170990400Y-150025100D03*
D12*
X181490400Y-146275100D03*
X176490400Y-144075100D03*
%TD*%
D10*
%TO.C,S20*%
X176490400Y-130975100D03*
D11*
X181990400Y-130975100D03*
X170990400Y-130975100D03*
D12*
X181490400Y-127225100D03*
X176490400Y-125025100D03*
%TD*%
D10*
%TO.C,S21*%
X176490400Y-111925100D03*
D11*
X181990400Y-111925100D03*
X170990400Y-111925100D03*
D12*
X181490400Y-108175100D03*
X176490400Y-105975100D03*
%TD*%
D13*
%TO.C,D1*%
X158974475Y-184434814D03*
X161965291Y-183040174D03*
D14*
X157016850Y-185347670D03*
D15*
X163922916Y-182127318D03*
%TD*%
D16*
%TO.C,D2*%
X177984415Y-177989363D03*
X181234281Y-177416325D03*
D17*
X175857230Y-178364444D03*
D15*
X183361466Y-177041244D03*
%TD*%
D18*
%TO.C,D3*%
X197650400Y-175980100D03*
X200950400Y-175980100D03*
D19*
X195490400Y-175980100D03*
D15*
X203110400Y-175980100D03*
%TD*%
D18*
%TO.C,D4*%
X269840400Y-156930100D03*
X273140400Y-156930100D03*
D19*
X267680400Y-156930100D03*
D15*
X275300400Y-156930100D03*
%TD*%
D18*
%TO.C,D5*%
X269840400Y-137880100D03*
X273140400Y-137880100D03*
D19*
X267680400Y-137880100D03*
D15*
X275300400Y-137880100D03*
%TD*%
D18*
%TO.C,D6*%
X269840400Y-118830100D03*
X273140400Y-118830100D03*
D19*
X267680400Y-118830100D03*
D15*
X275300400Y-118830100D03*
%TD*%
D18*
%TO.C,D7*%
X250840400Y-152167600D03*
X254140400Y-152167600D03*
D19*
X248680400Y-152167600D03*
D15*
X256300400Y-152167600D03*
%TD*%
D18*
%TO.C,D8*%
X250840400Y-133117600D03*
X254140400Y-133117600D03*
D19*
X248680400Y-133117600D03*
D15*
X256300400Y-133117600D03*
%TD*%
D18*
%TO.C,D9*%
X250840400Y-114067600D03*
X254140400Y-114067600D03*
D19*
X248680400Y-114067600D03*
D15*
X256300400Y-114067600D03*
%TD*%
D18*
%TO.C,D10*%
X231840400Y-152167600D03*
X235140400Y-152167600D03*
D19*
X229680400Y-152167600D03*
D15*
X237300400Y-152167600D03*
%TD*%
D18*
%TO.C,D11*%
X231840400Y-133117600D03*
X235140400Y-133117600D03*
D19*
X229680400Y-133117600D03*
D15*
X237300400Y-133117600D03*
%TD*%
D18*
%TO.C,D12*%
X231840400Y-114067600D03*
X235140400Y-114067600D03*
D19*
X229680400Y-114067600D03*
D15*
X237300400Y-114067600D03*
%TD*%
D18*
%TO.C,D13*%
X212840400Y-147405100D03*
X216140400Y-147405100D03*
D19*
X210680400Y-147405100D03*
D15*
X218300400Y-147405100D03*
%TD*%
D18*
%TO.C,D14*%
X212840400Y-128355100D03*
X216140400Y-128355100D03*
D19*
X210680400Y-128355100D03*
D15*
X218300400Y-128355100D03*
%TD*%
D18*
%TO.C,D15*%
X212840400Y-109305100D03*
X216140400Y-109305100D03*
D19*
X210680400Y-109305100D03*
D15*
X218300400Y-109305100D03*
%TD*%
D18*
%TO.C,D16*%
X193840400Y-152167600D03*
X197140400Y-152167600D03*
D19*
X191680400Y-152167600D03*
D15*
X199300400Y-152167600D03*
%TD*%
D18*
%TO.C,D17*%
X193840400Y-133117600D03*
X197140400Y-133117600D03*
D19*
X191680400Y-133117600D03*
D15*
X199300400Y-133117600D03*
%TD*%
D18*
%TO.C,D18*%
X193840400Y-114067600D03*
X197140400Y-114067600D03*
D19*
X191680400Y-114067600D03*
D15*
X199300400Y-114067600D03*
%TD*%
D18*
%TO.C,D19*%
X174840400Y-155025100D03*
X178140400Y-155025100D03*
D19*
X172680400Y-155025100D03*
D15*
X180300400Y-155025100D03*
%TD*%
D18*
%TO.C,D20*%
X174840400Y-135975100D03*
X178140400Y-135975100D03*
D19*
X172680400Y-135975100D03*
D15*
X180300400Y-135975100D03*
%TD*%
D18*
%TO.C,D21*%
X174840400Y-116925100D03*
X178140400Y-116925100D03*
D19*
X172680400Y-116925100D03*
D15*
X180300400Y-116925100D03*
%TD*%
D20*
%TO.C,JST1*%
X209490400Y-114355100D03*
D21*
X209490400Y-112355100D03*
%TD*%
D22*
%TO.C,T1*%
X143490400Y-153475100D03*
X143490400Y-156475100D03*
%TD*%
D23*
%TO.C,TRRS1*%
X150059800Y-168186100D03*
X143059800Y-168186100D03*
D24*
X152759800Y-165886100D03*
X151659800Y-170486100D03*
X147659800Y-170486100D03*
X144659800Y-170486100D03*
X152759800Y-170486100D03*
X151659800Y-165886100D03*
X147659800Y-165886100D03*
X144659800Y-165886100D03*
%TD*%
D25*
%TO.C,MCU1*%
X164110400Y-135005100D03*
X164110400Y-137545100D03*
X164110400Y-140085100D03*
X164110400Y-142625100D03*
X164110400Y-145165100D03*
X164110400Y-147705100D03*
X164110400Y-150245100D03*
X164110400Y-152785100D03*
X164110400Y-155325100D03*
X164110400Y-157865100D03*
X164110400Y-160405100D03*
X164110400Y-162945100D03*
X148870400Y-162945100D03*
X148870400Y-160405100D03*
X148870400Y-157865100D03*
X148870400Y-155325100D03*
X148870400Y-152785100D03*
X148870400Y-150245100D03*
X148870400Y-147705100D03*
X148870400Y-145165100D03*
X148870400Y-142625100D03*
X148870400Y-140085100D03*
X148870400Y-137545100D03*
X148870400Y-135005100D03*
%TD*%
D26*
%TO.C,_1*%
X263157126Y-119996826D03*
D27*
X261990400Y-118830100D03*
D26*
X261990400Y-120480100D03*
X263157126Y-117663374D03*
X260340400Y-118830100D03*
X260823674Y-117663374D03*
X260823674Y-119996826D03*
X263640400Y-118830100D03*
X261990400Y-117180100D03*
%TD*%
%TO.C,_2*%
X263157126Y-140096826D03*
D27*
X261990400Y-138930100D03*
D26*
X261990400Y-140580100D03*
X263157126Y-137763374D03*
X260340400Y-138930100D03*
X260823674Y-137763374D03*
X260823674Y-140096826D03*
X263640400Y-138930100D03*
X261990400Y-137280100D03*
%TD*%
%TO.C,_3*%
X187157126Y-117234326D03*
D27*
X185990400Y-116067600D03*
D26*
X185990400Y-117717600D03*
X187157126Y-114900874D03*
X184340400Y-116067600D03*
X184823674Y-114900874D03*
X184823674Y-117234326D03*
X187640400Y-116067600D03*
X185990400Y-114417600D03*
%TD*%
%TO.C,_4*%
X177922106Y-161415109D03*
D27*
X176570505Y-160468708D03*
D26*
X176857024Y-162093641D03*
X177516906Y-159117107D03*
X174945572Y-160755227D03*
X175218904Y-159522307D03*
X175624104Y-161820309D03*
X178195438Y-160182189D03*
X176283986Y-158843775D03*
%TD*%
M02*
