%TF.GenerationSoftware,KiCad,Pcbnew,7.0.9*%
%TF.CreationDate,2024-08-18T04:48:34-07:00*%
%TF.ProjectId,right,72696768-742e-46b6-9963-61645f706362,v1.0.0*%
%TF.SameCoordinates,Original*%
%TF.FileFunction,Legend,Top*%
%TF.FilePolarity,Positive*%
%FSLAX46Y46*%
G04 Gerber Fmt 4.6, Leading zero omitted, Abs format (unit mm)*
G04 Created by KiCad (PCBNEW 7.0.9) date 2024-08-18 04:48:34*
%MOMM*%
%LPD*%
G01*
G04 APERTURE LIST*
%ADD10C,0.150000*%
%ADD11C,0.300000*%
%ADD12C,0.100000*%
%ADD13C,0.381000*%
%ADD14C,1.752600*%
G04 APERTURE END LIST*
D10*
X150464304Y-135367395D02*
X150197637Y-134986442D01*
X150007161Y-135367395D02*
X150007161Y-134567395D01*
X150007161Y-134567395D02*
X150311923Y-134567395D01*
X150311923Y-134567395D02*
X150388113Y-134605490D01*
X150388113Y-134605490D02*
X150426208Y-134643585D01*
X150426208Y-134643585D02*
X150464304Y-134719776D01*
X150464304Y-134719776D02*
X150464304Y-134834061D01*
X150464304Y-134834061D02*
X150426208Y-134910252D01*
X150426208Y-134910252D02*
X150388113Y-134948347D01*
X150388113Y-134948347D02*
X150311923Y-134986442D01*
X150311923Y-134986442D02*
X150007161Y-134986442D01*
X150769065Y-135138823D02*
X151150018Y-135138823D01*
X150692875Y-135367395D02*
X150959542Y-134567395D01*
X150959542Y-134567395D02*
X151226208Y-135367395D01*
X151416684Y-134567395D02*
X151607160Y-135367395D01*
X151607160Y-135367395D02*
X151759541Y-134795966D01*
X151759541Y-134795966D02*
X151911922Y-135367395D01*
X151911922Y-135367395D02*
X152102399Y-134567395D01*
X150426209Y-137145490D02*
X150350019Y-137107395D01*
X150350019Y-137107395D02*
X150235733Y-137107395D01*
X150235733Y-137107395D02*
X150121447Y-137145490D01*
X150121447Y-137145490D02*
X150045257Y-137221680D01*
X150045257Y-137221680D02*
X150007162Y-137297871D01*
X150007162Y-137297871D02*
X149969066Y-137450252D01*
X149969066Y-137450252D02*
X149969066Y-137564538D01*
X149969066Y-137564538D02*
X150007162Y-137716919D01*
X150007162Y-137716919D02*
X150045257Y-137793109D01*
X150045257Y-137793109D02*
X150121447Y-137869300D01*
X150121447Y-137869300D02*
X150235733Y-137907395D01*
X150235733Y-137907395D02*
X150311924Y-137907395D01*
X150311924Y-137907395D02*
X150426209Y-137869300D01*
X150426209Y-137869300D02*
X150464305Y-137831204D01*
X150464305Y-137831204D02*
X150464305Y-137564538D01*
X150464305Y-137564538D02*
X150311924Y-137564538D01*
X150807162Y-137907395D02*
X150807162Y-137107395D01*
X150807162Y-137107395D02*
X151264305Y-137907395D01*
X151264305Y-137907395D02*
X151264305Y-137107395D01*
X151645257Y-137907395D02*
X151645257Y-137107395D01*
X151645257Y-137107395D02*
X151835733Y-137107395D01*
X151835733Y-137107395D02*
X151950019Y-137145490D01*
X151950019Y-137145490D02*
X152026209Y-137221680D01*
X152026209Y-137221680D02*
X152064304Y-137297871D01*
X152064304Y-137297871D02*
X152102400Y-137450252D01*
X152102400Y-137450252D02*
X152102400Y-137564538D01*
X152102400Y-137564538D02*
X152064304Y-137716919D01*
X152064304Y-137716919D02*
X152026209Y-137793109D01*
X152026209Y-137793109D02*
X151950019Y-137869300D01*
X151950019Y-137869300D02*
X151835733Y-137907395D01*
X151835733Y-137907395D02*
X151645257Y-137907395D01*
X150464305Y-140447395D02*
X150197638Y-140066442D01*
X150007162Y-140447395D02*
X150007162Y-139647395D01*
X150007162Y-139647395D02*
X150311924Y-139647395D01*
X150311924Y-139647395D02*
X150388114Y-139685490D01*
X150388114Y-139685490D02*
X150426209Y-139723585D01*
X150426209Y-139723585D02*
X150464305Y-139799776D01*
X150464305Y-139799776D02*
X150464305Y-139914061D01*
X150464305Y-139914061D02*
X150426209Y-139990252D01*
X150426209Y-139990252D02*
X150388114Y-140028347D01*
X150388114Y-140028347D02*
X150311924Y-140066442D01*
X150311924Y-140066442D02*
X150007162Y-140066442D01*
X150769066Y-140409300D02*
X150883352Y-140447395D01*
X150883352Y-140447395D02*
X151073828Y-140447395D01*
X151073828Y-140447395D02*
X151150019Y-140409300D01*
X151150019Y-140409300D02*
X151188114Y-140371204D01*
X151188114Y-140371204D02*
X151226209Y-140295014D01*
X151226209Y-140295014D02*
X151226209Y-140218823D01*
X151226209Y-140218823D02*
X151188114Y-140142633D01*
X151188114Y-140142633D02*
X151150019Y-140104538D01*
X151150019Y-140104538D02*
X151073828Y-140066442D01*
X151073828Y-140066442D02*
X150921447Y-140028347D01*
X150921447Y-140028347D02*
X150845257Y-139990252D01*
X150845257Y-139990252D02*
X150807162Y-139952157D01*
X150807162Y-139952157D02*
X150769066Y-139875966D01*
X150769066Y-139875966D02*
X150769066Y-139799776D01*
X150769066Y-139799776D02*
X150807162Y-139723585D01*
X150807162Y-139723585D02*
X150845257Y-139685490D01*
X150845257Y-139685490D02*
X150921447Y-139647395D01*
X150921447Y-139647395D02*
X151111924Y-139647395D01*
X151111924Y-139647395D02*
X151226209Y-139685490D01*
X151454781Y-139647395D02*
X151911924Y-139647395D01*
X151683352Y-140447395D02*
X151683352Y-139647395D01*
X149886542Y-142187395D02*
X150153209Y-142987395D01*
X150153209Y-142987395D02*
X150419875Y-142187395D01*
X151143685Y-142911204D02*
X151105589Y-142949300D01*
X151105589Y-142949300D02*
X150991304Y-142987395D01*
X150991304Y-142987395D02*
X150915113Y-142987395D01*
X150915113Y-142987395D02*
X150800827Y-142949300D01*
X150800827Y-142949300D02*
X150724637Y-142873109D01*
X150724637Y-142873109D02*
X150686542Y-142796919D01*
X150686542Y-142796919D02*
X150648446Y-142644538D01*
X150648446Y-142644538D02*
X150648446Y-142530252D01*
X150648446Y-142530252D02*
X150686542Y-142377871D01*
X150686542Y-142377871D02*
X150724637Y-142301680D01*
X150724637Y-142301680D02*
X150800827Y-142225490D01*
X150800827Y-142225490D02*
X150915113Y-142187395D01*
X150915113Y-142187395D02*
X150991304Y-142187395D01*
X150991304Y-142187395D02*
X151105589Y-142225490D01*
X151105589Y-142225490D02*
X151143685Y-142263585D01*
X151943685Y-142911204D02*
X151905589Y-142949300D01*
X151905589Y-142949300D02*
X151791304Y-142987395D01*
X151791304Y-142987395D02*
X151715113Y-142987395D01*
X151715113Y-142987395D02*
X151600827Y-142949300D01*
X151600827Y-142949300D02*
X151524637Y-142873109D01*
X151524637Y-142873109D02*
X151486542Y-142796919D01*
X151486542Y-142796919D02*
X151448446Y-142644538D01*
X151448446Y-142644538D02*
X151448446Y-142530252D01*
X151448446Y-142530252D02*
X151486542Y-142377871D01*
X151486542Y-142377871D02*
X151524637Y-142301680D01*
X151524637Y-142301680D02*
X151600827Y-142225490D01*
X151600827Y-142225490D02*
X151715113Y-142187395D01*
X151715113Y-142187395D02*
X151791304Y-142187395D01*
X151791304Y-142187395D02*
X151905589Y-142225490D01*
X151905589Y-142225490D02*
X151943685Y-142263585D01*
X150153209Y-144727395D02*
X150229399Y-144727395D01*
X150229399Y-144727395D02*
X150305590Y-144765490D01*
X150305590Y-144765490D02*
X150343685Y-144803585D01*
X150343685Y-144803585D02*
X150381780Y-144879776D01*
X150381780Y-144879776D02*
X150419875Y-145032157D01*
X150419875Y-145032157D02*
X150419875Y-145222633D01*
X150419875Y-145222633D02*
X150381780Y-145375014D01*
X150381780Y-145375014D02*
X150343685Y-145451204D01*
X150343685Y-145451204D02*
X150305590Y-145489300D01*
X150305590Y-145489300D02*
X150229399Y-145527395D01*
X150229399Y-145527395D02*
X150153209Y-145527395D01*
X150153209Y-145527395D02*
X150077018Y-145489300D01*
X150077018Y-145489300D02*
X150038923Y-145451204D01*
X150038923Y-145451204D02*
X150000828Y-145375014D01*
X150000828Y-145375014D02*
X149962732Y-145222633D01*
X149962732Y-145222633D02*
X149962732Y-145032157D01*
X149962732Y-145032157D02*
X150000828Y-144879776D01*
X150000828Y-144879776D02*
X150038923Y-144803585D01*
X150038923Y-144803585D02*
X150077018Y-144765490D01*
X150077018Y-144765490D02*
X150153209Y-144727395D01*
X150686542Y-144727395D02*
X151181780Y-144727395D01*
X151181780Y-144727395D02*
X150915114Y-145032157D01*
X150915114Y-145032157D02*
X151029399Y-145032157D01*
X151029399Y-145032157D02*
X151105590Y-145070252D01*
X151105590Y-145070252D02*
X151143685Y-145108347D01*
X151143685Y-145108347D02*
X151181780Y-145184538D01*
X151181780Y-145184538D02*
X151181780Y-145375014D01*
X151181780Y-145375014D02*
X151143685Y-145451204D01*
X151143685Y-145451204D02*
X151105590Y-145489300D01*
X151105590Y-145489300D02*
X151029399Y-145527395D01*
X151029399Y-145527395D02*
X150800828Y-145527395D01*
X150800828Y-145527395D02*
X150724637Y-145489300D01*
X150724637Y-145489300D02*
X150686542Y-145451204D01*
X151943685Y-145527395D02*
X151486542Y-145527395D01*
X151715114Y-145527395D02*
X151715114Y-144727395D01*
X151715114Y-144727395D02*
X151638923Y-144841680D01*
X151638923Y-144841680D02*
X151562733Y-144917871D01*
X151562733Y-144917871D02*
X151486542Y-144955966D01*
X150153209Y-147267395D02*
X150229399Y-147267395D01*
X150229399Y-147267395D02*
X150305590Y-147305490D01*
X150305590Y-147305490D02*
X150343685Y-147343585D01*
X150343685Y-147343585D02*
X150381780Y-147419776D01*
X150381780Y-147419776D02*
X150419875Y-147572157D01*
X150419875Y-147572157D02*
X150419875Y-147762633D01*
X150419875Y-147762633D02*
X150381780Y-147915014D01*
X150381780Y-147915014D02*
X150343685Y-147991204D01*
X150343685Y-147991204D02*
X150305590Y-148029300D01*
X150305590Y-148029300D02*
X150229399Y-148067395D01*
X150229399Y-148067395D02*
X150153209Y-148067395D01*
X150153209Y-148067395D02*
X150077018Y-148029300D01*
X150077018Y-148029300D02*
X150038923Y-147991204D01*
X150038923Y-147991204D02*
X150000828Y-147915014D01*
X150000828Y-147915014D02*
X149962732Y-147762633D01*
X149962732Y-147762633D02*
X149962732Y-147572157D01*
X149962732Y-147572157D02*
X150000828Y-147419776D01*
X150000828Y-147419776D02*
X150038923Y-147343585D01*
X150038923Y-147343585D02*
X150077018Y-147305490D01*
X150077018Y-147305490D02*
X150153209Y-147267395D01*
X150724637Y-147343585D02*
X150762733Y-147305490D01*
X150762733Y-147305490D02*
X150838923Y-147267395D01*
X150838923Y-147267395D02*
X151029399Y-147267395D01*
X151029399Y-147267395D02*
X151105590Y-147305490D01*
X151105590Y-147305490D02*
X151143685Y-147343585D01*
X151143685Y-147343585D02*
X151181780Y-147419776D01*
X151181780Y-147419776D02*
X151181780Y-147495966D01*
X151181780Y-147495966D02*
X151143685Y-147610252D01*
X151143685Y-147610252D02*
X150686542Y-148067395D01*
X150686542Y-148067395D02*
X151181780Y-148067395D01*
X151562733Y-148067395D02*
X151715114Y-148067395D01*
X151715114Y-148067395D02*
X151791304Y-148029300D01*
X151791304Y-148029300D02*
X151829400Y-147991204D01*
X151829400Y-147991204D02*
X151905590Y-147876919D01*
X151905590Y-147876919D02*
X151943685Y-147724538D01*
X151943685Y-147724538D02*
X151943685Y-147419776D01*
X151943685Y-147419776D02*
X151905590Y-147343585D01*
X151905590Y-147343585D02*
X151867495Y-147305490D01*
X151867495Y-147305490D02*
X151791304Y-147267395D01*
X151791304Y-147267395D02*
X151638923Y-147267395D01*
X151638923Y-147267395D02*
X151562733Y-147305490D01*
X151562733Y-147305490D02*
X151524638Y-147343585D01*
X151524638Y-147343585D02*
X151486542Y-147419776D01*
X151486542Y-147419776D02*
X151486542Y-147610252D01*
X151486542Y-147610252D02*
X151524638Y-147686442D01*
X151524638Y-147686442D02*
X151562733Y-147724538D01*
X151562733Y-147724538D02*
X151638923Y-147762633D01*
X151638923Y-147762633D02*
X151791304Y-147762633D01*
X151791304Y-147762633D02*
X151867495Y-147724538D01*
X151867495Y-147724538D02*
X151905590Y-147686442D01*
X151905590Y-147686442D02*
X151943685Y-147610252D01*
X150153209Y-149807395D02*
X150229399Y-149807395D01*
X150229399Y-149807395D02*
X150305590Y-149845490D01*
X150305590Y-149845490D02*
X150343685Y-149883585D01*
X150343685Y-149883585D02*
X150381780Y-149959776D01*
X150381780Y-149959776D02*
X150419875Y-150112157D01*
X150419875Y-150112157D02*
X150419875Y-150302633D01*
X150419875Y-150302633D02*
X150381780Y-150455014D01*
X150381780Y-150455014D02*
X150343685Y-150531204D01*
X150343685Y-150531204D02*
X150305590Y-150569300D01*
X150305590Y-150569300D02*
X150229399Y-150607395D01*
X150229399Y-150607395D02*
X150153209Y-150607395D01*
X150153209Y-150607395D02*
X150077018Y-150569300D01*
X150077018Y-150569300D02*
X150038923Y-150531204D01*
X150038923Y-150531204D02*
X150000828Y-150455014D01*
X150000828Y-150455014D02*
X149962732Y-150302633D01*
X149962732Y-150302633D02*
X149962732Y-150112157D01*
X149962732Y-150112157D02*
X150000828Y-149959776D01*
X150000828Y-149959776D02*
X150038923Y-149883585D01*
X150038923Y-149883585D02*
X150077018Y-149845490D01*
X150077018Y-149845490D02*
X150153209Y-149807395D01*
X150915114Y-149807395D02*
X150991304Y-149807395D01*
X150991304Y-149807395D02*
X151067495Y-149845490D01*
X151067495Y-149845490D02*
X151105590Y-149883585D01*
X151105590Y-149883585D02*
X151143685Y-149959776D01*
X151143685Y-149959776D02*
X151181780Y-150112157D01*
X151181780Y-150112157D02*
X151181780Y-150302633D01*
X151181780Y-150302633D02*
X151143685Y-150455014D01*
X151143685Y-150455014D02*
X151105590Y-150531204D01*
X151105590Y-150531204D02*
X151067495Y-150569300D01*
X151067495Y-150569300D02*
X150991304Y-150607395D01*
X150991304Y-150607395D02*
X150915114Y-150607395D01*
X150915114Y-150607395D02*
X150838923Y-150569300D01*
X150838923Y-150569300D02*
X150800828Y-150531204D01*
X150800828Y-150531204D02*
X150762733Y-150455014D01*
X150762733Y-150455014D02*
X150724637Y-150302633D01*
X150724637Y-150302633D02*
X150724637Y-150112157D01*
X150724637Y-150112157D02*
X150762733Y-149959776D01*
X150762733Y-149959776D02*
X150800828Y-149883585D01*
X150800828Y-149883585D02*
X150838923Y-149845490D01*
X150838923Y-149845490D02*
X150915114Y-149807395D01*
X151486542Y-149883585D02*
X151524638Y-149845490D01*
X151524638Y-149845490D02*
X151600828Y-149807395D01*
X151600828Y-149807395D02*
X151791304Y-149807395D01*
X151791304Y-149807395D02*
X151867495Y-149845490D01*
X151867495Y-149845490D02*
X151905590Y-149883585D01*
X151905590Y-149883585D02*
X151943685Y-149959776D01*
X151943685Y-149959776D02*
X151943685Y-150035966D01*
X151943685Y-150035966D02*
X151905590Y-150150252D01*
X151905590Y-150150252D02*
X151448447Y-150607395D01*
X151448447Y-150607395D02*
X151943685Y-150607395D01*
X150419875Y-153147395D02*
X149962732Y-153147395D01*
X150191304Y-153147395D02*
X150191304Y-152347395D01*
X150191304Y-152347395D02*
X150115113Y-152461680D01*
X150115113Y-152461680D02*
X150038923Y-152537871D01*
X150038923Y-152537871D02*
X149962732Y-152575966D01*
X151181780Y-153147395D02*
X150724637Y-153147395D01*
X150953209Y-153147395D02*
X150953209Y-152347395D01*
X150953209Y-152347395D02*
X150877018Y-152461680D01*
X150877018Y-152461680D02*
X150800828Y-152537871D01*
X150800828Y-152537871D02*
X150724637Y-152575966D01*
X151905590Y-152347395D02*
X151524638Y-152347395D01*
X151524638Y-152347395D02*
X151486542Y-152728347D01*
X151486542Y-152728347D02*
X151524638Y-152690252D01*
X151524638Y-152690252D02*
X151600828Y-152652157D01*
X151600828Y-152652157D02*
X151791304Y-152652157D01*
X151791304Y-152652157D02*
X151867495Y-152690252D01*
X151867495Y-152690252D02*
X151905590Y-152728347D01*
X151905590Y-152728347D02*
X151943685Y-152804538D01*
X151943685Y-152804538D02*
X151943685Y-152995014D01*
X151943685Y-152995014D02*
X151905590Y-153071204D01*
X151905590Y-153071204D02*
X151867495Y-153109300D01*
X151867495Y-153109300D02*
X151791304Y-153147395D01*
X151791304Y-153147395D02*
X151600828Y-153147395D01*
X151600828Y-153147395D02*
X151524638Y-153109300D01*
X151524638Y-153109300D02*
X151486542Y-153071204D01*
X150419875Y-155687395D02*
X149962732Y-155687395D01*
X150191304Y-155687395D02*
X150191304Y-154887395D01*
X150191304Y-154887395D02*
X150115113Y-155001680D01*
X150115113Y-155001680D02*
X150038923Y-155077871D01*
X150038923Y-155077871D02*
X149962732Y-155115966D01*
X151181780Y-155687395D02*
X150724637Y-155687395D01*
X150953209Y-155687395D02*
X150953209Y-154887395D01*
X150953209Y-154887395D02*
X150877018Y-155001680D01*
X150877018Y-155001680D02*
X150800828Y-155077871D01*
X150800828Y-155077871D02*
X150724637Y-155115966D01*
X151448447Y-154887395D02*
X151943685Y-154887395D01*
X151943685Y-154887395D02*
X151677019Y-155192157D01*
X151677019Y-155192157D02*
X151791304Y-155192157D01*
X151791304Y-155192157D02*
X151867495Y-155230252D01*
X151867495Y-155230252D02*
X151905590Y-155268347D01*
X151905590Y-155268347D02*
X151943685Y-155344538D01*
X151943685Y-155344538D02*
X151943685Y-155535014D01*
X151943685Y-155535014D02*
X151905590Y-155611204D01*
X151905590Y-155611204D02*
X151867495Y-155649300D01*
X151867495Y-155649300D02*
X151791304Y-155687395D01*
X151791304Y-155687395D02*
X151562733Y-155687395D01*
X151562733Y-155687395D02*
X151486542Y-155649300D01*
X151486542Y-155649300D02*
X151448447Y-155611204D01*
X150419875Y-158227395D02*
X149962732Y-158227395D01*
X150191304Y-158227395D02*
X150191304Y-157427395D01*
X150191304Y-157427395D02*
X150115113Y-157541680D01*
X150115113Y-157541680D02*
X150038923Y-157617871D01*
X150038923Y-157617871D02*
X149962732Y-157655966D01*
X151181780Y-158227395D02*
X150724637Y-158227395D01*
X150953209Y-158227395D02*
X150953209Y-157427395D01*
X150953209Y-157427395D02*
X150877018Y-157541680D01*
X150877018Y-157541680D02*
X150800828Y-157617871D01*
X150800828Y-157617871D02*
X150724637Y-157655966D01*
X151943685Y-158227395D02*
X151486542Y-158227395D01*
X151715114Y-158227395D02*
X151715114Y-157427395D01*
X151715114Y-157427395D02*
X151638923Y-157541680D01*
X151638923Y-157541680D02*
X151562733Y-157617871D01*
X151562733Y-157617871D02*
X151486542Y-157655966D01*
X150153209Y-159967395D02*
X150229399Y-159967395D01*
X150229399Y-159967395D02*
X150305590Y-160005490D01*
X150305590Y-160005490D02*
X150343685Y-160043585D01*
X150343685Y-160043585D02*
X150381780Y-160119776D01*
X150381780Y-160119776D02*
X150419875Y-160272157D01*
X150419875Y-160272157D02*
X150419875Y-160462633D01*
X150419875Y-160462633D02*
X150381780Y-160615014D01*
X150381780Y-160615014D02*
X150343685Y-160691204D01*
X150343685Y-160691204D02*
X150305590Y-160729300D01*
X150305590Y-160729300D02*
X150229399Y-160767395D01*
X150229399Y-160767395D02*
X150153209Y-160767395D01*
X150153209Y-160767395D02*
X150077018Y-160729300D01*
X150077018Y-160729300D02*
X150038923Y-160691204D01*
X150038923Y-160691204D02*
X150000828Y-160615014D01*
X150000828Y-160615014D02*
X149962732Y-160462633D01*
X149962732Y-160462633D02*
X149962732Y-160272157D01*
X149962732Y-160272157D02*
X150000828Y-160119776D01*
X150000828Y-160119776D02*
X150038923Y-160043585D01*
X150038923Y-160043585D02*
X150077018Y-160005490D01*
X150077018Y-160005490D02*
X150153209Y-159967395D01*
X151181780Y-160767395D02*
X150724637Y-160767395D01*
X150953209Y-160767395D02*
X150953209Y-159967395D01*
X150953209Y-159967395D02*
X150877018Y-160081680D01*
X150877018Y-160081680D02*
X150800828Y-160157871D01*
X150800828Y-160157871D02*
X150724637Y-160195966D01*
X151677019Y-159967395D02*
X151753209Y-159967395D01*
X151753209Y-159967395D02*
X151829400Y-160005490D01*
X151829400Y-160005490D02*
X151867495Y-160043585D01*
X151867495Y-160043585D02*
X151905590Y-160119776D01*
X151905590Y-160119776D02*
X151943685Y-160272157D01*
X151943685Y-160272157D02*
X151943685Y-160462633D01*
X151943685Y-160462633D02*
X151905590Y-160615014D01*
X151905590Y-160615014D02*
X151867495Y-160691204D01*
X151867495Y-160691204D02*
X151829400Y-160729300D01*
X151829400Y-160729300D02*
X151753209Y-160767395D01*
X151753209Y-160767395D02*
X151677019Y-160767395D01*
X151677019Y-160767395D02*
X151600828Y-160729300D01*
X151600828Y-160729300D02*
X151562733Y-160691204D01*
X151562733Y-160691204D02*
X151524638Y-160615014D01*
X151524638Y-160615014D02*
X151486542Y-160462633D01*
X151486542Y-160462633D02*
X151486542Y-160272157D01*
X151486542Y-160272157D02*
X151524638Y-160119776D01*
X151524638Y-160119776D02*
X151562733Y-160043585D01*
X151562733Y-160043585D02*
X151600828Y-160005490D01*
X151600828Y-160005490D02*
X151677019Y-159967395D01*
X161227590Y-134567395D02*
X161303780Y-134567395D01*
X161303780Y-134567395D02*
X161379971Y-134605490D01*
X161379971Y-134605490D02*
X161418066Y-134643585D01*
X161418066Y-134643585D02*
X161456161Y-134719776D01*
X161456161Y-134719776D02*
X161494256Y-134872157D01*
X161494256Y-134872157D02*
X161494256Y-135062633D01*
X161494256Y-135062633D02*
X161456161Y-135215014D01*
X161456161Y-135215014D02*
X161418066Y-135291204D01*
X161418066Y-135291204D02*
X161379971Y-135329300D01*
X161379971Y-135329300D02*
X161303780Y-135367395D01*
X161303780Y-135367395D02*
X161227590Y-135367395D01*
X161227590Y-135367395D02*
X161151399Y-135329300D01*
X161151399Y-135329300D02*
X161113304Y-135291204D01*
X161113304Y-135291204D02*
X161075209Y-135215014D01*
X161075209Y-135215014D02*
X161037113Y-135062633D01*
X161037113Y-135062633D02*
X161037113Y-134872157D01*
X161037113Y-134872157D02*
X161075209Y-134719776D01*
X161075209Y-134719776D02*
X161113304Y-134643585D01*
X161113304Y-134643585D02*
X161151399Y-134605490D01*
X161151399Y-134605490D02*
X161227590Y-134567395D01*
X161989495Y-134567395D02*
X162065685Y-134567395D01*
X162065685Y-134567395D02*
X162141876Y-134605490D01*
X162141876Y-134605490D02*
X162179971Y-134643585D01*
X162179971Y-134643585D02*
X162218066Y-134719776D01*
X162218066Y-134719776D02*
X162256161Y-134872157D01*
X162256161Y-134872157D02*
X162256161Y-135062633D01*
X162256161Y-135062633D02*
X162218066Y-135215014D01*
X162218066Y-135215014D02*
X162179971Y-135291204D01*
X162179971Y-135291204D02*
X162141876Y-135329300D01*
X162141876Y-135329300D02*
X162065685Y-135367395D01*
X162065685Y-135367395D02*
X161989495Y-135367395D01*
X161989495Y-135367395D02*
X161913304Y-135329300D01*
X161913304Y-135329300D02*
X161875209Y-135291204D01*
X161875209Y-135291204D02*
X161837114Y-135215014D01*
X161837114Y-135215014D02*
X161799018Y-135062633D01*
X161799018Y-135062633D02*
X161799018Y-134872157D01*
X161799018Y-134872157D02*
X161837114Y-134719776D01*
X161837114Y-134719776D02*
X161875209Y-134643585D01*
X161875209Y-134643585D02*
X161913304Y-134605490D01*
X161913304Y-134605490D02*
X161989495Y-134567395D01*
X162941876Y-134567395D02*
X162789495Y-134567395D01*
X162789495Y-134567395D02*
X162713304Y-134605490D01*
X162713304Y-134605490D02*
X162675209Y-134643585D01*
X162675209Y-134643585D02*
X162599019Y-134757871D01*
X162599019Y-134757871D02*
X162560923Y-134910252D01*
X162560923Y-134910252D02*
X162560923Y-135215014D01*
X162560923Y-135215014D02*
X162599019Y-135291204D01*
X162599019Y-135291204D02*
X162637114Y-135329300D01*
X162637114Y-135329300D02*
X162713304Y-135367395D01*
X162713304Y-135367395D02*
X162865685Y-135367395D01*
X162865685Y-135367395D02*
X162941876Y-135329300D01*
X162941876Y-135329300D02*
X162979971Y-135291204D01*
X162979971Y-135291204D02*
X163018066Y-135215014D01*
X163018066Y-135215014D02*
X163018066Y-135024538D01*
X163018066Y-135024538D02*
X162979971Y-134948347D01*
X162979971Y-134948347D02*
X162941876Y-134910252D01*
X162941876Y-134910252D02*
X162865685Y-134872157D01*
X162865685Y-134872157D02*
X162713304Y-134872157D01*
X162713304Y-134872157D02*
X162637114Y-134910252D01*
X162637114Y-134910252D02*
X162599019Y-134948347D01*
X162599019Y-134948347D02*
X162560923Y-135024538D01*
X161227590Y-137037395D02*
X161303780Y-137037395D01*
X161303780Y-137037395D02*
X161379971Y-137075490D01*
X161379971Y-137075490D02*
X161418066Y-137113585D01*
X161418066Y-137113585D02*
X161456161Y-137189776D01*
X161456161Y-137189776D02*
X161494256Y-137342157D01*
X161494256Y-137342157D02*
X161494256Y-137532633D01*
X161494256Y-137532633D02*
X161456161Y-137685014D01*
X161456161Y-137685014D02*
X161418066Y-137761204D01*
X161418066Y-137761204D02*
X161379971Y-137799300D01*
X161379971Y-137799300D02*
X161303780Y-137837395D01*
X161303780Y-137837395D02*
X161227590Y-137837395D01*
X161227590Y-137837395D02*
X161151399Y-137799300D01*
X161151399Y-137799300D02*
X161113304Y-137761204D01*
X161113304Y-137761204D02*
X161075209Y-137685014D01*
X161075209Y-137685014D02*
X161037113Y-137532633D01*
X161037113Y-137532633D02*
X161037113Y-137342157D01*
X161037113Y-137342157D02*
X161075209Y-137189776D01*
X161075209Y-137189776D02*
X161113304Y-137113585D01*
X161113304Y-137113585D02*
X161151399Y-137075490D01*
X161151399Y-137075490D02*
X161227590Y-137037395D01*
X161989495Y-137037395D02*
X162065685Y-137037395D01*
X162065685Y-137037395D02*
X162141876Y-137075490D01*
X162141876Y-137075490D02*
X162179971Y-137113585D01*
X162179971Y-137113585D02*
X162218066Y-137189776D01*
X162218066Y-137189776D02*
X162256161Y-137342157D01*
X162256161Y-137342157D02*
X162256161Y-137532633D01*
X162256161Y-137532633D02*
X162218066Y-137685014D01*
X162218066Y-137685014D02*
X162179971Y-137761204D01*
X162179971Y-137761204D02*
X162141876Y-137799300D01*
X162141876Y-137799300D02*
X162065685Y-137837395D01*
X162065685Y-137837395D02*
X161989495Y-137837395D01*
X161989495Y-137837395D02*
X161913304Y-137799300D01*
X161913304Y-137799300D02*
X161875209Y-137761204D01*
X161875209Y-137761204D02*
X161837114Y-137685014D01*
X161837114Y-137685014D02*
X161799018Y-137532633D01*
X161799018Y-137532633D02*
X161799018Y-137342157D01*
X161799018Y-137342157D02*
X161837114Y-137189776D01*
X161837114Y-137189776D02*
X161875209Y-137113585D01*
X161875209Y-137113585D02*
X161913304Y-137075490D01*
X161913304Y-137075490D02*
X161989495Y-137037395D01*
X162713304Y-137380252D02*
X162637114Y-137342157D01*
X162637114Y-137342157D02*
X162599019Y-137304061D01*
X162599019Y-137304061D02*
X162560923Y-137227871D01*
X162560923Y-137227871D02*
X162560923Y-137189776D01*
X162560923Y-137189776D02*
X162599019Y-137113585D01*
X162599019Y-137113585D02*
X162637114Y-137075490D01*
X162637114Y-137075490D02*
X162713304Y-137037395D01*
X162713304Y-137037395D02*
X162865685Y-137037395D01*
X162865685Y-137037395D02*
X162941876Y-137075490D01*
X162941876Y-137075490D02*
X162979971Y-137113585D01*
X162979971Y-137113585D02*
X163018066Y-137189776D01*
X163018066Y-137189776D02*
X163018066Y-137227871D01*
X163018066Y-137227871D02*
X162979971Y-137304061D01*
X162979971Y-137304061D02*
X162941876Y-137342157D01*
X162941876Y-137342157D02*
X162865685Y-137380252D01*
X162865685Y-137380252D02*
X162713304Y-137380252D01*
X162713304Y-137380252D02*
X162637114Y-137418347D01*
X162637114Y-137418347D02*
X162599019Y-137456442D01*
X162599019Y-137456442D02*
X162560923Y-137532633D01*
X162560923Y-137532633D02*
X162560923Y-137685014D01*
X162560923Y-137685014D02*
X162599019Y-137761204D01*
X162599019Y-137761204D02*
X162637114Y-137799300D01*
X162637114Y-137799300D02*
X162713304Y-137837395D01*
X162713304Y-137837395D02*
X162865685Y-137837395D01*
X162865685Y-137837395D02*
X162941876Y-137799300D01*
X162941876Y-137799300D02*
X162979971Y-137761204D01*
X162979971Y-137761204D02*
X163018066Y-137685014D01*
X163018066Y-137685014D02*
X163018066Y-137532633D01*
X163018066Y-137532633D02*
X162979971Y-137456442D01*
X162979971Y-137456442D02*
X162941876Y-137418347D01*
X162941876Y-137418347D02*
X162865685Y-137380252D01*
X161341876Y-139685490D02*
X161265686Y-139647395D01*
X161265686Y-139647395D02*
X161151400Y-139647395D01*
X161151400Y-139647395D02*
X161037114Y-139685490D01*
X161037114Y-139685490D02*
X160960924Y-139761680D01*
X160960924Y-139761680D02*
X160922829Y-139837871D01*
X160922829Y-139837871D02*
X160884733Y-139990252D01*
X160884733Y-139990252D02*
X160884733Y-140104538D01*
X160884733Y-140104538D02*
X160922829Y-140256919D01*
X160922829Y-140256919D02*
X160960924Y-140333109D01*
X160960924Y-140333109D02*
X161037114Y-140409300D01*
X161037114Y-140409300D02*
X161151400Y-140447395D01*
X161151400Y-140447395D02*
X161227591Y-140447395D01*
X161227591Y-140447395D02*
X161341876Y-140409300D01*
X161341876Y-140409300D02*
X161379972Y-140371204D01*
X161379972Y-140371204D02*
X161379972Y-140104538D01*
X161379972Y-140104538D02*
X161227591Y-140104538D01*
X161722829Y-140447395D02*
X161722829Y-139647395D01*
X161722829Y-139647395D02*
X162179972Y-140447395D01*
X162179972Y-140447395D02*
X162179972Y-139647395D01*
X162560924Y-140447395D02*
X162560924Y-139647395D01*
X162560924Y-139647395D02*
X162751400Y-139647395D01*
X162751400Y-139647395D02*
X162865686Y-139685490D01*
X162865686Y-139685490D02*
X162941876Y-139761680D01*
X162941876Y-139761680D02*
X162979971Y-139837871D01*
X162979971Y-139837871D02*
X163018067Y-139990252D01*
X163018067Y-139990252D02*
X163018067Y-140104538D01*
X163018067Y-140104538D02*
X162979971Y-140256919D01*
X162979971Y-140256919D02*
X162941876Y-140333109D01*
X162941876Y-140333109D02*
X162865686Y-140409300D01*
X162865686Y-140409300D02*
X162751400Y-140447395D01*
X162751400Y-140447395D02*
X162560924Y-140447395D01*
X161341876Y-142225490D02*
X161265686Y-142187395D01*
X161265686Y-142187395D02*
X161151400Y-142187395D01*
X161151400Y-142187395D02*
X161037114Y-142225490D01*
X161037114Y-142225490D02*
X160960924Y-142301680D01*
X160960924Y-142301680D02*
X160922829Y-142377871D01*
X160922829Y-142377871D02*
X160884733Y-142530252D01*
X160884733Y-142530252D02*
X160884733Y-142644538D01*
X160884733Y-142644538D02*
X160922829Y-142796919D01*
X160922829Y-142796919D02*
X160960924Y-142873109D01*
X160960924Y-142873109D02*
X161037114Y-142949300D01*
X161037114Y-142949300D02*
X161151400Y-142987395D01*
X161151400Y-142987395D02*
X161227591Y-142987395D01*
X161227591Y-142987395D02*
X161341876Y-142949300D01*
X161341876Y-142949300D02*
X161379972Y-142911204D01*
X161379972Y-142911204D02*
X161379972Y-142644538D01*
X161379972Y-142644538D02*
X161227591Y-142644538D01*
X161722829Y-142987395D02*
X161722829Y-142187395D01*
X161722829Y-142187395D02*
X162179972Y-142987395D01*
X162179972Y-142987395D02*
X162179972Y-142187395D01*
X162560924Y-142987395D02*
X162560924Y-142187395D01*
X162560924Y-142187395D02*
X162751400Y-142187395D01*
X162751400Y-142187395D02*
X162865686Y-142225490D01*
X162865686Y-142225490D02*
X162941876Y-142301680D01*
X162941876Y-142301680D02*
X162979971Y-142377871D01*
X162979971Y-142377871D02*
X163018067Y-142530252D01*
X163018067Y-142530252D02*
X163018067Y-142644538D01*
X163018067Y-142644538D02*
X162979971Y-142796919D01*
X162979971Y-142796919D02*
X162941876Y-142873109D01*
X162941876Y-142873109D02*
X162865686Y-142949300D01*
X162865686Y-142949300D02*
X162751400Y-142987395D01*
X162751400Y-142987395D02*
X162560924Y-142987395D01*
X161227590Y-144737395D02*
X161303780Y-144737395D01*
X161303780Y-144737395D02*
X161379971Y-144775490D01*
X161379971Y-144775490D02*
X161418066Y-144813585D01*
X161418066Y-144813585D02*
X161456161Y-144889776D01*
X161456161Y-144889776D02*
X161494256Y-145042157D01*
X161494256Y-145042157D02*
X161494256Y-145232633D01*
X161494256Y-145232633D02*
X161456161Y-145385014D01*
X161456161Y-145385014D02*
X161418066Y-145461204D01*
X161418066Y-145461204D02*
X161379971Y-145499300D01*
X161379971Y-145499300D02*
X161303780Y-145537395D01*
X161303780Y-145537395D02*
X161227590Y-145537395D01*
X161227590Y-145537395D02*
X161151399Y-145499300D01*
X161151399Y-145499300D02*
X161113304Y-145461204D01*
X161113304Y-145461204D02*
X161075209Y-145385014D01*
X161075209Y-145385014D02*
X161037113Y-145232633D01*
X161037113Y-145232633D02*
X161037113Y-145042157D01*
X161037113Y-145042157D02*
X161075209Y-144889776D01*
X161075209Y-144889776D02*
X161113304Y-144813585D01*
X161113304Y-144813585D02*
X161151399Y-144775490D01*
X161151399Y-144775490D02*
X161227590Y-144737395D01*
X162256161Y-145537395D02*
X161799018Y-145537395D01*
X162027590Y-145537395D02*
X162027590Y-144737395D01*
X162027590Y-144737395D02*
X161951399Y-144851680D01*
X161951399Y-144851680D02*
X161875209Y-144927871D01*
X161875209Y-144927871D02*
X161799018Y-144965966D01*
X162522828Y-144737395D02*
X163056162Y-144737395D01*
X163056162Y-144737395D02*
X162713304Y-145537395D01*
X161227590Y-147337395D02*
X161303780Y-147337395D01*
X161303780Y-147337395D02*
X161379971Y-147375490D01*
X161379971Y-147375490D02*
X161418066Y-147413585D01*
X161418066Y-147413585D02*
X161456161Y-147489776D01*
X161456161Y-147489776D02*
X161494256Y-147642157D01*
X161494256Y-147642157D02*
X161494256Y-147832633D01*
X161494256Y-147832633D02*
X161456161Y-147985014D01*
X161456161Y-147985014D02*
X161418066Y-148061204D01*
X161418066Y-148061204D02*
X161379971Y-148099300D01*
X161379971Y-148099300D02*
X161303780Y-148137395D01*
X161303780Y-148137395D02*
X161227590Y-148137395D01*
X161227590Y-148137395D02*
X161151399Y-148099300D01*
X161151399Y-148099300D02*
X161113304Y-148061204D01*
X161113304Y-148061204D02*
X161075209Y-147985014D01*
X161075209Y-147985014D02*
X161037113Y-147832633D01*
X161037113Y-147832633D02*
X161037113Y-147642157D01*
X161037113Y-147642157D02*
X161075209Y-147489776D01*
X161075209Y-147489776D02*
X161113304Y-147413585D01*
X161113304Y-147413585D02*
X161151399Y-147375490D01*
X161151399Y-147375490D02*
X161227590Y-147337395D01*
X161799018Y-147413585D02*
X161837114Y-147375490D01*
X161837114Y-147375490D02*
X161913304Y-147337395D01*
X161913304Y-147337395D02*
X162103780Y-147337395D01*
X162103780Y-147337395D02*
X162179971Y-147375490D01*
X162179971Y-147375490D02*
X162218066Y-147413585D01*
X162218066Y-147413585D02*
X162256161Y-147489776D01*
X162256161Y-147489776D02*
X162256161Y-147565966D01*
X162256161Y-147565966D02*
X162218066Y-147680252D01*
X162218066Y-147680252D02*
X161760923Y-148137395D01*
X161760923Y-148137395D02*
X162256161Y-148137395D01*
X162751400Y-147337395D02*
X162827590Y-147337395D01*
X162827590Y-147337395D02*
X162903781Y-147375490D01*
X162903781Y-147375490D02*
X162941876Y-147413585D01*
X162941876Y-147413585D02*
X162979971Y-147489776D01*
X162979971Y-147489776D02*
X163018066Y-147642157D01*
X163018066Y-147642157D02*
X163018066Y-147832633D01*
X163018066Y-147832633D02*
X162979971Y-147985014D01*
X162979971Y-147985014D02*
X162941876Y-148061204D01*
X162941876Y-148061204D02*
X162903781Y-148099300D01*
X162903781Y-148099300D02*
X162827590Y-148137395D01*
X162827590Y-148137395D02*
X162751400Y-148137395D01*
X162751400Y-148137395D02*
X162675209Y-148099300D01*
X162675209Y-148099300D02*
X162637114Y-148061204D01*
X162637114Y-148061204D02*
X162599019Y-147985014D01*
X162599019Y-147985014D02*
X162560923Y-147832633D01*
X162560923Y-147832633D02*
X162560923Y-147642157D01*
X162560923Y-147642157D02*
X162599019Y-147489776D01*
X162599019Y-147489776D02*
X162637114Y-147413585D01*
X162637114Y-147413585D02*
X162675209Y-147375490D01*
X162675209Y-147375490D02*
X162751400Y-147337395D01*
X161227590Y-149837395D02*
X161303780Y-149837395D01*
X161303780Y-149837395D02*
X161379971Y-149875490D01*
X161379971Y-149875490D02*
X161418066Y-149913585D01*
X161418066Y-149913585D02*
X161456161Y-149989776D01*
X161456161Y-149989776D02*
X161494256Y-150142157D01*
X161494256Y-150142157D02*
X161494256Y-150332633D01*
X161494256Y-150332633D02*
X161456161Y-150485014D01*
X161456161Y-150485014D02*
X161418066Y-150561204D01*
X161418066Y-150561204D02*
X161379971Y-150599300D01*
X161379971Y-150599300D02*
X161303780Y-150637395D01*
X161303780Y-150637395D02*
X161227590Y-150637395D01*
X161227590Y-150637395D02*
X161151399Y-150599300D01*
X161151399Y-150599300D02*
X161113304Y-150561204D01*
X161113304Y-150561204D02*
X161075209Y-150485014D01*
X161075209Y-150485014D02*
X161037113Y-150332633D01*
X161037113Y-150332633D02*
X161037113Y-150142157D01*
X161037113Y-150142157D02*
X161075209Y-149989776D01*
X161075209Y-149989776D02*
X161113304Y-149913585D01*
X161113304Y-149913585D02*
X161151399Y-149875490D01*
X161151399Y-149875490D02*
X161227590Y-149837395D01*
X161799018Y-149913585D02*
X161837114Y-149875490D01*
X161837114Y-149875490D02*
X161913304Y-149837395D01*
X161913304Y-149837395D02*
X162103780Y-149837395D01*
X162103780Y-149837395D02*
X162179971Y-149875490D01*
X162179971Y-149875490D02*
X162218066Y-149913585D01*
X162218066Y-149913585D02*
X162256161Y-149989776D01*
X162256161Y-149989776D02*
X162256161Y-150065966D01*
X162256161Y-150065966D02*
X162218066Y-150180252D01*
X162218066Y-150180252D02*
X161760923Y-150637395D01*
X161760923Y-150637395D02*
X162256161Y-150637395D01*
X162560923Y-149913585D02*
X162599019Y-149875490D01*
X162599019Y-149875490D02*
X162675209Y-149837395D01*
X162675209Y-149837395D02*
X162865685Y-149837395D01*
X162865685Y-149837395D02*
X162941876Y-149875490D01*
X162941876Y-149875490D02*
X162979971Y-149913585D01*
X162979971Y-149913585D02*
X163018066Y-149989776D01*
X163018066Y-149989776D02*
X163018066Y-150065966D01*
X163018066Y-150065966D02*
X162979971Y-150180252D01*
X162979971Y-150180252D02*
X162522828Y-150637395D01*
X162522828Y-150637395D02*
X163018066Y-150637395D01*
X161227590Y-152347395D02*
X161303780Y-152347395D01*
X161303780Y-152347395D02*
X161379971Y-152385490D01*
X161379971Y-152385490D02*
X161418066Y-152423585D01*
X161418066Y-152423585D02*
X161456161Y-152499776D01*
X161456161Y-152499776D02*
X161494256Y-152652157D01*
X161494256Y-152652157D02*
X161494256Y-152842633D01*
X161494256Y-152842633D02*
X161456161Y-152995014D01*
X161456161Y-152995014D02*
X161418066Y-153071204D01*
X161418066Y-153071204D02*
X161379971Y-153109300D01*
X161379971Y-153109300D02*
X161303780Y-153147395D01*
X161303780Y-153147395D02*
X161227590Y-153147395D01*
X161227590Y-153147395D02*
X161151399Y-153109300D01*
X161151399Y-153109300D02*
X161113304Y-153071204D01*
X161113304Y-153071204D02*
X161075209Y-152995014D01*
X161075209Y-152995014D02*
X161037113Y-152842633D01*
X161037113Y-152842633D02*
X161037113Y-152652157D01*
X161037113Y-152652157D02*
X161075209Y-152499776D01*
X161075209Y-152499776D02*
X161113304Y-152423585D01*
X161113304Y-152423585D02*
X161151399Y-152385490D01*
X161151399Y-152385490D02*
X161227590Y-152347395D01*
X161799018Y-152423585D02*
X161837114Y-152385490D01*
X161837114Y-152385490D02*
X161913304Y-152347395D01*
X161913304Y-152347395D02*
X162103780Y-152347395D01*
X162103780Y-152347395D02*
X162179971Y-152385490D01*
X162179971Y-152385490D02*
X162218066Y-152423585D01*
X162218066Y-152423585D02*
X162256161Y-152499776D01*
X162256161Y-152499776D02*
X162256161Y-152575966D01*
X162256161Y-152575966D02*
X162218066Y-152690252D01*
X162218066Y-152690252D02*
X161760923Y-153147395D01*
X161760923Y-153147395D02*
X162256161Y-153147395D01*
X162941876Y-152614061D02*
X162941876Y-153147395D01*
X162751400Y-152309300D02*
X162560923Y-152880728D01*
X162560923Y-152880728D02*
X163056162Y-152880728D01*
X161494256Y-155687395D02*
X161037113Y-155687395D01*
X161265685Y-155687395D02*
X161265685Y-154887395D01*
X161265685Y-154887395D02*
X161189494Y-155001680D01*
X161189494Y-155001680D02*
X161113304Y-155077871D01*
X161113304Y-155077871D02*
X161037113Y-155115966D01*
X161989495Y-154887395D02*
X162065685Y-154887395D01*
X162065685Y-154887395D02*
X162141876Y-154925490D01*
X162141876Y-154925490D02*
X162179971Y-154963585D01*
X162179971Y-154963585D02*
X162218066Y-155039776D01*
X162218066Y-155039776D02*
X162256161Y-155192157D01*
X162256161Y-155192157D02*
X162256161Y-155382633D01*
X162256161Y-155382633D02*
X162218066Y-155535014D01*
X162218066Y-155535014D02*
X162179971Y-155611204D01*
X162179971Y-155611204D02*
X162141876Y-155649300D01*
X162141876Y-155649300D02*
X162065685Y-155687395D01*
X162065685Y-155687395D02*
X161989495Y-155687395D01*
X161989495Y-155687395D02*
X161913304Y-155649300D01*
X161913304Y-155649300D02*
X161875209Y-155611204D01*
X161875209Y-155611204D02*
X161837114Y-155535014D01*
X161837114Y-155535014D02*
X161799018Y-155382633D01*
X161799018Y-155382633D02*
X161799018Y-155192157D01*
X161799018Y-155192157D02*
X161837114Y-155039776D01*
X161837114Y-155039776D02*
X161875209Y-154963585D01*
X161875209Y-154963585D02*
X161913304Y-154925490D01*
X161913304Y-154925490D02*
X161989495Y-154887395D01*
X162751400Y-154887395D02*
X162827590Y-154887395D01*
X162827590Y-154887395D02*
X162903781Y-154925490D01*
X162903781Y-154925490D02*
X162941876Y-154963585D01*
X162941876Y-154963585D02*
X162979971Y-155039776D01*
X162979971Y-155039776D02*
X163018066Y-155192157D01*
X163018066Y-155192157D02*
X163018066Y-155382633D01*
X163018066Y-155382633D02*
X162979971Y-155535014D01*
X162979971Y-155535014D02*
X162941876Y-155611204D01*
X162941876Y-155611204D02*
X162903781Y-155649300D01*
X162903781Y-155649300D02*
X162827590Y-155687395D01*
X162827590Y-155687395D02*
X162751400Y-155687395D01*
X162751400Y-155687395D02*
X162675209Y-155649300D01*
X162675209Y-155649300D02*
X162637114Y-155611204D01*
X162637114Y-155611204D02*
X162599019Y-155535014D01*
X162599019Y-155535014D02*
X162560923Y-155382633D01*
X162560923Y-155382633D02*
X162560923Y-155192157D01*
X162560923Y-155192157D02*
X162599019Y-155039776D01*
X162599019Y-155039776D02*
X162637114Y-154963585D01*
X162637114Y-154963585D02*
X162675209Y-154925490D01*
X162675209Y-154925490D02*
X162751400Y-154887395D01*
X161494256Y-160767395D02*
X161037113Y-160767395D01*
X161265685Y-160767395D02*
X161265685Y-159967395D01*
X161265685Y-159967395D02*
X161189494Y-160081680D01*
X161189494Y-160081680D02*
X161113304Y-160157871D01*
X161113304Y-160157871D02*
X161037113Y-160195966D01*
X161989495Y-159967395D02*
X162065685Y-159967395D01*
X162065685Y-159967395D02*
X162141876Y-160005490D01*
X162141876Y-160005490D02*
X162179971Y-160043585D01*
X162179971Y-160043585D02*
X162218066Y-160119776D01*
X162218066Y-160119776D02*
X162256161Y-160272157D01*
X162256161Y-160272157D02*
X162256161Y-160462633D01*
X162256161Y-160462633D02*
X162218066Y-160615014D01*
X162218066Y-160615014D02*
X162179971Y-160691204D01*
X162179971Y-160691204D02*
X162141876Y-160729300D01*
X162141876Y-160729300D02*
X162065685Y-160767395D01*
X162065685Y-160767395D02*
X161989495Y-160767395D01*
X161989495Y-160767395D02*
X161913304Y-160729300D01*
X161913304Y-160729300D02*
X161875209Y-160691204D01*
X161875209Y-160691204D02*
X161837114Y-160615014D01*
X161837114Y-160615014D02*
X161799018Y-160462633D01*
X161799018Y-160462633D02*
X161799018Y-160272157D01*
X161799018Y-160272157D02*
X161837114Y-160119776D01*
X161837114Y-160119776D02*
X161875209Y-160043585D01*
X161875209Y-160043585D02*
X161913304Y-160005490D01*
X161913304Y-160005490D02*
X161989495Y-159967395D01*
X162941876Y-160234061D02*
X162941876Y-160767395D01*
X162751400Y-159929300D02*
X162560923Y-160500728D01*
X162560923Y-160500728D02*
X163056162Y-160500728D01*
D11*
X151200685Y-162115428D02*
X151200685Y-163115428D01*
X151200685Y-162258285D02*
X151272114Y-162186857D01*
X151272114Y-162186857D02*
X151414971Y-162115428D01*
X151414971Y-162115428D02*
X151629257Y-162115428D01*
X151629257Y-162115428D02*
X151772114Y-162186857D01*
X151772114Y-162186857D02*
X151843543Y-162329714D01*
X151843543Y-162329714D02*
X151843543Y-163115428D01*
X152557828Y-163115428D02*
X152557828Y-162115428D01*
X152557828Y-161615428D02*
X152486400Y-161686857D01*
X152486400Y-161686857D02*
X152557828Y-161758285D01*
X152557828Y-161758285D02*
X152629257Y-161686857D01*
X152629257Y-161686857D02*
X152557828Y-161615428D01*
X152557828Y-161615428D02*
X152557828Y-161758285D01*
X153914972Y-163044000D02*
X153772114Y-163115428D01*
X153772114Y-163115428D02*
X153486400Y-163115428D01*
X153486400Y-163115428D02*
X153343543Y-163044000D01*
X153343543Y-163044000D02*
X153272114Y-162972571D01*
X153272114Y-162972571D02*
X153200686Y-162829714D01*
X153200686Y-162829714D02*
X153200686Y-162401142D01*
X153200686Y-162401142D02*
X153272114Y-162258285D01*
X153272114Y-162258285D02*
X153343543Y-162186857D01*
X153343543Y-162186857D02*
X153486400Y-162115428D01*
X153486400Y-162115428D02*
X153772114Y-162115428D01*
X153772114Y-162115428D02*
X153914972Y-162186857D01*
X155129257Y-163044000D02*
X154986400Y-163115428D01*
X154986400Y-163115428D02*
X154700686Y-163115428D01*
X154700686Y-163115428D02*
X154557828Y-163044000D01*
X154557828Y-163044000D02*
X154486400Y-162901142D01*
X154486400Y-162901142D02*
X154486400Y-162329714D01*
X154486400Y-162329714D02*
X154557828Y-162186857D01*
X154557828Y-162186857D02*
X154700686Y-162115428D01*
X154700686Y-162115428D02*
X154986400Y-162115428D01*
X154986400Y-162115428D02*
X155129257Y-162186857D01*
X155129257Y-162186857D02*
X155200686Y-162329714D01*
X155200686Y-162329714D02*
X155200686Y-162472571D01*
X155200686Y-162472571D02*
X154486400Y-162615428D01*
X155843542Y-162972571D02*
X155914971Y-163044000D01*
X155914971Y-163044000D02*
X155843542Y-163115428D01*
X155843542Y-163115428D02*
X155772114Y-163044000D01*
X155772114Y-163044000D02*
X155843542Y-162972571D01*
X155843542Y-162972571D02*
X155843542Y-163115428D01*
X155843542Y-162544000D02*
X155772114Y-161686857D01*
X155772114Y-161686857D02*
X155843542Y-161615428D01*
X155843542Y-161615428D02*
X155914971Y-161686857D01*
X155914971Y-161686857D02*
X155843542Y-162544000D01*
X155843542Y-162544000D02*
X155843542Y-161615428D01*
X156557828Y-162115428D02*
X156557828Y-163115428D01*
X156557828Y-162258285D02*
X156629257Y-162186857D01*
X156629257Y-162186857D02*
X156772114Y-162115428D01*
X156772114Y-162115428D02*
X156986400Y-162115428D01*
X156986400Y-162115428D02*
X157129257Y-162186857D01*
X157129257Y-162186857D02*
X157200686Y-162329714D01*
X157200686Y-162329714D02*
X157200686Y-163115428D01*
X158557829Y-163115428D02*
X158557829Y-162329714D01*
X158557829Y-162329714D02*
X158486400Y-162186857D01*
X158486400Y-162186857D02*
X158343543Y-162115428D01*
X158343543Y-162115428D02*
X158057829Y-162115428D01*
X158057829Y-162115428D02*
X157914971Y-162186857D01*
X158557829Y-163044000D02*
X158414971Y-163115428D01*
X158414971Y-163115428D02*
X158057829Y-163115428D01*
X158057829Y-163115428D02*
X157914971Y-163044000D01*
X157914971Y-163044000D02*
X157843543Y-162901142D01*
X157843543Y-162901142D02*
X157843543Y-162758285D01*
X157843543Y-162758285D02*
X157914971Y-162615428D01*
X157914971Y-162615428D02*
X158057829Y-162544000D01*
X158057829Y-162544000D02*
X158414971Y-162544000D01*
X158414971Y-162544000D02*
X158557829Y-162472571D01*
X159272114Y-162115428D02*
X159272114Y-163115428D01*
X159272114Y-162258285D02*
X159343543Y-162186857D01*
X159343543Y-162186857D02*
X159486400Y-162115428D01*
X159486400Y-162115428D02*
X159700686Y-162115428D01*
X159700686Y-162115428D02*
X159843543Y-162186857D01*
X159843543Y-162186857D02*
X159914972Y-162329714D01*
X159914972Y-162329714D02*
X159914972Y-163115428D01*
X160843543Y-163115428D02*
X160700686Y-163044000D01*
X160700686Y-163044000D02*
X160629257Y-162972571D01*
X160629257Y-162972571D02*
X160557829Y-162829714D01*
X160557829Y-162829714D02*
X160557829Y-162401142D01*
X160557829Y-162401142D02*
X160629257Y-162258285D01*
X160629257Y-162258285D02*
X160700686Y-162186857D01*
X160700686Y-162186857D02*
X160843543Y-162115428D01*
X160843543Y-162115428D02*
X161057829Y-162115428D01*
X161057829Y-162115428D02*
X161200686Y-162186857D01*
X161200686Y-162186857D02*
X161272115Y-162258285D01*
X161272115Y-162258285D02*
X161343543Y-162401142D01*
X161343543Y-162401142D02*
X161343543Y-162829714D01*
X161343543Y-162829714D02*
X161272115Y-162972571D01*
X161272115Y-162972571D02*
X161200686Y-163044000D01*
X161200686Y-163044000D02*
X161057829Y-163115428D01*
X161057829Y-163115428D02*
X160843543Y-163115428D01*
D12*
%TO.C,D1*%
X160696460Y-183631839D02*
X161149614Y-183420530D01*
X160865507Y-183994363D02*
X160152675Y-183885410D01*
X160527413Y-183269316D02*
X160865507Y-183994363D01*
X160152675Y-183885410D02*
X160527413Y-183269316D01*
X160152675Y-183885410D02*
X160385115Y-184383880D01*
X160152675Y-183885410D02*
X159920235Y-183386941D01*
X159790152Y-184054458D02*
X160152675Y-183885410D01*
%TO.C,D2*%
X179855550Y-177659432D02*
X180347954Y-177572608D01*
X179925009Y-178053355D02*
X179264665Y-177763621D01*
X179786091Y-177265509D02*
X179925009Y-178053355D01*
X179264665Y-177763621D02*
X179786091Y-177265509D01*
X179264665Y-177763621D02*
X179360172Y-178305265D01*
X179264665Y-177763621D02*
X179169159Y-177221977D01*
X178870742Y-177833080D02*
X179264665Y-177763621D01*
%TO.C,D3*%
X199550400Y-175980100D02*
X200050400Y-175980100D01*
X199550400Y-176380100D02*
X198950400Y-175980100D01*
X199550400Y-175580100D02*
X199550400Y-176380100D01*
X198950400Y-175980100D02*
X199550400Y-175580100D01*
X198950400Y-175980100D02*
X198950400Y-176530100D01*
X198950400Y-175980100D02*
X198950400Y-175430100D01*
X198550400Y-175980100D02*
X198950400Y-175980100D01*
%TO.C,D4*%
X271740400Y-156930100D02*
X272240400Y-156930100D01*
X271740400Y-157330100D02*
X271140400Y-156930100D01*
X271740400Y-156530100D02*
X271740400Y-157330100D01*
X271140400Y-156930100D02*
X271740400Y-156530100D01*
X271140400Y-156930100D02*
X271140400Y-157480100D01*
X271140400Y-156930100D02*
X271140400Y-156380100D01*
X270740400Y-156930100D02*
X271140400Y-156930100D01*
%TO.C,D5*%
X271740400Y-137880100D02*
X272240400Y-137880100D01*
X271740400Y-138280100D02*
X271140400Y-137880100D01*
X271740400Y-137480100D02*
X271740400Y-138280100D01*
X271140400Y-137880100D02*
X271740400Y-137480100D01*
X271140400Y-137880100D02*
X271140400Y-138430100D01*
X271140400Y-137880100D02*
X271140400Y-137330100D01*
X270740400Y-137880100D02*
X271140400Y-137880100D01*
%TO.C,D6*%
X271740400Y-118830100D02*
X272240400Y-118830100D01*
X271740400Y-119230100D02*
X271140400Y-118830100D01*
X271740400Y-118430100D02*
X271740400Y-119230100D01*
X271140400Y-118830100D02*
X271740400Y-118430100D01*
X271140400Y-118830100D02*
X271140400Y-119380100D01*
X271140400Y-118830100D02*
X271140400Y-118280100D01*
X270740400Y-118830100D02*
X271140400Y-118830100D01*
%TO.C,D7*%
X252740400Y-152167600D02*
X253240400Y-152167600D01*
X252740400Y-152567600D02*
X252140400Y-152167600D01*
X252740400Y-151767600D02*
X252740400Y-152567600D01*
X252140400Y-152167600D02*
X252740400Y-151767600D01*
X252140400Y-152167600D02*
X252140400Y-152717600D01*
X252140400Y-152167600D02*
X252140400Y-151617600D01*
X251740400Y-152167600D02*
X252140400Y-152167600D01*
%TO.C,D8*%
X252740400Y-133117600D02*
X253240400Y-133117600D01*
X252740400Y-133517600D02*
X252140400Y-133117600D01*
X252740400Y-132717600D02*
X252740400Y-133517600D01*
X252140400Y-133117600D02*
X252740400Y-132717600D01*
X252140400Y-133117600D02*
X252140400Y-133667600D01*
X252140400Y-133117600D02*
X252140400Y-132567600D01*
X251740400Y-133117600D02*
X252140400Y-133117600D01*
%TO.C,D9*%
X252740400Y-114067600D02*
X253240400Y-114067600D01*
X252740400Y-114467600D02*
X252140400Y-114067600D01*
X252740400Y-113667600D02*
X252740400Y-114467600D01*
X252140400Y-114067600D02*
X252740400Y-113667600D01*
X252140400Y-114067600D02*
X252140400Y-114617600D01*
X252140400Y-114067600D02*
X252140400Y-113517600D01*
X251740400Y-114067600D02*
X252140400Y-114067600D01*
%TO.C,D10*%
X233740400Y-152167600D02*
X234240400Y-152167600D01*
X233740400Y-152567600D02*
X233140400Y-152167600D01*
X233740400Y-151767600D02*
X233740400Y-152567600D01*
X233140400Y-152167600D02*
X233740400Y-151767600D01*
X233140400Y-152167600D02*
X233140400Y-152717600D01*
X233140400Y-152167600D02*
X233140400Y-151617600D01*
X232740400Y-152167600D02*
X233140400Y-152167600D01*
%TO.C,D11*%
X233740400Y-133117600D02*
X234240400Y-133117600D01*
X233740400Y-133517600D02*
X233140400Y-133117600D01*
X233740400Y-132717600D02*
X233740400Y-133517600D01*
X233140400Y-133117600D02*
X233740400Y-132717600D01*
X233140400Y-133117600D02*
X233140400Y-133667600D01*
X233140400Y-133117600D02*
X233140400Y-132567600D01*
X232740400Y-133117600D02*
X233140400Y-133117600D01*
%TO.C,D12*%
X233740400Y-114067600D02*
X234240400Y-114067600D01*
X233740400Y-114467600D02*
X233140400Y-114067600D01*
X233740400Y-113667600D02*
X233740400Y-114467600D01*
X233140400Y-114067600D02*
X233740400Y-113667600D01*
X233140400Y-114067600D02*
X233140400Y-114617600D01*
X233140400Y-114067600D02*
X233140400Y-113517600D01*
X232740400Y-114067600D02*
X233140400Y-114067600D01*
%TO.C,D13*%
X214740400Y-147405100D02*
X215240400Y-147405100D01*
X214740400Y-147805100D02*
X214140400Y-147405100D01*
X214740400Y-147005100D02*
X214740400Y-147805100D01*
X214140400Y-147405100D02*
X214740400Y-147005100D01*
X214140400Y-147405100D02*
X214140400Y-147955100D01*
X214140400Y-147405100D02*
X214140400Y-146855100D01*
X213740400Y-147405100D02*
X214140400Y-147405100D01*
%TO.C,D14*%
X214740400Y-128355100D02*
X215240400Y-128355100D01*
X214740400Y-128755100D02*
X214140400Y-128355100D01*
X214740400Y-127955100D02*
X214740400Y-128755100D01*
X214140400Y-128355100D02*
X214740400Y-127955100D01*
X214140400Y-128355100D02*
X214140400Y-128905100D01*
X214140400Y-128355100D02*
X214140400Y-127805100D01*
X213740400Y-128355100D02*
X214140400Y-128355100D01*
%TO.C,D15*%
X214740400Y-109305100D02*
X215240400Y-109305100D01*
X214740400Y-109705100D02*
X214140400Y-109305100D01*
X214740400Y-108905100D02*
X214740400Y-109705100D01*
X214140400Y-109305100D02*
X214740400Y-108905100D01*
X214140400Y-109305100D02*
X214140400Y-109855100D01*
X214140400Y-109305100D02*
X214140400Y-108755100D01*
X213740400Y-109305100D02*
X214140400Y-109305100D01*
%TO.C,D16*%
X195740400Y-152167600D02*
X196240400Y-152167600D01*
X195740400Y-152567600D02*
X195140400Y-152167600D01*
X195740400Y-151767600D02*
X195740400Y-152567600D01*
X195140400Y-152167600D02*
X195740400Y-151767600D01*
X195140400Y-152167600D02*
X195140400Y-152717600D01*
X195140400Y-152167600D02*
X195140400Y-151617600D01*
X194740400Y-152167600D02*
X195140400Y-152167600D01*
%TO.C,D17*%
X195740400Y-133117600D02*
X196240400Y-133117600D01*
X195740400Y-133517600D02*
X195140400Y-133117600D01*
X195740400Y-132717600D02*
X195740400Y-133517600D01*
X195140400Y-133117600D02*
X195740400Y-132717600D01*
X195140400Y-133117600D02*
X195140400Y-133667600D01*
X195140400Y-133117600D02*
X195140400Y-132567600D01*
X194740400Y-133117600D02*
X195140400Y-133117600D01*
%TO.C,D18*%
X195740400Y-114067600D02*
X196240400Y-114067600D01*
X195740400Y-114467600D02*
X195140400Y-114067600D01*
X195740400Y-113667600D02*
X195740400Y-114467600D01*
X195140400Y-114067600D02*
X195740400Y-113667600D01*
X195140400Y-114067600D02*
X195140400Y-114617600D01*
X195140400Y-114067600D02*
X195140400Y-113517600D01*
X194740400Y-114067600D02*
X195140400Y-114067600D01*
%TO.C,D19*%
X176740400Y-155025100D02*
X177240400Y-155025100D01*
X176740400Y-155425100D02*
X176140400Y-155025100D01*
X176740400Y-154625100D02*
X176740400Y-155425100D01*
X176140400Y-155025100D02*
X176740400Y-154625100D01*
X176140400Y-155025100D02*
X176140400Y-155575100D01*
X176140400Y-155025100D02*
X176140400Y-154475100D01*
X175740400Y-155025100D02*
X176140400Y-155025100D01*
%TO.C,D20*%
X176740400Y-135975100D02*
X177240400Y-135975100D01*
X176740400Y-136375100D02*
X176140400Y-135975100D01*
X176740400Y-135575100D02*
X176740400Y-136375100D01*
X176140400Y-135975100D02*
X176740400Y-135575100D01*
X176140400Y-135975100D02*
X176140400Y-136525100D01*
X176140400Y-135975100D02*
X176140400Y-135425100D01*
X175740400Y-135975100D02*
X176140400Y-135975100D01*
%TO.C,D21*%
X176740400Y-116925100D02*
X177240400Y-116925100D01*
X176740400Y-117325100D02*
X176140400Y-116925100D01*
X176740400Y-116525100D02*
X176740400Y-117325100D01*
X176140400Y-116925100D02*
X176740400Y-116525100D01*
X176140400Y-116925100D02*
X176140400Y-117475100D01*
X176140400Y-116925100D02*
X176140400Y-116375100D01*
X175740400Y-116925100D02*
X176140400Y-116925100D01*
D13*
%TO.C,MCU1*%
X165380400Y-164215100D02*
X165380400Y-131195100D01*
X147600400Y-164215100D02*
X165380400Y-164215100D01*
X147600400Y-131195100D02*
X147600400Y-164215100D01*
X165380400Y-131195100D02*
X147600400Y-131195100D01*
%TD*%
D14*
%TO.C,MCU1*%
X164110400Y-135005100D03*
X164110400Y-137545100D03*
X164110400Y-140085100D03*
X164110400Y-142625100D03*
X164110400Y-145165100D03*
X164110400Y-147705100D03*
X164110400Y-150245100D03*
X164110400Y-152785100D03*
X164110400Y-155325100D03*
X164110400Y-157865100D03*
X164110400Y-160405100D03*
X164110400Y-162945100D03*
X148870400Y-162945100D03*
X148870400Y-160405100D03*
X148870400Y-157865100D03*
X148870400Y-155325100D03*
X148870400Y-152785100D03*
X148870400Y-150245100D03*
X148870400Y-147705100D03*
X148870400Y-145165100D03*
X148870400Y-142625100D03*
X148870400Y-140085100D03*
X148870400Y-137545100D03*
X148870400Y-135005100D03*
%TD*%
M02*
