%TF.GenerationSoftware,KiCad,Pcbnew,7.0.9*%
%TF.CreationDate,2024-08-18T04:48:34-07:00*%
%TF.ProjectId,right,72696768-742e-46b6-9963-61645f706362,v1.0.0*%
%TF.SameCoordinates,Original*%
%TF.FileFunction,Paste,Top*%
%TF.FilePolarity,Positive*%
%FSLAX46Y46*%
G04 Gerber Fmt 4.6, Leading zero omitted, Abs format (unit mm)*
G04 Created by KiCad (PCBNEW 7.0.9) date 2024-08-18 04:48:34*
%MOMM*%
%LPD*%
G01*
G04 APERTURE LIST*
G04 Aperture macros list*
%AMRotRect*
0 Rectangle, with rotation*
0 The origin of the aperture is its center*
0 $1 length*
0 $2 width*
0 $3 Rotation angle, in degrees counterclockwise*
0 Add horizontal line*
21,1,$1,$2,0,0,$3*%
G04 Aperture macros list end*
%ADD10RotRect,0.900000X1.200000X25.000000*%
%ADD11RotRect,0.900000X1.200000X10.000000*%
%ADD12R,0.900000X1.200000*%
G04 APERTURE END LIST*
D10*
%TO.C,D1*%
X158974475Y-184434814D03*
X161965291Y-183040174D03*
%TD*%
D11*
%TO.C,D2*%
X177984415Y-177989363D03*
X181234281Y-177416325D03*
%TD*%
D12*
%TO.C,D3*%
X197650400Y-175980100D03*
X200950400Y-175980100D03*
%TD*%
%TO.C,D4*%
X269840400Y-156930100D03*
X273140400Y-156930100D03*
%TD*%
%TO.C,D5*%
X269840400Y-137880100D03*
X273140400Y-137880100D03*
%TD*%
%TO.C,D6*%
X269840400Y-118830100D03*
X273140400Y-118830100D03*
%TD*%
%TO.C,D7*%
X250840400Y-152167600D03*
X254140400Y-152167600D03*
%TD*%
%TO.C,D8*%
X250840400Y-133117600D03*
X254140400Y-133117600D03*
%TD*%
%TO.C,D9*%
X250840400Y-114067600D03*
X254140400Y-114067600D03*
%TD*%
%TO.C,D10*%
X231840400Y-152167600D03*
X235140400Y-152167600D03*
%TD*%
%TO.C,D11*%
X231840400Y-133117600D03*
X235140400Y-133117600D03*
%TD*%
%TO.C,D12*%
X231840400Y-114067600D03*
X235140400Y-114067600D03*
%TD*%
%TO.C,D13*%
X212840400Y-147405100D03*
X216140400Y-147405100D03*
%TD*%
%TO.C,D14*%
X212840400Y-128355100D03*
X216140400Y-128355100D03*
%TD*%
%TO.C,D15*%
X212840400Y-109305100D03*
X216140400Y-109305100D03*
%TD*%
%TO.C,D16*%
X193840400Y-152167600D03*
X197140400Y-152167600D03*
%TD*%
%TO.C,D17*%
X193840400Y-133117600D03*
X197140400Y-133117600D03*
%TD*%
%TO.C,D18*%
X193840400Y-114067600D03*
X197140400Y-114067600D03*
%TD*%
%TO.C,D19*%
X174840400Y-155025100D03*
X178140400Y-155025100D03*
%TD*%
%TO.C,D20*%
X174840400Y-135975100D03*
X178140400Y-135975100D03*
%TD*%
%TO.C,D21*%
X174840400Y-116925100D03*
X178140400Y-116925100D03*
%TD*%
M02*
