%TF.GenerationSoftware,KiCad,Pcbnew,7.0.9*%
%TF.CreationDate,2024-08-18T04:48:34-07:00*%
%TF.ProjectId,right,72696768-742e-46b6-9963-61645f706362,v1.0.0*%
%TF.SameCoordinates,Original*%
%TF.FileFunction,Profile,NP*%
%FSLAX46Y46*%
G04 Gerber Fmt 4.6, Leading zero omitted, Abs format (unit mm)*
G04 Created by KiCad (PCBNEW 7.0.9) date 2024-08-18 04:48:34*
%MOMM*%
%LPD*%
G01*
G04 APERTURE LIST*
%TA.AperFunction,Profile*%
%ADD10C,0.150000*%
%TD*%
G04 APERTURE END LIST*
D10*
X168990400Y-101925100D02*
X182990400Y-101925100D01*
X165990400Y-127025100D02*
X165990400Y-104925100D01*
X144732902Y-174525100D02*
X144490400Y-174525100D01*
X141490400Y-171525100D02*
X141490400Y-133025100D01*
X144490400Y-130025100D02*
X162990400Y-130025100D01*
X185490400Y-99067600D02*
X200990400Y-99067600D01*
X184990400Y-99567600D02*
X184990400Y-99925100D01*
X224990400Y-98067600D02*
X224990400Y-97305100D01*
X221990400Y-94305100D02*
X204990400Y-94305100D01*
X203990400Y-95305100D02*
X203990400Y-96067600D01*
X224990400Y-160167600D02*
X224990400Y-160405100D01*
X212800400Y-162405100D02*
X222990400Y-162405100D01*
X225990400Y-99067600D02*
X259990400Y-99067600D01*
X227990400Y-157167600D02*
X259990400Y-157167600D01*
X262990400Y-102830100D02*
X262990400Y-102067600D01*
X281990400Y-158930100D02*
X281990400Y-106830100D01*
X263990400Y-103830100D02*
X278990400Y-103830100D01*
X263990400Y-161930100D02*
X278990400Y-161930100D01*
X260990400Y-158167600D02*
X260990400Y-158930100D01*
X190079423Y-180980100D02*
X206800400Y-180980100D01*
X209800400Y-177980100D02*
X209800400Y-165405100D01*
X171547837Y-184201439D02*
X189558479Y-181025677D01*
X155785666Y-191438670D02*
X170800927Y-184436939D01*
X144732902Y-174525100D02*
X144614377Y-174580369D01*
X144614377Y-174580369D02*
X151798888Y-189987601D01*
X200990400Y-99067600D02*
G75*
G03*
X203990400Y-96067600I0J3000000D01*
G01*
X224990400Y-97305100D02*
G75*
G03*
X221990400Y-94305100I-3000000J0D01*
G01*
X262990400Y-102067600D02*
G75*
G03*
X259990400Y-99067600I-3000000J0D01*
G01*
X281990400Y-106830100D02*
G75*
G03*
X278990400Y-103830100I-3000000J0D01*
G01*
X278990400Y-161930100D02*
G75*
G03*
X281990400Y-158930100I0J3000000D01*
G01*
X260990400Y-158930100D02*
G75*
G03*
X263990400Y-161930100I3000000J0D01*
G01*
X227990400Y-157167600D02*
G75*
G03*
X224990400Y-160167600I0J-3000000D01*
G01*
X212800400Y-162405100D02*
G75*
G03*
X209800400Y-165405100I0J-3000000D01*
G01*
X206800400Y-180980100D02*
G75*
G03*
X209800400Y-177980100I0J3000000D01*
G01*
X190079423Y-180980101D02*
G75*
G03*
X189558479Y-181025678I0J-2999999D01*
G01*
X171547837Y-184201440D02*
G75*
G03*
X170800927Y-184436940I520945J-2954422D01*
G01*
X151798889Y-189987601D02*
G75*
G03*
X155785666Y-191438668I2718922J1267855D01*
G01*
X141490400Y-171525100D02*
G75*
G03*
X144490400Y-174525100I3000000J0D01*
G01*
X144490400Y-130025100D02*
G75*
G03*
X141490400Y-133025100I0J-3000000D01*
G01*
X162990400Y-130025100D02*
G75*
G03*
X165990400Y-127025100I0J3000000D01*
G01*
X168990400Y-101925100D02*
G75*
G03*
X165990400Y-104925100I0J-3000000D01*
G01*
X182990400Y-101925100D02*
G75*
G03*
X184990400Y-99925100I0J2000000D01*
G01*
X222990400Y-162405100D02*
G75*
G03*
X224990400Y-160405100I0J2000000D01*
G01*
X204990400Y-94305100D02*
G75*
G03*
X203990400Y-95305100I0J-1000000D01*
G01*
X224990400Y-98067600D02*
G75*
G03*
X225990400Y-99067600I1000000J0D01*
G01*
X262990400Y-102830100D02*
G75*
G03*
X263990400Y-103830100I1000000J0D01*
G01*
X260990400Y-158167600D02*
G75*
G03*
X259990400Y-157167600I-1000000J0D01*
G01*
X185490400Y-99067600D02*
G75*
G03*
X184990400Y-99567600I0J-500000D01*
G01*
X190145303Y-181518081D02*
G75*
G03*
X190145303Y-181518081I-500000J0D01*
G01*
X171512236Y-184890093D02*
G75*
G03*
X171512236Y-184890093I-500000J0D01*
G01*
M02*
